<svg width="423" height="451" viewBox="0 0 423 451" fill="none" xmlns="http://www.w3.org/2000/svg">
<g filter="url(#filter0_i)">
<path fill-rule="evenodd" clip-rule="evenodd" d="M203.902 0.369366C274.761 -2.13805 354.199 7.02638 399.026 61.9773C438.288 117.475 418.765 189.556 413.382 257.16C408.654 316.536 414.6 383.813 370.237 423.545C326.947 462.316 261.735 450.398 203.902 444.773C153.567 439.877 103.11 429.522 67.05 394.053C30.7094 358.308 20.2791 307.642 13.1618 257.16C4.354 194.689 -15.5039 125.956 22.1116 75.3149C62.7472 20.6076 135.81 2.77889 203.902 0.369366Z" fill="#6CBDFE"/>
</g>
<g filter="url(#filter1_i)">
<path fill-rule="evenodd" clip-rule="evenodd" d="M221.151 381.368C175.527 382.543 133.487 355.072 104.865 319.519C80.0576 288.703 84.1933 247.25 81.4105 207.786C78.5467 167.173 62.437 121.614 88.7173 90.5214C115.268 59.109 163.517 69.4156 204.084 62.6488C254.126 54.3014 306.735 19.9371 349.653 46.9954C394.877 75.5076 409.212 136.963 406.665 190.369C404.329 239.36 371.112 278.359 336.942 313.54C304.542 346.898 267.636 380.171 221.151 381.368Z" fill="#1D8FE9"/>
</g>
<g filter="url(#filter2_i)">
<path fill-rule="evenodd" clip-rule="evenodd" d="M256.838 72.2134C286.735 60.1765 322.568 56.8693 348.935 71.2995C374.321 85.1927 379.102 115.041 384.034 141.825C388.385 165.458 384.162 188.499 374.813 211.848C362.4 242.845 357.453 285.257 322.514 295.461C287.573 305.667 261.312 271.801 233.502 253.121C212.01 238.686 188.667 224.96 182.187 201.205C175.797 177.78 187.249 153.605 200.234 131.167C213.982 107.412 229.635 83.1656 256.838 72.2134Z" fill="#2E303E"/>
</g>
<defs>
<filter id="filter0_i" x="0" y="0" width="423" height="455" filterUnits="userSpaceOnUse" color-interpolation-filters="sRGB">
<feFlood flood-opacity="0" result="BackgroundImageFix"/>
<feBlend mode="normal" in="SourceGraphic" in2="BackgroundImageFix" result="shape"/>
<feColorMatrix in="SourceAlpha" type="matrix" values="0 0 0 0 0 0 0 0 0 0 0 0 0 0 0 0 0 0 127 0" result="hardAlpha"/>
<feOffset dy="4"/>
<feGaussianBlur stdDeviation="10"/>
<feComposite in2="hardAlpha" operator="arithmetic" k2="-1" k3="1"/>
<feColorMatrix type="matrix" values="0 0 0 0 0 0 0 0 0 0 0 0 0 0 0 0 0 0 0.25 0"/>
<feBlend mode="normal" in2="shape" result="effect1_innerShadow"/>
</filter>
<filter id="filter1_i" x="69" y="32" width="348.601" height="360.583" filterUnits="userSpaceOnUse" color-interpolation-filters="sRGB">
<feFlood flood-opacity="0" result="BackgroundImageFix"/>
<feBlend mode="normal" in="SourceGraphic" in2="BackgroundImageFix" result="shape"/>
<feColorMatrix in="SourceAlpha" type="matrix" values="0 0 0 0 0 0 0 0 0 0 0 0 0 0 0 0 0 0 127 0" result="hardAlpha"/>
<feOffset dy="4"/>
<feGaussianBlur stdDeviation="15"/>
<feComposite in2="hardAlpha" operator="arithmetic" k2="-1" k3="1"/>
<feColorMatrix type="matrix" values="0 0 0 0 0 0 0 0 0 0 0 0 0 0 0 0 0 0 0.25 0"/>
<feBlend mode="normal" in2="shape" result="effect1_innerShadow"/>
</filter>
<filter id="filter2_i" x="153" y="42" width="269.913" height="287.95" filterUnits="userSpaceOnUse" color-interpolation-filters="sRGB">
<feFlood flood-opacity="0" result="BackgroundImageFix"/>
<feBlend mode="normal" in="SourceGraphic" in2="BackgroundImageFix" result="shape"/>
<feColorMatrix in="SourceAlpha" type="matrix" values="0 0 0 0 0 0 0 0 0 0 0 0 0 0 0 0 0 0 127 0" result="hardAlpha"/>
<feOffset dy="4"/>
<feGaussianBlur stdDeviation="20"/>
<feComposite in2="hardAlpha" operator="arithmetic" k2="-1" k3="1"/>
<feColorMatrix type="matrix" values="0 0 0 0 0 0 0 0 0 0 0 0 0 0 0 0 0 0 0.25 0"/>
<feBlend mode="normal" in2="shape" result="effect1_innerShadow"/>
</filter>
</defs>
</svg>
