<svg width="1016" height="908" viewBox="0 0 1016 908" fill="none" xmlns="http://www.w3.org/2000/svg">
<path d="M483.713 487.563C488.552 486.11 493.749 486.181 498.73 485.733C502.83 485.363 506.875 484.405 511.01 484.838C516.508 485.412 521.635 487.439 527.15 487.886C532.639 488.327 537.692 485.5 543.189 486.574C550.365 487.974 556.728 494.22 554.128 501.989C552.925 505.58 550.22 508.197 546.682 509.353C542.055 510.854 538.231 510.712 534.462 514.301C529.145 519.374 524.905 527.759 517.46 529.947C509.662 532.238 504.383 522.768 498.823 519.165C493.028 515.41 485.761 518.722 479.796 515.196C468.704 508.644 472.051 491.063 483.713 487.563M782.732 531.027C773.073 536.482 764.002 543.095 755.746 550.503C745.581 559.62 736.388 569.93 727.769 580.496C709.692 602.646 695.141 628.127 680.878 652.93C669.121 673.369 657.227 693.706 645.767 714.288C632.005 738.996 617.886 763.376 601.592 786.459C597.6 792.11 593.295 797.587 588.898 802.947C575.474 819.296 559.546 834.448 540.415 843.738C532.435 847.611 523.201 851.05 514.299 851.777C481.298 854.479 453.666 833.123 433.173 809.241C409.721 781.911 392.326 749.795 371.849 720.283C363.231 707.863 354.012 695.867 343.381 685.126C337.571 679.253 331.286 673.785 324.62 668.934C301.879 652.381 274.89 645.223 247.284 643.074C225.637 641.389 203.848 643.76 182.269 641.84C168.214 640.587 154.356 637.405 141.359 631.788C134.376 628.772 127.573 625.054 121.3 620.747C119.18 619.293 117.063 617.882 115.018 616.321C112.972 614.761 111.078 613.066 109.147 611.375C104.786 607.555 100.64 603.442 96.8146 599.071C71.5798 570.242 58.3918 533.787 51.8623 496.411C45.2035 458.297 44.6257 418.499 48.7192 380.045C50.4437 363.849 53.8121 347.954 56.4663 331.922C61.1128 303.856 66.3349 275.837 72.6957 248.073C79.268 219.386 87.7111 190.621 100.572 164.124C107.487 149.877 115.726 135.871 126.612 124.305C131.913 118.672 137.725 113.685 144.199 109.475C151.648 104.631 161.033 99.8084 170.187 100.467C179.496 101.136 188.488 107.642 195.701 113.096C198.502 115.213 201.181 117.418 203.848 119.69C218.715 132.353 232.438 146.293 247.152 159.131C255.741 166.626 264.964 174.606 275.497 179.138C281.382 181.67 286.239 181.503 292.447 181.102C299.807 180.627 307.244 179.797 314.518 178.522C350.766 172.166 387.605 163.845 424.563 163.309C434.967 163.158 445.441 163.571 455.768 164.892C465.794 166.174 475.541 168.296 485.715 167.778C499.726 167.066 513.537 162.039 526.135 156.128C567.111 136.903 600.192 104.219 639.934 82.8338C650.884 76.9421 662.222 71.8546 674.326 68.8726C678.934 67.7371 684.705 66.1602 689.397 67.4568C693.575 68.6112 696.951 71.5666 699.875 74.6718C705.802 80.9685 710.422 88.7078 714.567 96.2751C726.117 117.385 735.091 139.927 747.312 160.663C752.349 169.21 758.389 180.317 767.84 184.499C771.736 186.223 775.313 185.115 779.268 184.371C784.167 183.448 789.294 182.769 794.264 182.385C809.416 181.215 824.85 183.181 839.329 187.806C869.602 197.473 895.502 217.805 916.233 241.621C926.929 253.906 936.159 267.176 942.269 282.387C952.984 309.073 955.407 338.103 952.577 366.566C949.653 395.944 942.083 425.309 929.132 451.851C921.559 467.368 911.893 483.252 897.962 493.748C890.89 499.077 883.114 503.374 874.86 506.544C866.274 509.838 857.215 512.187 826.488 517.56C797.118 523.787 789.724 527.078 782.732 531.027V531.027ZM781.716 523.357C769.046 528.105 757.191 535.625 746.816 544.284C736.207 553.143 726.458 563.181 717.852 574.023C715.82 576.58 713.69 578.967 711.728 581.577C709.895 584.016 708.278 586.532 706.472 588.987C696.152 602.993 687.034 618.075 678.251 633.093C666.718 652.81 655.222 672.585 643.925 692.425C631.974 713.409 620.497 734.657 607.337 754.941C593.08 776.912 576.628 798.3 555.56 814.07C543.517 823.09 528.691 830.359 513.55 831.715C483.423 834.412 457.262 813.765 438.539 792.191C412.303 761.962 394.493 725.484 369.724 694.133C359.445 681.119 348.224 669.168 334.804 659.416C309.933 641.338 279.514 635.84 249.526 634.799C232.665 634.211 215.697 635.674 198.886 634.089C178.371 632.159 158.008 625.017 141.232 612.826C130.032 604.688 120.155 594.861 112 583.604C94.2786 559.148 83.8512 530.185 78.6378 500.555C72.3747 464.957 71.2398 427.939 74.8631 391.962C76.5944 374.77 80.1168 357.92 82.9299 340.913C86.9397 316.673 91.4335 292.395 96.9068 268.416C105.724 229.788 117.198 188.293 141.447 156.403C146.393 149.898 152.198 143.795 158.556 138.67C166.813 132.013 178.622 124.536 189.684 125.274C196.03 125.698 202.077 129.073 207.326 132.462C213.138 136.215 218.401 140.496 223.675 144.939C236.34 155.607 248.149 167.47 260.502 178.509C268.992 186.096 278.108 194.074 288.584 198.742C296.023 202.057 303.347 201.19 311.183 200.153C317.43 199.325 323.692 198.574 329.927 197.661C362.273 192.93 393.975 184.916 426.832 184.042C437.409 183.761 447.965 184.143 458.483 185.395C469.229 186.675 479.385 188.759 490.287 187.904C505.616 186.7 521.119 179.469 534.473 172.282C570.28 153.014 600.477 124.482 636.816 106.103C646.398 101.257 656.688 96.8937 667.279 94.8818C671.661 94.0493 675.775 92.8499 680.117 94.6057C684.002 96.1766 687.386 99.2935 690.151 102.391C696.099 109.065 700.587 117.103 704.79 124.963C713.835 141.883 721.453 159.55 730.801 176.305C735.621 184.943 740.751 194.332 748.297 200.869C755.978 207.526 765.928 203.331 774.95 202.18C787.541 200.573 800.661 201.773 812.963 204.764C838.826 211.053 861.744 226.033 880.774 244.393C903.096 265.931 920.835 292.223 925.932 323.477C931.466 357.378 927.495 392.424 917.395 425.05C911.462 444.199 903.177 462.621 891.489 478.899C883.103 490.577 871.623 499.667 858.486 505.323C854.033 507.239 849.478 508.856 828.31 513.315C801.728 517.722 791.252 519.782 781.716 523.357V523.357ZM770.829 520.357C764.134 522.416 758.004 525.314 751.913 528.759C740.978 534.941 730.951 542.838 722.049 551.702C715.603 558.12 709.518 565.102 703.774 572.139C700.832 575.743 698.03 579.435 695.402 583.243C684.453 599.087 674.232 615.343 664.548 632.024C653.603 650.885 642.501 669.675 631.892 688.732C619.278 711.375 606.805 734.466 591.153 755.161C579.986 769.928 568.075 784.236 553.061 795.197C541.847 803.381 528.204 810.186 514.203 811.444C485.595 814.016 460.983 794.798 443.159 774.278C419.416 746.943 403.009 714.235 381.295 685.391C371.21 671.992 359.97 659.577 346.394 649.711C323.834 633.316 296.682 627.555 269.386 626.33C252.215 625.561 234.89 627.144 217.775 625.494C197.827 623.574 178.186 616.419 162.044 604.341C150.739 595.885 141.008 585.308 133.065 573.605C117.411 550.543 108.46 523.139 104.251 495.721C99.3329 463.682 98.2229 430.87 101.372 398.543C103.236 379.401 107.108 360.507 110.382 341.602C113.949 321.011 117.808 300.304 122.569 279.915C128.089 256.282 134.915 232.786 144.871 210.641C148.912 201.651 153.58 192.926 159.041 184.735C160.464 182.599 161.846 180.47 163.385 178.42C165.294 175.877 167.401 173.518 169.533 171.153C174.137 166.047 179.217 161.493 184.911 157.648C191.474 153.217 199.891 148.556 208.043 148.676C220.413 148.859 232.345 159.505 241.215 167.126C253.373 177.572 264.779 188.873 276.857 199.411C284.444 206.031 292.358 212.778 301.505 217.095C309.052 220.657 316.59 219.621 324.588 218.562C330.673 217.756 336.804 217.107 342.861 216.115C373.632 211.081 404.292 204.109 435.628 203.655C444.942 203.519 454.261 204.109 463.501 205.286C471.101 206.253 478.501 207.792 486.213 207.552C499.273 207.146 512.241 202.664 523.933 197.117C533.27 192.688 542.225 187.357 551 181.852C576.016 166.154 598.9 146.822 625.133 133.109C634.766 128.072 644.844 123.555 655.491 121.094C659.637 120.136 664.518 118.794 668.703 120.039C679.142 123.145 686.073 136.125 691.088 145.04C701.281 163.175 709.516 182.299 719.887 200.338C724.367 208.129 730.01 218.26 738.489 222.12C742.193 223.806 745.667 222.672 749.435 221.962C753.72 221.155 758.211 220.533 762.561 220.253C776.542 219.353 790.436 221.067 803.778 225.42C815.519 229.25 826.873 235.047 836.989 242.156C839.539 243.949 841.943 245.863 844.408 247.767C846.517 249.397 848.611 250.985 850.651 252.707C869.353 268.479 886.406 288.475 894.987 311.716C903.988 336.086 905.402 362.497 902.263 388.126C899.22 412.967 892.423 437.695 881.253 460.113C875.381 471.91 868.139 483.62 858.204 492.394C847.89 501.507 835.178 507.098 821.977 510.504C815.208 512.251 801.501 513.7 791.339 515.713C784.463 517.075 775.635 518.88 770.829 520.357V520.357ZM753.085 516.003C738 518.217 724.293 523.708 711.902 532.697C686.169 551.363 668.067 578.333 651.902 605.344C642.304 621.378 632.73 637.549 623.466 653.804C613.522 671.258 603.985 689.078 592.998 705.897C590.33 709.979 587.668 714.114 584.778 718.039C583.053 720.387 581.294 722.657 579.527 724.982C577.627 727.483 575.799 729.959 573.833 732.397C568.641 738.846 562.864 744.955 556.67 750.428C544.793 760.915 530.527 769.283 514.577 771.054C502.41 772.401 489.858 768.387 479.534 762.093C476.338 760.143 473.14 758.033 470.203 755.731C464.007 750.881 458.342 745.253 453.154 739.313C429.508 712.239 413.608 679.248 390.206 652.012C383.115 643.757 374.998 636.595 366.231 630.268C362.491 627.568 358.457 625.233 354.327 623.199C346.979 619.577 339.269 617.042 331.326 615.148C316.028 611.503 300.173 610.983 284.517 610.956C275.298 610.942 266.008 611.504 256.812 610.602C240.31 608.991 223.914 603.746 210.272 594.038C201.411 587.734 193.609 580.376 186.924 571.76C171.581 551.987 163.131 528.284 158.195 503.957C152.229 474.557 151.462 442.921 154.553 413.127C156.046 398.735 158.941 384.63 161.405 370.409C164.773 350.973 168.315 331.389 172.947 312.172C180.295 281.684 189.501 249.992 208.119 224.381C212.125 218.87 217.008 213.62 222.269 209.299C229.426 203.421 238.811 197.526 248.377 197.6C258.002 197.675 267.906 205.804 274.909 211.684C278.78 214.934 282.674 218.294 286.442 221.691C295.174 229.561 303.574 237.882 312.848 245.107C317.965 249.092 323.111 253.175 329.049 255.851C339.377 260.506 352.998 256.826 363.769 255.169C390.565 251.046 417.105 244.706 444.349 244.311C452.531 244.192 460.701 244.567 468.832 245.54C475.78 246.372 482.554 247.835 489.598 247.518C500.828 247.013 512.196 243.199 522.242 238.359C528.732 235.232 535.189 231.779 541.377 228.021C557.13 218.456 571.891 207.282 587.379 197.301C594.72 192.569 602.201 187.988 609.927 183.926C618.259 179.544 627.061 175.977 636.245 173.813C640.287 172.861 644.951 171.609 649.016 173.025C658.469 176.319 664.698 188.215 669.375 196.454C676.815 209.567 683.115 223.29 690.505 236.428C694.682 243.845 699.07 251.92 705.659 257.457C707.414 258.932 709.417 260.306 711.668 260.845C716.607 262.026 722.645 259.438 727.627 258.933C738.351 257.844 749.424 258.5 759.876 261.192C778.517 265.991 795.099 275.871 809.607 288.419C819.441 296.926 828.605 306.79 835.89 317.619C845.277 331.574 851.145 348.119 853.228 364.823C856.813 393.557 851.563 424.127 841.403 450.972C836.543 463.818 830.255 477.011 821.312 487.476C813.619 496.467 804.428 503.004 778.842 510.653C760.529 514.488 756.813 515.456 753.085 516.003V516.003ZM743.633 523.848C731.524 529.594 720.623 537.694 710.927 546.936C704.407 553.153 698.363 560.196 692.61 567.057C688.669 571.755 685.256 576.734 681.683 581.696C672.876 593.94 665.055 606.971 657.442 619.989C647.714 636.627 637.718 653.147 628.336 669.979C615.023 693.859 601.878 718.254 585.34 740.071C574.445 754.447 562.492 768.179 547.494 778.363C536.771 785.647 523.749 791.307 510.614 791.542C483.864 792.032 461.995 773.091 445.545 753.777C422.824 727.105 406.882 695.257 384.741 668.114C376.569 658.095 367.636 648.69 357.171 641.075C335.494 625.294 309.891 620.077 283.667 618.941C268.893 618.302 253.986 619.694 239.252 618.43C220.057 616.791 201.423 610.685 185.689 599.249C174.712 591.274 165.224 581.136 157.603 569.875C143.97 549.732 135.875 526.496 131.355 502.705C125.121 469.904 124.833 435.86 128.039 402.701C129.501 387.575 132.792 372.446 135.379 357.516C136.484 351.133 137.532 344.696 138.74 338.328C141.403 324.285 144.055 310.235 147.379 296.334C155.079 264.128 164.63 230.079 184.286 203.019C189.277 196.148 195.149 189.715 201.814 184.465C208.453 179.235 217.791 173.27 226.533 173.081C236.298 172.87 245.125 179.663 252.476 185.339C268.207 197.484 281.627 212.338 297.26 224.583C303.28 229.299 309.383 234.394 316.565 237.197C321.029 238.939 325.393 239.107 330.089 238.497C343.383 236.772 356.658 235.023 369.855 232.709C390.971 229.006 412.063 224.791 433.561 224.054C442.822 223.737 452.093 223.779 461.315 224.79C470.998 225.852 480.464 227.907 490.257 227.286C499.251 226.716 508.22 223.72 516.519 220.351C550.45 206.582 577.97 180.806 609.497 162.675C619.906 156.689 630.742 151.271 642.385 148.158C646.438 147.075 651.216 145.528 655.429 145.836C659.628 146.141 663.123 148.374 666.12 151.238C671.355 156.238 675.356 162.501 678.949 168.754C687.133 182.984 694.002 197.877 701.699 212.358C706.347 221.095 711.342 230.833 718.811 237.476C720.708 239.163 722.871 240.803 725.324 241.537C730.364 243.045 736.696 240.343 741.776 239.74C750.498 238.704 759.375 238.939 768.062 240.191C794.668 244.027 818.465 258.983 837.518 277.515C850.134 289.781 861.462 303.745 868.53 320.025C883.042 353.456 880.75 392.901 871.25 427.316C867.189 442.026 861.798 456.735 854.159 469.948C846.597 483.027 837.167 494.959 823.747 502.263C818.441 505.152 812.795 507.457 784.007 513.65C755.024 519.48 749.187 521.209 743.633 523.848V523.848ZM262.604 222.211C267.481 220.928 272.054 221.752 276.636 223.744C283.296 226.64 289.231 231.269 294.727 235.973C304.241 244.114 313.475 252.9 322.996 261.064C329.904 266.988 338.01 274.297 347.044 276.512C350.526 277.366 354.48 276.943 358.021 276.584C386.862 273.658 415.077 265.573 444.151 264.417C452.295 264.092 460.442 264.18 468.553 265.046C475.63 265.802 482.666 267.368 489.813 267.149C498.59 266.879 507.13 264.39 515.255 261.218C544.033 249.984 567.602 228.548 594.281 213.415C606.474 206.499 621.292 198.484 635.722 198.668C638.884 198.709 641.714 200.273 644.103 202.258C649.188 206.485 652.874 212.283 656.278 217.893C664.042 230.683 670.227 244.37 677.645 257.355C681.66 264.38 686.04 272.315 692.585 277.27C699.108 282.205 707.883 277.856 715.314 277.575C728.908 277.062 742.104 278.773 754.791 284.011C765.157 288.291 774.431 294.154 783.268 301.039C797.384 312.034 810.441 326.338 818.444 342.517C834.203 374.38 831.044 413.61 820.516 446.53C816.046 460.492 809.958 474.403 801.098 486.106C796.285 492.463 790.861 497.631 784.118 501.883C770.677 510.358 755.213 511.795 740.045 514.755C737.856 515.184 735.663 515.225 733.472 515.534C729.053 516.158 724.393 517.549 720.091 518.916C700.534 525.129 683.97 540.231 671.091 555.797C668.736 558.646 666.357 561.388 664.143 564.329C662.315 566.763 660.686 569.266 658.906 571.737C650.465 583.475 642.938 595.949 635.677 608.454C627.596 622.37 619.193 636.117 611.287 650.13C603.042 664.746 594.794 679.453 585.506 693.433C570.108 716.618 550.395 742.258 522.23 749.625C499.458 755.582 477.921 742.483 462.495 726.542C444.98 708.446 432.017 686.465 418.003 665.633C408.639 651.715 398.763 638.148 386.083 627.087C373.12 615.775 357.31 609.117 340.589 605.877C327.473 603.341 313.958 602.982 300.629 602.993C289.003 603.005 277.532 603.442 266.051 601.147C251.58 598.257 237.268 591.627 226.019 581.962C199.381 559.071 187.314 525.096 182.81 491.086C179.744 467.931 178.962 444.383 181.361 421.112C182.994 405.271 186.135 389.614 188.907 373.977C189.888 368.439 190.895 362.779 191.948 357.234C194.698 342.76 197.866 328.383 201.638 314.14C205.836 298.28 211.078 282.483 218.253 267.726C222.066 259.884 226.49 252.184 231.807 245.282C239.513 235.277 250.129 225.493 262.604 222.211L262.604 222.211ZM281.171 247.191C293.394 243.505 304.144 252.62 312.957 259.991C323.331 268.667 332.926 278.412 343.63 286.678C348.263 290.256 353.449 294.015 359.119 295.677C363.335 296.912 368.169 296.253 372.489 295.814C399.051 293.119 424.847 286.063 451.639 284.96C459.138 284.651 466.708 284.997 474.165 285.818C480.795 286.548 487.208 287.773 493.92 287.355C502.574 286.815 511.332 283.561 519.178 280.043C545.889 268.072 568.114 247.932 594.267 234.919C601.837 231.154 609.605 227.949 617.923 226.308C621.074 225.687 624.129 224.704 627.351 225.481C635.237 227.384 640.392 236.136 644.499 242.52C652.636 255.171 658.829 268.995 666.569 281.89C670.104 287.772 674.776 295.467 681.34 298.226C684.118 299.394 686.607 298.678 689.427 298.151C692.801 297.521 696.317 297.029 699.746 296.851C710.965 296.266 722.235 297.722 732.809 301.66C745.193 306.273 756.337 313.477 766.362 322.02C776.854 330.961 786.598 341.85 793.217 354.027C798.519 363.779 801.697 374.89 803.423 385.836C806.252 403.744 803.72 423.225 799.51 440.661C795.522 457.178 789.112 473.987 778.88 487.606C775.012 492.752 770.741 497.368 765.406 501.011C757.577 506.349 748.342 509.571 739.14 511.525C736.812 512.016 734.485 512.483 732.175 512.942C722.241 514.912 712.113 515.272 702.426 518.747C693.211 522.048 684.756 527.372 677.212 533.6C668.491 540.806 660.914 549.484 653.772 558.172C651.562 560.858 649.748 563.688 647.711 566.491C642.548 573.595 637.849 581.104 633.256 588.59C616.179 616.418 601.052 645.541 583.473 673.037C569.055 695.592 550.653 721.049 523.789 728.984C502.771 735.189 482.654 724.051 467.924 709.484C450.82 692.568 438.732 671.317 425.01 651.729C416.552 639.657 407.701 627.584 396.425 618.028C384.677 608.074 370.882 601.298 355.795 598.269C343.296 595.757 330.454 595.43 317.749 595.44C306.595 595.451 295.583 595.924 284.596 593.553C270.754 590.561 258.194 584.04 247.448 574.799C223.933 554.575 213.299 523.27 209.336 493.34C206.584 472.559 205.661 451.533 207.556 430.619C208.831 416.551 211.722 402.8 214.073 388.906C217.473 368.813 221.507 348.7 226.955 329.05C230.839 315.038 235.517 301.192 241.934 288.139C245.428 281.03 249.473 274.026 254.337 267.78C261.14 259.046 270.377 250.446 281.171 247.191V247.191ZM303.822 270.605C307.421 269.781 311.134 270.573 314.494 271.974C321.78 275.014 328.075 280.425 333.988 285.561C342.014 292.53 349.732 299.92 358.154 306.385C362.484 309.71 367.269 313.274 372.609 314.722C377.204 315.968 382.673 314.927 387.361 314.493C390.518 314.201 393.549 313.289 396.678 312.831C415.511 310.076 434.266 305.817 453.341 305.012C460.345 304.716 467.384 304.686 474.371 305.378C481.15 306.049 487.761 307.394 494.609 306.968C501.722 306.525 508.761 304.077 515.338 301.458C538.117 292.384 557.333 276.097 578.585 264.13C589.159 258.175 602.556 251.094 615.05 251.424C623.199 251.638 629.339 261.346 633.186 267.567C639.584 277.925 644.98 288.862 651.231 299.299C654.579 304.885 658.36 311.363 663.703 315.232C667.991 318.34 671.815 316.93 676.553 316.158C679.531 315.672 682.506 315.566 685.516 315.425C696.539 314.91 707.657 317.2 717.8 321.556C726.076 325.11 733.539 329.974 740.621 335.521C753.842 345.877 765.646 359.399 772.129 375.082C783.754 403.2 779.547 437.258 768.766 464.916C765.26 473.911 760.783 482.631 754.921 490.289C750.856 495.604 746.121 499.816 740.436 503.304C724.462 513.099 705.237 511.603 687.89 517.009C671.994 521.959 658.655 533.904 647.892 546.253C636.343 559.504 626.986 574.589 617.971 589.652C603.343 614.086 590.081 639.573 574.208 663.21C571.52 667.214 568.639 671.094 565.743 674.904C564.257 676.86 562.812 678.805 561.267 680.716C556.307 686.866 550.592 692.611 544.418 697.518C537.353 703.145 529.117 707.604 520.271 709.621C501.58 713.879 484.219 702.986 471.381 690.283C452.312 671.412 439.756 647.046 423.343 625.998C418.42 619.686 413.066 613.696 407.026 608.455C397.958 600.582 387.05 594.928 375.453 591.879C362.382 588.448 348.79 588.004 335.355 587.952C325.683 587.911 316.104 588.362 306.552 586.508C292.805 583.835 280.598 577.604 269.974 568.452C260.393 560.2 253.088 549.134 247.655 537.766C241.195 524.252 237.757 509.91 235.798 495.123C233.274 476.056 232.5 456.848 234.238 437.659C235.289 426.065 237.599 414.771 239.495 403.322C242.738 383.73 246.766 364.087 252.085 344.945C257.427 325.72 264.639 306.139 276.86 290.251C283.558 281.543 292.846 273.121 303.822 270.605V270.605ZM631.371 547.523C623.549 557.594 616.506 568.254 609.913 579.185C598.038 598.871 586.938 619.079 574.848 638.616C564.1 655.98 551.133 674.984 532.721 684.808C523.538 689.71 513.489 691.892 503.275 689.303C493.545 686.834 484.984 680.84 477.741 674.062C460.843 658.249 449.387 637.577 435.744 619.069C427.052 607.278 417.312 596.034 404.182 589.17C389.678 581.59 373.246 580.07 357.163 579.792C347.906 579.634 338.599 580.28 329.397 578.975C317.573 577.302 306.553 572.658 297.077 565.339C287.34 557.819 279.938 548.053 274.306 537.121C267.345 523.611 263.871 509.062 261.886 494.071C259.62 476.961 259.115 459.501 260.826 442.308C262.025 430.261 264.4 418.322 266.655 406.453C269.791 389.95 273.067 373.429 278.034 357.368C282.822 341.886 288.68 326.32 298.516 313.328C303.629 306.576 309.621 300.517 317.301 296.768C321.642 294.649 326.053 293.252 330.842 294.602C336.218 296.116 340.897 299.441 345.28 302.812C354.587 309.974 362.884 318.48 372.175 325.652C378.433 330.482 385.135 334.725 393.27 333.912C415.098 331.731 436.408 326.085 458.368 324.969C464.559 324.654 470.824 324.613 476.998 325.215C482.94 325.795 488.836 326.999 494.83 326.641C502.807 326.164 510.538 323.37 517.824 320.233C539.276 310.999 557.48 295.106 578.499 285.088C584.532 282.212 590.667 280 597.173 278.469C600.253 277.744 603.455 276.898 606.607 277.692C613.188 279.351 617.363 285.992 620.926 291.298C627.886 301.653 633.227 312.998 640.191 323.349C643.219 327.848 646.742 333.348 651.935 335.512C655.276 336.901 659.382 335.216 662.805 334.774C668.609 334.026 674.656 334.031 680.452 334.804C691.306 336.253 701.885 340.444 711.079 346.422C720.46 352.519 728.952 360.15 736.092 368.801C756.909 394.027 757.345 427.755 748.582 457.977C744.997 470.337 739.725 483.276 731.457 493.223C721.306 505.438 705.128 507.433 674.823 517.358C647.771 528.954 638.81 537.95 631.371 547.523V547.523ZM681.613 502.02C690.939 494.119 696.22 482.184 699.781 470.687C703.702 458.024 705.895 443.503 703.986 430.242C700.472 405.792 681.345 384.798 658.743 376.124C651.599 373.381 643.961 372.162 636.333 372.532C631.069 372.787 625.409 375.311 620.769 371.817C617.077 369.034 614.386 365.025 611.827 361.226C607.411 354.669 603.453 347.784 598.919 341.309C595.703 336.723 591.302 330.925 585.416 330.122C582.555 329.731 579.737 330.524 576.972 331.172C571.602 332.431 566.458 334.278 561.486 336.663C545.246 344.453 530.717 355.769 513.848 362.224C508.029 364.45 502.056 366.118 495.798 366.359C486.845 366.704 477.996 364.765 468.959 365.341C451.502 366.456 434.379 371.211 416.918 372.053C412.013 372.291 407.772 369.636 403.844 366.952C396.037 361.618 389.026 354.65 381.438 348.99C376.365 345.206 370.035 341.222 363.484 343.044C358.69 344.377 354.33 347.211 350.644 350.512C339.739 360.277 333.692 374.462 329.037 388.1C324.124 402.498 321.077 417.372 318.24 432.302C314.57 451.621 312.919 470.348 314.188 490.029C315.043 503.3 318.018 516.617 323.733 528.653C328.422 538.529 335.404 547.504 344.264 553.91C351.242 558.954 359.384 562.326 367.888 563.56C377.328 564.929 387.095 564.059 396.612 564.413C410.294 564.923 423.583 567.878 434.792 576.168C454.371 590.651 464.196 614.927 480.785 632.329C488.041 639.941 496.64 647.155 507.073 649.566C518.249 652.147 529.205 647.375 537.807 640.387C548.501 631.695 556.717 619.996 563.948 608.34C576.441 588.207 587.358 566.793 601.344 547.64C609.124 536.994 617.921 526.082 644.776 515.517C667.625 508.841 675.208 507.448 681.613 502.02V502.02ZM622.286 540.133C619.066 543.909 615.894 547.756 613.084 551.853C603.001 566.563 593.661 582.054 584.583 597.438C577.869 608.823 571.524 620.395 564.166 631.379C556.407 642.965 547.55 654.476 535.951 662.384C527.365 668.236 517.315 671.777 506.898 669.845C494.96 667.634 484.82 659.289 476.663 650.656C458.403 631.332 447.399 605.228 426.824 588.051C419.057 581.568 409.75 576.861 399.879 574.674C382.962 570.926 365.855 573.768 348.894 571.362C338.021 569.817 327.319 565.554 318.725 558.589C301.927 544.973 293.5 524.631 289.32 503.895C283.654 475.791 286.839 447.698 292.12 419.902C294.521 407.264 297.08 394.723 300.393 382.282C304.609 366.45 310.457 350.389 319.893 336.936C324.929 329.756 332.068 322.859 340.374 319.764C349.155 316.491 356.373 321.155 363.186 326.391C365.317 328.028 367.421 329.623 369.496 331.32C375.448 336.188 381.091 341.657 387.272 346.224C392.159 349.834 397.623 353.498 403.92 353.119C423.101 351.962 441.853 346.298 461.057 345.278C467.104 344.957 473.132 344.778 479.176 345.265C485.432 345.768 491.617 346.925 497.915 346.34C502.876 345.879 508.023 344.132 512.644 342.333C531.491 334.998 547.709 322.397 565.501 312.969C571.984 309.534 578.754 306.675 585.904 304.999C588.799 304.32 591.798 303.492 594.801 303.77C601.498 304.392 606.334 311.169 609.876 316.31C615.506 324.473 619.931 333.402 625.447 341.641C628.234 345.801 631.103 350.252 635.272 353.146C638.628 355.477 642.051 354.821 645.842 354.319C650.111 353.754 654.28 353.223 658.6 353.433C670.521 354.013 682.224 358.554 692.109 365.214C702.125 371.964 711.45 380.769 718.223 390.871C734.768 415.556 731.16 450.072 720.128 476.163C715.913 486.141 710.333 497.542 681.682 509.742C645.953 518.971 632.756 527.842 622.286 540.133V540.133ZM381.976 367.458C385.267 366.424 388.444 366.751 391.597 368.091C395.961 369.946 399.864 372.889 403.563 375.83C407.357 378.847 410.921 381.99 414.802 384.886C418.027 387.292 421.627 389.907 425.604 390.835C428.821 391.587 432.808 391.029 436.069 390.639C448.514 389.15 460.963 386.011 473.534 385.479C482.287 385.109 491.161 386.91 499.838 386.067C504.386 385.624 508.929 383.92 513.164 382.272C527.821 376.571 540.749 367.245 555.169 360.98C560.81 358.529 569.332 355.152 575.566 356.568C578.978 357.344 581.919 359.961 584.222 362.479C590.025 368.82 594.137 376.684 599.281 383.553C601.657 386.727 604.539 390.628 608.402 392C612.179 393.341 616.832 391.605 620.709 391.388C626.29 391.075 631.954 392.042 637.242 393.804C643.164 395.779 648.606 398.637 653.633 402.352C659.463 406.659 664.859 411.718 669.24 417.542C673.848 423.675 676.801 430.924 678.345 438.443C680.164 447.319 679.418 457.102 677.711 465.921C675.71 476.268 672.083 486.548 666.176 495.308C663.393 499.429 659.696 503.129 655.385 505.608C645.369 511.356 633.834 510.668 623.114 513.981C612.133 517.372 602.86 525.597 595.787 534.482C590.194 541.509 585.134 548.994 580.427 556.658C571.875 570.579 563.775 584.887 554.758 598.504C546.56 610.883 536.21 624.292 521.5 628.879C510.326 632.358 498.882 626.885 490.569 619.494C484.689 614.265 479.629 608.145 474.875 601.873C466.131 590.334 458.323 577.363 447.068 568.079C441.437 563.433 434.848 560.278 427.784 558.541C414.562 555.289 401.165 557.544 387.837 555.762C379.26 554.615 371.028 551.259 364.246 545.809C349.915 534.293 343.556 516.647 341.212 498.945C337.355 469.82 342.273 440.038 350.871 412.122C354.298 400.995 358.558 389.735 365.595 380.392C369.72 374.918 375.31 369.55 381.976 367.458V367.458ZM403.222 391.06C408.695 389.633 413.904 392.978 418.191 396.069C426.126 401.791 434.219 411.005 444.801 409.767C456.15 408.439 467.616 405.899 479.035 405.416C485.882 405.126 492.797 406.317 499.592 405.817C503.569 405.524 507.401 404.397 511.154 403.098C523.861 398.699 535.007 390.933 547.536 386.164C552.661 384.214 559.675 381.796 565.217 382.843C568.767 383.514 571.594 386.244 573.958 388.83C578.569 393.869 582.132 399.775 586.596 404.937C588.68 407.348 591.049 409.97 594.203 410.886C597.644 411.881 601.601 410.471 605.09 410.277C610.16 409.994 615.413 410.99 620.191 412.684C636.051 418.303 650.072 432.683 653.566 449.414C655.567 458.982 654.372 469.693 651.668 478.981C648.873 488.588 644.329 499.359 635.766 505.097C626.805 511.104 616.166 510.124 606.339 513.333C597.416 516.245 590.246 522.956 584.221 529.959C575.368 540.243 568.388 552.451 561.29 563.998C556.138 572.374 551.204 580.88 545.269 588.707C543.669 590.817 542.093 592.924 540.371 594.935C534.959 601.236 528.016 607.072 519.845 609.173C511.046 611.434 501.836 607.098 495.133 601.565C486.208 594.197 479.678 584.349 472.617 575.259C468.119 569.468 463.537 563.567 457.835 558.954C450.121 552.714 441.563 549.748 431.761 548.965C423.812 548.331 415.733 549.083 407.817 548.195C400.277 547.353 392.731 544.286 386.819 539.456C372.264 527.557 367.35 508.864 366.313 490.816C365.89 483.452 365.851 475.955 366.859 468.636C367.789 461.892 369.228 455.09 370.635 448.432C371.981 442.065 373.574 435.776 375.417 429.537C378.86 417.882 383.943 405.325 393.041 397.003C395.945 394.347 399.386 392.06 403.222 391.06V391.06ZM421.793 416.073C432.1 412.312 440.701 423.494 449.076 427.652C453.115 429.656 457.72 428.936 462.052 428.412C470.369 427.407 478.535 425.882 486.936 425.475C494.811 425.094 501.918 426.295 509.61 423.854C519.889 420.593 529.289 415.169 539.471 411.682C544.019 410.125 550.026 408.314 554.869 409.13C562.443 410.406 567.56 419.448 572.471 424.589C574.447 426.66 576.699 428.898 579.526 429.685C582.279 430.451 585.282 429.511 588.07 429.387C592.033 429.211 595.904 429.709 599.707 430.842C610.613 434.089 621.575 443.016 626.349 453.498C629.537 460.506 630.12 468.142 629.134 475.717C628.028 484.255 625.298 492.95 620.226 499.946C618.258 502.662 615.968 504.955 613.087 506.677C605.727 511.088 597.046 510.392 589.144 513.121C581.469 515.771 575.135 522.021 570.168 528.263C565.785 533.77 562.004 539.787 558.139 545.672C553.094 553.342 548.405 561.254 543.186 568.798C537.794 576.591 531.044 585.064 521.861 588.389C513.306 591.483 504.997 587.864 498.254 582.423C486.167 572.672 479.301 557.592 466.932 548.157C450.103 535.314 427.597 546.604 410.783 533.807C389.036 517.257 391.451 484.483 396.595 460.854C397.729 455.646 399.077 450.458 400.767 445.403C403.149 438.286 406.09 431.357 410.642 425.37C413.569 421.522 417.156 417.765 421.793 416.073V416.073ZM443.445 439.143C448.499 437.818 453.329 441.341 457.419 443.84C462.031 446.657 465.84 448.266 471.268 447.597C477.03 446.887 482.828 445.728 488.631 445.475C495.141 445.191 501.664 445.877 508.014 444.205C515.773 442.162 523.137 438.892 530.871 436.763C534.869 435.662 539.854 434.492 544.004 435.109C546.888 435.539 549.343 437.12 551.593 438.909C555.627 442.117 559.624 447.45 564.864 448.6C567.349 449.146 569.949 448.362 572.452 448.287C575.611 448.194 578.707 448.707 581.7 449.707C585.447 450.957 588.808 452.79 591.936 455.201C595.069 457.612 597.914 460.373 600.077 463.706C605.409 471.919 605.342 482.145 602.523 491.256C600.684 497.208 597.43 503.209 592.095 506.597C586.139 510.38 579.185 509.754 572.779 511.976C567.614 513.766 563.36 517.727 559.767 521.744C550.821 531.748 544.815 543.943 536.911 554.726C532.505 560.74 526.789 567.12 519.296 569.016C513.256 570.546 507.395 567.982 502.541 564.419C493.039 557.445 487.731 546.21 478.522 538.962C476.083 537.036 473.353 535.432 470.379 534.504C463.208 532.267 455.576 533.364 448.206 532.711C442.818 532.233 437.591 530.282 433.253 526.978C425.322 520.934 421.563 511.561 420.288 501.931C418.458 488.111 420.93 474.396 425.534 461.347C428.505 452.927 434.041 441.609 443.445 439.143L443.445 439.143ZM462.01 464.104C467.354 462.075 471.612 465.024 476.632 466.491C479.186 467.238 481.681 466.883 484.268 466.545C492.879 465.419 501.567 465.384 510.166 464.062C517.475 462.937 525.223 460.555 532.676 461.198C538.932 461.734 543.648 466.997 549.741 467.632C554.392 468.116 558.545 466.922 563.192 468.383C573.739 471.691 580.953 481.261 579.249 492.415C578.369 498.155 575.794 504.315 570.766 507.572C566.215 510.515 560.946 509.973 556.053 511.697C551.829 513.184 548.568 516.538 545.682 519.803C540.834 525.29 537.076 531.593 532.722 537.494C529.411 541.984 525.297 546.748 519.954 548.782C516.217 550.2 512.338 549.493 508.845 547.711C500.352 543.39 495.746 534.1 488.131 528.698C478.693 521.994 466.352 527.799 456.784 521.305C450.844 517.271 447.704 510.671 446.753 503.713C445.552 494.933 446.675 486.479 450.05 478.286C452.335 472.74 456.162 466.325 462.01 464.104V464.104Z" stroke="#72BFFF" stroke-width="3"/>
</svg>
