<svg width="912" height="515" viewBox="0 0 912 515" fill="none" xmlns="http://www.w3.org/2000/svg">
<path opacity="0.1" d="M424.855 96.4917C372.973 105.256 321.164 101.499 271.325 96.0338C221.486 90.5688 171.771 83.4322 119.867 85.5834C86.4786 86.9641 49.2954 93.5774 25.9825 112.8C3.5418 131.288 0.0452203 156.237 0.00160387 178.758C-0.0565514 195.698 1.41202 213.227 13.4211 226.723C21.7664 236.083 34.6114 242.791 44.2869 251.432C77.9516 281.446 67.7161 328.705 45.6244 368.887C35.2582 387.738 22.5805 406.277 15.5219 425.572C8.46326 444.867 7.5256 465.542 20.1598 481.276C32.6777 496.879 56.8921 505.673 82.1387 510.229C133.417 519.488 190.547 513.739 245.824 505.949C368.161 488.645 489.233 461.669 610.043 434.758C654.743 424.794 699.638 414.787 742.702 400.427C766.619 392.433 790.971 382.484 806.419 366.997C826.046 347.375 826.541 320.537 807.625 304.498C775.887 277.609 704.051 283.575 679.502 252.834C665.996 235.909 671.877 212.922 682.628 192.617C705.679 149.071 750.234 106.048 744.462 62.633C740.478 32.8369 710.085 8.17878 669.347 1.75444C626.646 -4.97513 571.806 7.78634 547.221 37.7714C521.945 68.6649 470.667 88.7301 424.855 96.4917Z" fill="#1D8FE9"/>
<path d="M749.332 266.87C749.326 265.896 749.52 264.931 749.903 264.036C750.286 263.14 750.85 262.333 751.559 261.665C752.268 260.997 753.107 260.482 754.024 260.153C754.94 259.823 755.915 259.686 756.888 259.751C757.86 259.815 758.808 260.079 759.674 260.526C760.54 260.973 761.304 261.594 761.919 262.349C762.533 263.105 762.986 263.979 763.248 264.917C763.51 265.855 763.575 266.837 763.44 267.802L783.805 294.463C784.674 296.201 785.011 298.156 784.774 300.084C784.536 302.012 783.735 303.827 782.471 305.302L780.873 307.165L773.543 305.699L765.236 298.371L766.213 290.066L755.951 273.945L755.965 273.933C754.168 273.819 752.483 273.025 751.251 271.713C750.019 270.401 749.333 268.67 749.332 266.87H749.332Z" fill="#FFB9B9"/>
<path d="M893.486 384.87L847.448 366.179L842.542 384.396L890.162 397.213L893.486 384.87Z" fill="#FFB8B8"/>
<path d="M901.282 403.582L912 363.785L911.497 363.649C907.387 362.543 903.007 363.114 899.318 365.237C895.63 367.36 892.937 370.86 891.83 374.968L891.83 374.969L885.283 399.276L901.282 403.582Z" fill="#2F2E41"/>
<path d="M837.086 387.723L813.002 344.273L797.74 355.368L826.746 395.241L837.086 387.723Z" fill="#FFB8B8"/>
<path d="M831.398 407.179L864.74 382.938L864.433 382.517C861.93 379.076 858.162 376.77 853.959 376.106C849.755 375.443 845.46 376.475 842.018 378.977L842.017 378.978L821.653 393.783L831.398 407.179Z" fill="#2F2E41"/>
<path d="M738.848 334.522L764.869 309.252C767.14 307.046 770.131 305.735 773.293 305.558C776.454 305.382 779.572 306.352 782.075 308.291L831.206 362.857L826.808 369.696L779.896 337.942L748.133 379.466L717.836 364.322L738.848 334.522Z" fill="#2F2E41"/>
<path d="M750.088 339.896L769.146 338.43L782.947 335.085C783.727 333.87 784.859 332.921 786.193 332.366C787.527 331.811 788.998 331.677 790.411 331.982C791.823 332.286 793.108 333.015 794.095 334.07C795.081 335.125 795.722 336.456 795.931 337.885C796.14 339.314 795.907 340.773 795.264 342.066C794.621 343.359 793.598 344.425 792.332 345.121C791.066 345.817 789.618 346.109 788.181 345.959C786.744 345.81 785.387 345.225 784.292 344.283V344.293L775.985 347.712L740.312 359.926L735.914 356.506L750.088 339.896Z" fill="#FFB9B9"/>
<path d="M875.674 374.581L796.51 339.896L727.12 362.857L704.153 392.657L714.904 399.496H727.609L786.737 377.513L873.231 393.146L875.674 374.581Z" fill="#2F2E41"/>
<path d="M727.12 273.945C716.595 273.945 708.062 265.415 708.062 254.892C708.062 244.37 716.595 235.84 727.12 235.84C737.646 235.84 746.178 244.37 746.178 254.892C746.178 265.415 737.646 273.945 727.12 273.945Z" fill="#FFB9B9"/>
<path d="M677.809 330.961C677.809 342.459 679.622 353.886 683.179 364.821L684.606 369.208L691.448 400.473L698.778 402.427L704.153 395.588L714.904 387.772L722.722 375.07L729.427 363.902L731.518 360.414L738.848 323.775L766.702 308.142L775.987 306.676L774.032 301.302L765.725 290.066L757.417 289.089L754.974 287.135L753.019 288.112L742.244 292.262L707.31 277.506L702.198 278.342L684.606 292.997C680.109 305.15 677.808 318.004 677.809 330.961Z" fill="#CCCCCC"/>
<path opacity="0.1" d="M720.767 303.257L683.141 326.706L701.71 338.919L729.427 363.902L731.518 360.414L737.382 331.103H735.916L720.767 303.257Z" fill="black"/>
<path d="M683.141 323.774L720.767 300.325L735.916 328.171L744.712 337.942L752.53 339.896L731.518 362.857L701.71 335.988L683.141 323.774Z" fill="#CCCCCC"/>
<path d="M741.944 240.726L744.008 241.52C744.322 241.308 744.59 241.036 744.799 240.72C745.007 240.404 745.151 240.051 745.223 239.679C745.294 239.307 745.292 238.925 745.216 238.555C745.14 238.184 744.991 237.832 744.779 237.518C744.768 237.502 744.757 237.486 744.745 237.47L748.561 237.291C746.111 234.03 742.997 231.325 739.424 229.357C735.851 227.389 731.9 226.202 727.834 225.874C723.767 225.546 719.678 226.086 715.835 227.456C711.993 228.827 708.486 230.998 705.545 233.825C705.372 233.227 703.478 234.39 702.705 235.571C702.445 234.597 700.669 239.302 700.041 242.629C699.75 241.521 698.632 243.309 699.612 245.024C698.991 244.934 698.711 246.521 699.191 247.405C698.512 247.086 698.627 248.981 699.363 250.248C698.394 250.162 699.445 270.11 713.984 268.657C714.996 264.007 714.711 264.296 715.903 258.318C716.458 257.729 717.065 257.193 717.672 256.658L720.952 253.763C724.767 250.397 728.237 246.242 733.318 244.984C736.81 244.12 739.018 243.925 737.115 239.991C738.835 240.708 740.44 241.775 742.175 242.441C742.152 241.891 741.91 241.276 741.943 240.726L741.944 240.726Z" fill="#2F2E41"/>
<path d="M717.591 260.511C715.702 260.511 714.171 258.98 714.171 257.091C714.171 255.202 715.702 253.671 717.591 253.671C719.48 253.671 721.012 255.202 721.012 257.091C721.012 258.98 719.48 260.511 717.591 260.511Z" fill="#FFB9B9"/>
<path d="M111.21 166.429C123.052 166.429 132.652 156.831 132.652 144.993C132.652 133.154 123.052 123.557 111.21 123.557C99.3678 123.557 89.7678 133.154 89.7678 144.993C89.7678 156.831 99.3678 166.429 111.21 166.429Z" fill="#FFB8B8"/>
<path d="M74.3347 380.935L38.7576 401.87L44.1869 411.092L82.3482 394.544L74.3347 380.935Z" fill="#FFB8B8"/>
<path d="M40.3843 397.746L51.0765 415.906C51.9713 417.426 52.5583 419.108 52.8032 420.854C53.0481 422.6 52.9466 424.378 52.5043 426.085C52.0621 427.792 51.2878 429.396 50.2257 430.804C49.1636 432.212 47.8344 433.397 46.3142 434.291L45.9381 434.513L28.4319 404.78L40.3843 397.746Z" fill="#383745"/>
<path d="M101.663 393.819L101.664 435.09L112.368 435.089L117.459 393.818L101.663 393.819Z" fill="#FFB8B8"/>
<path d="M98.9345 431.597L120.012 431.596C121.776 431.596 123.523 431.943 125.153 432.618C126.783 433.293 128.263 434.282 129.511 435.529C130.758 436.776 131.748 438.256 132.423 439.886C133.098 441.515 133.445 443.261 133.445 445.025V445.461L98.9343 445.462L98.9345 431.597Z" fill="#383745"/>
<path d="M58.6346 410.085C58.0186 410.086 57.4112 409.941 56.8616 409.663C56.3119 409.385 55.8354 408.982 55.4707 408.485L45.1485 394.47C44.8336 394.042 44.6086 393.556 44.4873 393.039C44.3659 392.522 44.3506 391.986 44.4424 391.463C44.5341 390.94 44.731 390.441 45.0211 389.996C45.3112 389.552 45.6885 389.17 46.1302 388.875L92.0631 358.205L64.3478 285.351L123.616 290.24L125.612 352.847C125.8 358.549 124.433 364.194 121.658 369.179C118.883 374.163 114.804 378.3 109.859 381.146L60.5974 409.558C60.001 409.903 59.3239 410.085 58.6346 410.085Z" fill="#383745"/>
<path d="M101.988 426.711C100.971 426.709 99.9949 426.314 99.2642 425.607C98.5334 424.901 98.105 423.939 98.0689 422.924L95.8967 361.933L122.793 360.516L120.651 421.945C120.62 422.918 120.227 423.845 119.549 424.544C118.871 425.243 117.957 425.665 116.985 425.727L102.255 426.703C102.165 426.709 102.076 426.712 101.988 426.712V426.711Z" fill="#383745"/>
<path d="M130.475 302.352C123.632 302.352 99.7309 294.657 91.4331 291.914C90.1918 292.907 83.3725 298.005 75.4123 297.073C70.5007 296.497 66.1769 293.718 62.5608 288.812C54.5753 277.977 64.4382 231.513 74.1185 194.443C76.0592 186.95 80.8302 180.501 87.4286 176.451C94.0269 172.402 101.939 171.067 109.501 172.728C114.982 173.938 120.016 176.652 124.04 180.564C128.063 184.477 130.915 189.434 132.276 194.878C134.098 202.294 132.53 211.019 131.386 217.39C130.847 220.385 130.422 222.751 130.568 223.913C131.129 228.407 134.251 298.877 132.244 301.886C132.03 302.207 131.412 302.352 130.475 302.352Z" fill="#1D8FE9"/>
<path d="M105.442 302.477C106.542 301.658 107.448 300.609 108.099 299.402C108.749 298.195 109.126 296.86 109.205 295.492C109.283 294.123 109.06 292.754 108.552 291.481C108.044 290.208 107.263 289.062 106.264 288.123L106.688 202.729L86.5691 206.078L92.4788 288.965C91.0128 290.748 90.2517 293.006 90.3399 295.312C90.4281 297.618 91.3593 299.811 92.9572 301.477C94.555 303.142 96.7084 304.164 99.0094 304.348C101.31 304.533 103.599 303.867 105.442 302.477Z" fill="#FFB8B8"/>
<path d="M110.095 257.57H88.4251C87.3903 257.567 86.3982 257.157 85.6631 256.429C84.9281 255.7 84.5091 254.712 84.4966 253.678L83.9645 194.947C83.9459 192.917 84.3303 190.902 85.0954 189.021C85.8605 187.139 86.9912 185.428 88.422 183.987C89.8528 182.545 91.5553 181.401 93.4312 180.621C95.307 179.841 97.3188 179.441 99.3503 179.444C101.382 179.446 103.393 179.851 105.267 180.636C107.141 181.42 108.84 182.568 110.268 184.013C111.695 185.458 112.821 187.172 113.582 189.056C114.342 190.939 114.722 192.954 114.698 194.985L114.023 253.687C114.008 254.72 113.588 255.705 112.853 256.431C112.118 257.157 111.128 257.566 110.095 257.57V257.57Z" fill="#1D8FE9"/>
<path d="M105.75 166.339C95.9327 166.357 86.671 158.6 84.9698 148.934C84.3607 145.136 84.6353 141.25 85.7723 137.576C87.0068 133.393 89.1239 129.524 91.9809 126.229C94.8378 122.933 98.3683 120.289 102.334 118.473C106.3 116.657 110.609 115.713 114.971 115.703C119.333 115.693 123.647 116.618 127.621 118.416C130.247 119.604 132.834 121.31 134.036 123.93C135.239 126.549 134.486 130.209 131.856 131.388C130.137 132.158 127.979 131.78 126.454 132.885C124.263 134.473 124.827 137.852 125.806 140.375C126.784 142.897 127.89 145.949 126.25 148.101C124.722 150.106 121.668 150.044 119.262 149.289C116.857 148.534 114.482 147.27 111.974 147.527C108.316 147.902 105.687 151.54 105.2 155.184C104.713 158.828 105.859 162.471 106.99 165.969L105.75 166.339Z" fill="#2F2E41"/>
<g filter="url(#filter0_b)">
<path d="M667.298 325.844H201.446C198.266 325.841 195.217 324.576 192.969 322.328C190.72 320.08 189.455 317.032 189.452 313.853V26.6812C189.454 24.3521 190.381 22.1191 192.028 20.4722C193.676 18.8252 195.909 17.8988 198.239 17.8961H670.353C672.723 17.8988 674.995 18.8412 676.671 20.5167C678.347 22.1921 679.29 24.4636 679.292 26.833V313.853C679.289 317.032 678.024 320.08 675.775 322.328C673.527 324.576 670.478 325.841 667.298 325.844Z" fill="url(#paint0_radial)" fill-opacity="0.6"/>
<path d="M667.297 324.844H201.447C198.532 324.841 195.737 323.682 193.676 321.621C191.615 319.561 190.455 316.767 190.452 313.853V26.6817C190.454 24.6178 191.275 22.639 192.735 21.1794C194.195 19.7198 196.175 18.8986 198.239 18.8961H670.352C672.457 18.8986 674.476 19.7358 675.964 21.2239C677.453 22.712 678.29 24.7297 678.292 26.8341V313.852C678.289 316.766 677.13 319.56 675.068 321.621C673.007 323.682 670.212 324.841 667.297 324.844Z" stroke="#6DBEFF" stroke-width="2"/>
</g>
<path d="M248.565 303.619C248.565 303.619 256.419 316.072 253.614 319.444C250.809 322.816 274.659 322.9 274.659 322.9C274.659 322.9 271.077 304.784 272.131 300.615L248.565 303.619Z" fill="#FFB8B8"/>
<path d="M261.117 308.132C274.719 308.132 285.746 297.109 285.746 283.511C285.746 269.913 274.719 258.889 261.117 258.889C247.516 258.889 236.489 269.913 236.489 283.511C236.489 297.109 247.516 308.132 261.117 308.132Z" fill="#2F2E41"/>
<path d="M332.427 418.182L319.043 416.966V431.562L333.643 428.521L332.427 418.182Z" fill="#FFB8B8"/>
<path d="M370.752 419.398L411.511 426.088L401.169 441.293C401.169 441.293 372.577 431.562 365.277 431.562C357.977 431.562 370.752 419.398 370.752 419.398Z" fill="#FFB8B8"/>
<path d="M278.284 390.206C278.284 390.206 308.702 354.932 318.435 356.757C328.169 358.581 332.427 369.528 332.427 369.528L337.902 423.656C337.902 423.656 318.435 425.48 318.435 423.656C318.435 421.831 314.785 382.908 314.785 382.908C314.785 382.908 286.193 446.158 270.984 404.194L278.284 390.206Z" fill="#D0CDE1"/>
<path d="M229.009 413.925C229.009 413.925 229.617 445.787 247.867 447.611C266.118 449.436 286.193 433.995 286.193 433.995L319.043 418.261C319.043 418.261 357.977 438.86 369.536 433.386C369.536 433.386 381.703 420.615 373.794 416.966C365.886 413.317 373.186 416.966 373.186 416.966L326.344 392.639C326.344 392.639 317.218 390.206 301.402 396.896C285.585 403.586 264.293 406.627 264.293 406.627L229.009 413.925Z" fill="#D0CDE1"/>
<path d="M259.426 309.928C269.505 309.928 277.676 301.759 277.676 291.683C277.676 281.606 269.505 273.438 259.426 273.438C249.346 273.438 241.176 281.606 241.176 291.683C241.176 301.759 249.346 309.928 259.426 309.928Z" fill="#FFB8B8"/>
<path d="M285.584 342.769L284.368 368.312C284.368 368.312 284.976 401.761 279.501 404.194C276.733 405.423 271.173 407.892 266.032 410.592C262.175 412.611 258.556 414.752 256.536 416.595C256.001 417.05 255.539 417.586 255.167 418.182C252.734 422.439 236.917 421.831 233.267 418.79C229.617 415.749 232.05 422.439 229.009 423.656C226.064 424.835 221.982 415.19 224.483 400.788C224.562 400.308 224.653 399.821 224.75 399.329C227.543 385.371 223.156 351.94 223.832 339.023C223.871 338.036 223.975 337.052 224.142 336.079C225.967 326.348 249.254 306.546 253.61 314.982C258.975 325.394 271.301 315.882 273.418 311.144C285.584 310.536 289.843 325.132 289.843 325.132L285.584 342.769Z" fill="#6DBEFF"/>
<path d="M334.86 426.088C334.86 426.088 325.127 429.737 322.085 429.129C319.043 428.521 316.002 430.954 316.002 434.603C316.002 438.252 312.352 446.766 317.827 447.374C323.302 447.982 345.81 446.766 350.677 448.591C350.677 448.591 372.577 449.199 370.752 440.076C368.927 430.954 359.802 431.562 359.802 431.562C359.802 431.562 334.86 430.345 334.86 426.088Z" fill="#2F2E41"/>
<path d="M406.036 427.913C406.036 427.913 407.253 424.264 409.078 424.264C410.903 424.264 425.503 426.696 427.328 426.088C429.153 425.48 450.445 424.264 446.795 434.603C443.145 444.942 430.978 446.158 430.978 446.158C430.978 446.158 409.078 443.725 406.036 444.333C402.994 444.942 392.044 444.333 393.869 441.293C395.694 438.252 407.253 432.778 406.036 427.913Z" fill="#2F2E41"/>
<path d="M350.661 340.557L353.999 354.321C354.036 354.474 354.03 354.635 353.982 354.785L338.843 402.082C338.783 402.27 338.66 402.431 338.496 402.539C338.332 402.647 338.135 402.695 337.939 402.676C337.744 402.657 337.56 402.571 337.42 402.433C337.28 402.295 337.191 402.113 337.169 401.918L335.075 383.492C335.061 383.37 335.074 383.246 335.112 383.129L349.008 340.494C349.066 340.316 349.181 340.162 349.334 340.055C349.488 339.948 349.672 339.894 349.859 339.901C350.046 339.908 350.226 339.976 350.371 340.095C350.515 340.213 350.618 340.376 350.662 340.557L350.661 340.557Z" fill="#3F3D56"/>
<path d="M336.081 383.307L349.434 341.72L352.516 353.528L339.162 396.656L336.081 383.307Z" fill="white"/>
<path d="M282.157 405.897C282.67 407.437 335.567 405.384 336.081 404.87C336.529 404.227 336.907 403.539 337.211 402.817C337.694 401.79 338.135 400.763 338.135 400.763L336.081 384.138L283.697 382.28C283.697 382.28 282.388 396.368 282.121 402.817C282.03 403.842 282.042 404.874 282.157 405.897H282.157Z" fill="#3F3D56"/>
<path opacity="0.1" d="M307.322 386.387H329.405L330.432 400.763H307.322V386.387Z" fill="black"/>
<path opacity="0.1" d="M299.756 390.981L299.104 397.169H286.265V391.008H299.618L299.756 390.981Z" fill="black"/>
<path opacity="0.1" d="M282.157 405.897C282.67 407.437 335.567 405.384 336.081 404.87C336.529 404.227 336.907 403.539 337.211 402.817H282.121C282.03 403.842 282.042 404.874 282.157 405.897H282.157Z" fill="black"/>
<path d="M265.198 263.456C268.989 263.456 272.062 260.384 272.062 256.595C272.062 252.805 268.989 249.733 265.198 249.733C261.407 249.733 258.334 252.805 258.334 256.595C258.334 260.384 261.407 263.456 265.198 263.456Z" fill="#2F2E41"/>
<path d="M263.134 264.064C263.134 264.064 256.122 275.725 239.815 280.09C223.508 284.455 239.682 308.952 239.682 308.952C239.682 308.952 233.801 300.044 242.283 290.61C250.766 281.176 264.417 274.727 263.134 264.064Z" fill="#2F2E41"/>
<path opacity="0.1" d="M266.032 410.592C264.53 413.432 262.766 416.382 262.468 417.574C262.267 418.383 260.04 417.914 256.536 416.595C249.51 413.937 237.331 407.849 225.967 401.761C225.443 401.484 224.946 401.158 224.483 400.788C224.562 400.308 224.653 399.821 224.75 399.329C227.543 385.371 223.156 351.94 223.832 339.023L229.009 337.295L239.351 347.026V388.382C239.351 388.382 266.118 402.978 267.943 404.194C268.873 404.814 267.59 407.642 266.032 410.592Z" fill="black"/>
<path d="M288.626 377.435L305.051 385.949C305.051 385.949 314.785 375.61 320.868 383.516C326.952 391.423 303.226 393.855 303.226 393.855C303.226 393.855 282.543 388.99 281.934 382.3C281.326 375.61 288.626 377.435 288.626 377.435Z" fill="#FFB8B8"/>
<path d="M261.251 399.937L270.984 402.37C270.984 402.37 281.935 388.99 293.493 393.855C305.052 398.721 278.893 408.451 278.893 408.451C278.893 408.451 264.901 415.749 259.426 409.668C253.951 403.586 261.251 399.937 261.251 399.937Z" fill="#FFB8B8"/>
<path d="M282.543 319.659C283.151 320.267 289.843 325.132 289.843 325.132C289.843 325.132 291.668 348.242 289.235 353.108C286.801 357.973 284.976 357.973 286.801 360.406C288.626 362.839 291.06 361.014 288.626 365.271C286.193 369.528 283.76 368.92 285.585 370.745C287.41 372.569 286.801 373.177 286.801 373.177L294.101 379.259C294.101 379.259 289.623 386.391 283.954 385.866C278.285 385.341 273.418 357.973 273.418 357.973L282.543 319.659Z" fill="#6DBEFF"/>
<path d="M229.009 334.255L223.534 336.079C223.534 336.079 208.933 389.598 225.967 398.721C243.001 407.843 261.859 416.966 262.468 414.533C263.076 412.1 269.768 402.37 267.943 401.153C266.118 399.937 239.351 385.341 239.351 385.341V343.985L229.009 334.255Z" fill="#6DBEFF"/>
<path opacity="0.1" d="M238.438 385.645L237.221 356.453L236.005 385.645L268.247 400.85L238.438 385.645Z" fill="black"/>
<path d="M652.236 280.642H588.685V308.06H652.236V280.642Z" fill="#565661"/>
<path d="M652.236 310.705H588.685V368.943H652.236V310.705Z" fill="#565661"/>
<path d="M617.186 387.37L617.402 383.662L613.278 382.211L613.005 386.153L609.154 452.569H614.006L617.186 387.37Z" fill="#565661"/>
<path opacity="0.1" d="M613.005 386.153L617.186 387.37L617.402 383.662L613.278 382.211L613.005 386.153Z" fill="black"/>
<path d="M568.637 427.391C568.518 428.284 568.288 429.159 567.954 429.996C567.609 431.089 566.869 432.014 565.878 432.589C565.212 432.864 564.499 433.005 563.779 433.005C561.099 433.164 558.266 433.124 555.962 431.759C554.98 431.127 554.081 430.376 553.283 429.524C548.105 424.381 543.399 418.785 539.22 412.803C538.52 411.797 537.797 410.608 538.11 409.391C543.524 407.89 548.664 405.538 553.339 402.424C553.985 401.929 554.707 401.545 555.478 401.286C556.799 401.004 558.158 400.954 559.495 401.139C560.786 401.349 560.843 401.389 561.338 402.845C562.157 405.307 562.021 407.963 562.942 410.426C563.527 411.787 564.24 413.089 565.07 414.316C567.448 418.292 569.274 422.984 568.637 427.391Z" fill="#A26565"/>
<path opacity="0.1" d="M568.637 427.391C568.518 428.284 568.288 429.159 567.954 429.996C567.609 431.089 566.869 432.014 565.878 432.589C565.212 432.864 564.499 433.005 563.779 433.005C561.099 433.164 558.266 433.124 555.962 431.759C554.98 431.127 554.081 430.376 553.283 429.524C548.105 424.381 543.399 418.785 539.22 412.803C538.52 411.797 537.797 410.608 538.11 409.391C539.876 408.902 541.616 408.321 543.321 407.651L543.407 407.713C545.153 408.959 546.422 410.745 547.656 412.496L551.638 418.098C552.348 419.198 553.187 420.21 554.136 421.112C555.313 422.057 556.612 422.837 557.999 423.433C559.87 424.337 561.742 425.241 563.688 425.969C564.945 426.476 567.072 426.675 568.637 427.391Z" fill="black"/>
<path d="M572.312 366.657C571.92 367.601 571.444 368.509 570.89 369.369C565.602 378.246 561.523 387.788 558.761 397.743C557.976 397.567 557.532 398.636 557.538 399.45C557.544 400.263 557.538 401.287 556.787 401.582C556.565 401.668 556.315 401.668 556.099 401.764C555.621 401.98 555.484 402.589 555.416 403.112L554.745 408.037C554.511 409.744 554.307 411.592 555.143 413.099C555.72 413.995 556.468 414.768 557.344 415.374L568.449 424.132C568.904 424.491 569.468 424.872 570.014 424.673C571.26 424.218 570.156 421.988 571.151 421.084C571.811 420.464 572.858 420.93 573.774 420.857C574.969 420.766 575.873 419.668 576.175 418.513C576.386 417.338 576.408 416.136 576.237 414.953C576.162 414.414 576.225 413.864 576.419 413.355C576.759 412.816 577.226 412.368 577.779 412.053C579.706 410.646 581.258 408.788 582.301 406.643C583.343 404.497 583.843 402.129 583.758 399.745C583.668 399.02 583.695 398.284 583.838 397.567C584.069 396.91 584.418 396.302 584.867 395.77C588.901 390.316 592.263 384.395 595.602 378.486C597.525 375.074 599.482 371.61 600.153 367.766C600.212 367.623 600.236 367.468 600.224 367.314C600.212 367.16 600.164 367.011 600.085 366.878C600.005 366.746 599.896 366.634 599.766 366.551C599.636 366.468 599.488 366.417 599.334 366.401C597.668 365.881 595.969 365.474 594.248 365.184C589.02 364.126 583.974 362.493 578.888 360.924C573.802 359.354 573.842 362.55 572.312 366.657Z" fill="#454B69"/>
<path d="M647.969 384.879L682.17 469.995H689.447L653.476 370.518L652.093 366.685L598.481 364.848L585.118 372.338L584.947 372.77L548.265 466.361L556.275 467.327L593.145 383.662L603.089 382.934L620.56 388.029L623.95 487.643H631.954L628.803 384.39L647.969 384.879Z" fill="#565661"/>
<path opacity="0.1" d="M584.947 372.77C596.467 376.24 608.425 380.027 608.425 380.027C608.425 380.027 619.331 383.832 623.95 380.027C624.533 379.573 625.184 379.214 625.879 378.964C625.279 379.392 624.632 379.749 623.95 380.027L653.476 370.513L652.11 366.685L598.498 364.848L585.135 372.338L584.947 372.77Z" fill="black"/>
<path d="M639.475 356.26L617.647 351.409C617.647 351.409 565.491 361.111 561.611 364.99C561.611 364.99 603.334 373.476 607.942 376.365C612.55 379.254 639.964 382.45 639.475 356.26Z" fill="white"/>
<path d="M558.477 434.222C557.162 436.724 553.925 437.429 551.081 437.469C547.132 437.518 543.209 436.817 539.521 435.405C537.416 434.597 535.397 433.556 533.223 432.965C529.986 432.078 526.397 432.152 523.552 430.371C522.044 429.366 520.797 428.015 519.917 426.43C519.752 426.151 519.593 425.861 519.445 425.566C518.085 422.921 517.454 419.844 518.21 416.989C518.967 414.134 521.715 410.989 524.901 411.035C528.684 411.091 533.195 412.883 536.847 413.81C541.398 414.947 545.95 416.261 549.972 418.667C553.339 420.692 556.315 423.598 557.902 427.147C558.207 427.831 558.458 428.539 558.653 429.262C559.148 430.9 559.262 432.726 558.477 434.222Z" fill="#A26565"/>
<path opacity="0.1" d="M558.476 434.222C557.162 436.724 553.925 437.429 551.081 437.469C547.132 437.518 543.209 436.817 539.521 435.405C537.416 434.597 535.397 433.556 533.223 432.965C529.986 432.078 526.397 432.152 523.552 430.371C522.044 429.366 520.797 428.015 519.917 426.43C519.752 426.151 519.593 425.861 519.445 425.566C520.014 425.611 520.537 425.668 520.822 425.696C524.315 426.032 527.648 427.306 530.982 428.267C535.61 429.604 540.389 430.349 545.204 430.485C548.618 430.582 552.179 430.332 555.16 428.665C556.05 428.104 556.973 427.597 557.925 427.147C558.23 427.831 558.481 428.539 558.676 429.262C559.148 430.9 559.262 432.726 558.476 434.222Z" fill="black"/>
<path d="M582.922 326.083C575.526 324.872 567.994 324.576 560.496 324.28L551.326 323.917C550.673 323.841 550.012 323.921 549.397 324.15C548.867 324.49 548.363 324.871 547.889 325.287C546.968 325.913 545.79 325.981 544.681 326.044C536.811 326.477 528.985 327.492 521.265 329.081C517.283 329.894 513.147 330.957 510.155 333.704C506.992 336.611 505.604 341.041 505.496 345.329C505.388 349.617 506.514 353.832 507.703 357.949C509.217 362.906 510.053 368.045 510.189 373.225C510.136 374.663 510.191 376.102 510.354 377.531C510.619 378.895 511.021 380.229 511.554 381.512L515.741 392.687C516.111 393.666 516.475 394.638 516.879 395.594C517.283 396.549 517.67 397.3 518.017 398.198C518.529 399.427 518.933 400.701 519.337 401.969L522.124 410.722L522.489 411.859C523.495 415.01 524.525 418.218 526.425 420.925C528.325 423.632 531.266 425.816 534.572 425.981C535.638 425.941 536.706 425.969 537.769 426.066C538.675 426.287 539.554 426.606 540.391 427.016C542.873 428.047 545.538 428.567 548.225 428.546C550.7 428.546 553.448 427.858 554.79 425.776C555.53 424.639 555.723 423.24 555.928 421.897C556.286 419.202 556.633 416.386 555.717 413.827C555.149 412.297 554.193 410.983 553.533 409.476C552.611 407.423 552.31 405.154 551.712 402.987C550.42 398.323 547.789 394.14 544.146 390.953C542.852 385.831 541.902 380.629 541.302 375.381C541.218 374.219 540.987 373.072 540.613 371.969C539.948 370.262 538.599 368.88 538.036 367.14C537.507 365.525 537.667 363.659 536.705 362.266C544.709 364.467 552.634 363.972 560.946 363.841C563.607 363.85 566.267 363.698 568.91 363.386C570.142 363.161 571.39 363.027 572.642 362.988C575.213 362.988 577.625 364.126 579.986 365.127C586.659 367.97 593.691 370.205 600.939 370.513C608.419 370.825 615.815 369.068 623.125 367.328C626.34 366.56 629.679 365.73 632.228 363.62C634.776 361.51 636.21 357.705 634.64 354.81C633.445 352.632 630.97 351.562 628.661 350.653C622.266 348.127 615.838 345.665 609.677 342.611C600.267 338.027 593.23 327.79 582.922 326.083Z" fill="#454B69"/>
<path d="M569.735 300.354C568.842 302.288 567.34 303.869 566.231 305.689C564.375 308.684 563.762 312.286 564.524 315.727C564.924 317.427 565.709 319.014 566.818 320.364C567.928 321.713 569.333 322.791 570.924 323.513C572.345 324.078 573.839 324.439 575.361 324.582C577.364 324.826 579.497 324.878 581.266 323.911C582.591 323.116 583.677 321.981 584.412 320.624C585.943 318.064 586.813 315.181 587.61 312.309C589.083 307.008 590.34 301.571 590.158 296.071C590.096 294.178 589.72 292.045 588.15 290.953C587.34 290.485 586.441 290.191 585.51 290.088L578.007 288.746C576.556 288.485 574.024 287.421 572.767 288.468C571.51 289.514 571.413 292.608 571.197 294.058C570.856 296.202 570.645 298.38 569.735 300.354Z" fill="#A1616A"/>
<path d="M660.945 278.355L658.982 294.803C658.576 297.737 658.342 300.692 658.283 303.653C658.283 305.302 658.334 307.133 657.242 308.367C656.707 308.929 656.031 309.336 655.285 309.545C652.901 310.284 650.301 309.624 648.026 308.606C646.694 308.038 645.335 307.213 644.732 305.888C644.381 304.969 644.236 303.985 644.305 303.004C644.305 293.194 645.232 282.962 650.358 274.602C650.795 273.782 651.412 273.07 652.161 272.52C653.584 271.61 655.444 271.866 657.054 272.361C658.044 272.663 660.718 272.998 661.349 273.88C661.98 274.761 661.082 277.224 660.945 278.355Z" fill="#A1616A"/>
<path d="M608.875 218.878C620.185 218.878 629.355 209.711 629.355 198.403C629.355 187.096 620.185 177.929 608.875 177.929C597.564 177.929 588.395 187.096 588.395 198.403C588.395 209.711 597.564 218.878 608.875 218.878Z" fill="#A1616A"/>
<path d="M603.396 228.916C603.322 230.509 602.889 232.064 602.128 233.466C612.584 231.873 623.014 230.099 633.417 228.142C629.965 226.369 627.355 223.302 626.158 219.611C625.592 217.632 625.282 215.589 625.236 213.532C625.071 210.269 625.134 206.998 625.424 203.744C621.783 204.125 618.335 205.49 614.865 206.661C611.376 207.84 607.827 208.833 604.233 209.636C602.497 210.023 600.751 210.352 598.999 210.66C596.951 211.024 595.967 211.018 597.389 212.815C601.206 217.615 603.931 222.495 603.396 228.916Z" fill="#A1616A"/>
<path d="M609.688 226.18C606.986 226.584 604.153 227.039 601.997 228.711C601.176 229.416 600.396 230.166 599.659 230.958C595.375 235.115 589.328 236.787 584.128 239.722C583.28 240.141 582.528 240.731 581.921 241.456C581.352 242.247 581.062 243.253 580.464 244.038C579.77 244.948 578.672 245.517 578.132 246.524C577.591 247.53 577.711 248.6 577.654 249.669C577.523 252.018 576.636 254.247 575.947 256.494C572.79 267.248 574.519 279.243 569.741 289.4C569.96 289.985 570.297 290.52 570.729 290.972C571.161 291.423 571.68 291.782 572.255 292.028C573.458 292.461 574.713 292.731 575.987 292.83L586.574 294.143C588.087 294.331 589.692 294.507 591.074 293.876C589.81 297.361 588.915 300.97 588.406 304.642C588.149 306.887 587.75 309.113 587.211 311.308C585.755 316.313 582.091 320.481 577.751 323.331C577.204 323.617 576.743 324.043 576.414 324.565C575.845 325.702 576.687 326.976 577.284 328.091C579.019 331.321 578.78 335.2 578.758 338.863C578.735 342.525 579.105 346.546 581.665 349.174C583.178 350.726 585.249 351.568 587.263 352.37L603.823 358.984C606.556 360.148 609.375 361.098 612.254 361.828C616.617 362.823 621.151 362.784 625.629 362.59C628.587 362.465 631.541 362.275 634.492 362.021C635.666 362.018 636.819 361.714 637.843 361.14C638.724 360.445 639.402 359.525 639.805 358.478C642.109 353.468 642.883 347.621 646.456 343.424C648.908 340.54 652.713 338.237 652.992 334.466C653.123 332.59 652.287 330.764 652.275 328.881C652.275 326.567 653.487 324.366 653.413 322.057C653.26 318.297 649.715 315.431 649.152 311.712C647.719 302.282 652.509 292.864 655.45 283.793C655.979 282.172 656.662 280.38 658.22 279.686C659.779 278.993 661.975 279.356 662.532 277.821C663.938 273.965 664.273 269.444 664.091 265.343C663.989 262.971 663.147 260.651 663.244 258.274C663.312 256.602 663.847 254.975 663.989 253.309C664.205 250.789 663.539 248.287 662.851 245.853C662.652 244.984 662.354 244.14 661.964 243.339C661.543 242.612 661.047 241.931 660.484 241.308L657.714 238.015C656.417 236.474 655.046 234.876 653.163 234.097C652.554 232.59 650.608 231.549 649.215 230.719C647.81 229.922 646.358 229.209 644.868 228.586L629.201 221.67C628.616 221.375 627.988 221.172 627.341 221.067C626.387 221.035 625.44 221.23 624.576 221.636C619.797 223.53 614.808 225.418 609.688 226.18Z" fill="#999999"/>
<path d="M593.094 201.964C592.491 199.842 590.949 198.011 590.716 195.816C590.505 193.865 591.364 191.977 591.853 190.077C592.343 188.178 592.326 185.857 590.818 184.595C590.568 184.379 590.249 184.185 590.158 183.867C589.976 183.298 590.551 182.78 590.727 182.206C591.051 181.069 589.646 179.812 590.158 178.72C590.448 178.123 591.177 177.912 591.814 177.724C594.249 177.002 596.717 175.398 597.247 172.913C599.152 173.709 601.183 172.213 602.645 170.763C604.107 169.313 605.905 167.658 607.919 168.096L607.47 169.011C610.575 167.884 613.971 167.846 617.101 168.903H616.145C618.89 168.95 621.553 169.85 623.763 171.48C623.518 171.48 623.495 171.844 623.592 172.048C624.388 173.908 626.436 174.892 628.41 175.353C629.599 175.637 630.891 175.842 631.761 176.695C632.632 177.548 632.649 179.328 631.5 179.738C633.843 180.65 636.062 181.854 638.104 183.321C638.673 183.736 639.316 184.299 639.242 185.027C639.161 185.392 639.043 185.749 638.889 186.09C638.776 186.697 638.817 187.323 639.009 187.91L639.64 190.515C640.334 193.41 640.88 196.896 638.77 198.995C639.56 200.471 639.853 202.162 639.606 203.817C639.359 205.473 638.585 207.004 637.399 208.186C637.566 208.694 637.624 209.232 637.569 209.764C637.513 210.296 637.345 210.81 637.077 211.273C636.808 211.735 636.444 212.136 636.009 212.448C635.575 212.76 635.079 212.976 634.554 213.082C635.254 214.174 634.611 215.733 633.508 216.415C632.404 217.098 631.016 217.103 629.73 216.984C628.445 216.864 627.142 216.574 625.856 216.768C623.984 217.058 622.153 218.332 620.349 217.763C619.677 217.476 619.032 217.129 618.421 216.728C617.158 216.051 615.69 215.898 614.291 215.59C611.905 215.078 609.639 214.113 607.617 212.747C606.277 211.941 605.209 210.753 604.551 209.334C603.3 206.172 605.404 202.026 603.191 199.45C601.894 197.948 599.323 197.926 597.872 199.211C597.15 199.854 597.053 201.207 596.302 201.691C595.255 201.956 594.171 202.048 593.094 201.964Z" fill="#464353"/>
<path opacity="0.1" d="M565.264 365.041C564.455 364.402 563.757 363.633 563.198 362.766C562.638 361.896 562.415 360.85 562.573 359.826C562.351 361.121 562.435 362.45 562.82 363.706C563.204 364.962 563.877 366.111 564.786 367.06C566.214 368.522 568.893 369.955 570.981 369.455C570.685 367.783 566.589 366.167 565.264 365.041Z" fill="black"/>
<path d="M677.802 273.561C677.802 273.561 665.673 266.532 649.664 275.267C633.656 284.003 631 333 631 333C631 333 637.535 387.785 612.288 376.132C612.288 376.132 566.208 361.828 561.594 364.979C561.594 364.979 557.225 364.979 565.958 366.918C574.69 368.858 608.425 379.544 608.425 379.544C608.425 379.544 619.331 383.354 623.95 379.544C628.57 375.733 641.66 380.033 643.361 353.837C644.487 337.33 646.511 320.896 649.425 304.608L653.925 291.271L677.802 273.561Z" fill="#565661"/>
<path d="M679.258 354.56C679.258 354.56 673.922 301.452 682.671 282.291C690.283 265.593 657.236 272.94 653.168 275.677C646 280.5 645.722 282.491 645 283.5C640.449 289.898 633 309 634.156 344.135C634.156 344.135 636.096 374.693 623.967 379.538L661.338 367.504C664.37 366.526 667.448 365.712 670.554 365.007C674.513 364.109 680.964 361.555 679.258 354.56Z" fill="white"/>
<path d="M211.174 36.4395V34.6035H207.014V54.1738H211.174V52.3379H209.299V36.4395H211.174ZM216.096 45.6191V45.8242C216.096 46.599 216.206 47.3118 216.428 47.9629C216.649 48.6139 216.971 49.1803 217.395 49.6621C217.811 50.1439 218.326 50.5215 218.938 50.7949C219.549 51.0684 220.243 51.2051 221.018 51.2051C221.786 51.2051 222.473 51.0684 223.078 50.7949C223.69 50.5215 224.204 50.1439 224.621 49.6621C225.038 49.1803 225.357 48.6139 225.578 47.9629C225.799 47.3118 225.91 46.599 225.91 45.8242V45.6191C225.91 44.8509 225.799 44.1413 225.578 43.4902C225.357 42.8327 225.038 42.263 224.621 41.7812C224.198 41.2995 223.68 40.9219 223.068 40.6484C222.463 40.375 221.773 40.2383 220.998 40.2383C220.223 40.2383 219.533 40.375 218.928 40.6484C218.322 40.9219 217.811 41.2995 217.395 41.7812C216.971 42.263 216.649 42.8327 216.428 43.4902C216.206 44.1413 216.096 44.8509 216.096 45.6191ZM218.43 45.8242V45.6191C218.43 45.1569 218.479 44.7142 218.576 44.291C218.68 43.8678 218.837 43.4967 219.045 43.1777C219.26 42.8587 219.527 42.6048 219.846 42.416C220.171 42.2272 220.555 42.1328 220.998 42.1328C221.447 42.1328 221.831 42.2272 222.15 42.416C222.476 42.6048 222.743 42.8587 222.951 43.1777C223.16 43.4967 223.316 43.8678 223.42 44.291C223.524 44.7142 223.576 45.1569 223.576 45.6191V45.8242C223.576 46.2995 223.524 46.7487 223.42 47.1719C223.322 47.5951 223.169 47.9661 222.961 48.2852C222.753 48.6042 222.486 48.8581 222.16 49.0469C221.835 49.2292 221.454 49.3203 221.018 49.3203C220.568 49.3203 220.181 49.2292 219.855 49.0469C219.53 48.8581 219.26 48.6042 219.045 48.2852C218.837 47.9661 218.68 47.5951 218.576 47.1719C218.479 46.7487 218.43 46.2995 218.43 45.8242ZM235.441 48.1387C235.441 48.3079 235.402 48.4642 235.324 48.6074C235.253 48.7441 235.142 48.8711 234.992 48.9883C234.81 49.1315 234.566 49.2454 234.26 49.3301C233.96 49.4147 233.609 49.457 233.205 49.457C232.906 49.457 232.609 49.4277 232.316 49.3691C232.023 49.304 231.763 49.1999 231.535 49.0566C231.301 48.9199 231.105 48.7409 230.949 48.5195C230.799 48.2917 230.715 48.015 230.695 47.6895H228.43C228.43 48.1257 228.534 48.5553 228.742 48.9785C228.951 49.4017 229.257 49.776 229.66 50.1016C230.057 50.4336 230.549 50.7005 231.135 50.9023C231.727 51.1042 232.404 51.2051 233.166 51.2051C233.85 51.2051 234.471 51.127 235.031 50.9707C235.591 50.8145 236.073 50.5964 236.477 50.3164C236.874 50.0365 237.18 49.7012 237.395 49.3105C237.616 48.9199 237.727 48.4902 237.727 48.0215C237.727 47.5397 237.622 47.123 237.414 46.7715C237.206 46.4199 236.913 46.1139 236.535 45.8535C236.158 45.6061 235.702 45.3978 235.168 45.2285C234.634 45.0592 234.045 44.916 233.4 44.7988C232.938 44.7207 232.554 44.6328 232.248 44.5352C231.949 44.4375 231.714 44.3301 231.545 44.2129C231.363 44.1022 231.236 43.9753 231.164 43.832C231.092 43.6823 231.057 43.5163 231.057 43.334C231.057 43.1582 231.099 42.9922 231.184 42.8359C231.268 42.6732 231.395 42.5332 231.564 42.416C231.734 42.2858 231.949 42.1849 232.209 42.1133C232.476 42.0352 232.785 41.9961 233.137 41.9961C233.521 41.9961 233.856 42.0482 234.143 42.1523C234.429 42.25 234.663 42.3835 234.846 42.5527C235.002 42.696 235.119 42.8587 235.197 43.041C235.282 43.2168 235.324 43.4023 235.324 43.5977H237.658C237.658 43.1224 237.554 42.6797 237.346 42.2695C237.137 41.8594 236.841 41.5046 236.457 41.2051C236.066 40.9056 235.591 40.6712 235.031 40.502C234.471 40.3262 233.84 40.2383 233.137 40.2383C232.479 40.2383 231.88 40.3229 231.34 40.4922C230.806 40.6615 230.35 40.8926 229.973 41.1855C229.589 41.4785 229.292 41.8203 229.084 42.2109C228.882 42.5951 228.781 43.002 228.781 43.4316C228.781 43.8809 228.882 44.2747 229.084 44.6133C229.286 44.9453 229.566 45.2383 229.924 45.4922C230.288 45.7526 230.721 45.974 231.223 46.1562C231.73 46.3385 232.29 46.4915 232.902 46.6152C233.391 46.7064 233.798 46.804 234.123 46.9082C234.449 47.0124 234.712 47.123 234.914 47.2402C235.103 47.3704 235.236 47.5072 235.314 47.6504C235.399 47.7936 235.441 47.9564 235.441 48.1387ZM240.236 45.6387V45.8438C240.236 46.6055 240.334 47.3151 240.529 47.9727C240.725 48.6237 241.001 49.1868 241.359 49.6621C241.717 50.1439 242.154 50.5215 242.668 50.7949C243.182 51.0618 243.762 51.1953 244.406 51.1953C245.018 51.1953 245.559 51.0846 246.027 50.8633C246.496 50.6354 246.9 50.3132 247.238 49.8965L247.346 51H249.465V36H247.131V41.4199C246.792 41.0423 246.402 40.7526 245.959 40.5508C245.523 40.3424 245.012 40.2383 244.426 40.2383C243.775 40.2383 243.189 40.3717 242.668 40.6387C242.154 40.8991 241.717 41.2669 241.359 41.7422C240.995 42.2174 240.715 42.7871 240.52 43.4512C240.331 44.1087 240.236 44.8379 240.236 45.6387ZM242.57 45.8438V45.6387C242.57 45.1634 242.616 44.7174 242.707 44.3008C242.798 43.8776 242.941 43.5065 243.137 43.1875C243.332 42.8685 243.583 42.6178 243.889 42.4355C244.201 42.2533 244.576 42.1621 245.012 42.1621C245.533 42.1621 245.962 42.2793 246.301 42.5137C246.646 42.7415 246.923 43.0508 247.131 43.4414V47.9824C246.923 48.3796 246.646 48.6953 246.301 48.9297C245.956 49.1576 245.52 49.2715 244.992 49.2715C244.562 49.2715 244.195 49.1836 243.889 49.0078C243.583 48.8255 243.332 48.5781 243.137 48.2656C242.941 47.9531 242.798 47.5885 242.707 47.1719C242.616 46.7552 242.57 46.3125 242.57 45.8438ZM252.258 45.6387V45.8438C252.258 46.6055 252.355 47.3151 252.551 47.9727C252.753 48.6237 253.039 49.1868 253.41 49.6621C253.775 50.1439 254.217 50.5215 254.738 50.7949C255.259 51.0618 255.845 51.1953 256.496 51.1953C256.854 51.1953 257.186 51.1562 257.492 51.0781C257.798 51.0065 258.078 50.8991 258.332 50.7559C258.501 50.6647 258.658 50.5573 258.801 50.4336C258.951 50.3099 259.094 50.1764 259.23 50.0332V50.7656C259.23 51.1628 259.172 51.5176 259.055 51.8301C258.944 52.1426 258.785 52.4062 258.576 52.6211C258.348 52.8424 258.072 53.0117 257.746 53.1289C257.427 53.2461 257.059 53.3047 256.643 53.3047C256.402 53.3047 256.164 53.2786 255.93 53.2266C255.695 53.181 255.464 53.1061 255.236 53.002C255.008 52.8978 254.784 52.7611 254.562 52.5918C254.348 52.429 254.146 52.2337 253.957 52.0059L252.854 53.4219C253.088 53.7344 253.368 54.0013 253.693 54.2227C254.019 54.444 254.361 54.623 254.719 54.7598C255.077 54.8965 255.435 54.9974 255.793 55.0625C256.151 55.1276 256.48 55.1602 256.779 55.1602C257.489 55.1602 258.137 55.0592 258.723 54.8574C259.315 54.6621 259.823 54.3757 260.246 53.998C260.663 53.6139 260.985 53.1452 261.213 52.5918C261.447 52.0449 261.564 51.4167 261.564 50.707V40.4336H259.445L259.348 41.498C259.217 41.3418 259.077 41.1986 258.928 41.0684C258.778 40.9316 258.618 40.8145 258.449 40.7168C258.189 40.5605 257.899 40.4434 257.58 40.3652C257.261 40.2806 256.906 40.2383 256.516 40.2383C255.858 40.2383 255.266 40.3717 254.738 40.6387C254.217 40.8991 253.771 41.2669 253.4 41.7422C253.036 42.2174 252.753 42.7871 252.551 43.4512C252.355 44.1087 252.258 44.8379 252.258 45.6387ZM254.602 45.8438V45.6387C254.602 45.1634 254.65 44.7174 254.748 44.3008C254.846 43.8776 254.999 43.5065 255.207 43.1875C255.409 42.8685 255.666 42.6178 255.979 42.4355C256.291 42.2533 256.665 42.1621 257.102 42.1621C257.349 42.1621 257.577 42.1914 257.785 42.25C257.993 42.3021 258.182 42.377 258.352 42.4746C258.54 42.5788 258.706 42.709 258.85 42.8652C258.999 43.0215 259.126 43.1973 259.23 43.3926V48.0215C259.126 48.2103 259.006 48.3828 258.869 48.5391C258.732 48.6953 258.576 48.8288 258.4 48.9395C258.225 49.0436 258.026 49.125 257.805 49.1836C257.59 49.2422 257.349 49.2715 257.082 49.2715C256.652 49.2715 256.281 49.1836 255.969 49.0078C255.656 48.8255 255.399 48.5749 255.197 48.2559C254.989 47.9499 254.836 47.5885 254.738 47.1719C254.647 46.7552 254.602 46.3125 254.602 45.8438ZM274.436 43.0996C274.462 42.1621 274.367 41.3092 274.152 40.541C273.944 39.7728 273.632 39.1152 273.215 38.5684C272.785 38.0215 272.261 37.5983 271.643 37.2988C271.024 36.9993 270.324 36.8496 269.543 36.8496C268.69 36.8496 267.909 37.0417 267.199 37.4258C266.49 37.8034 265.878 38.3242 265.363 38.9883C264.829 39.6654 264.406 40.4661 264.094 41.3906C263.788 42.3086 263.615 43.2819 263.576 44.3105C263.544 45.3327 263.628 46.2604 263.83 47.0938C264.032 47.9271 264.354 48.6367 264.797 49.2227C265.24 49.8151 265.803 50.2741 266.486 50.5996C267.176 50.9186 268 51.0781 268.957 51.0781C269.172 51.0781 269.396 51.0618 269.631 51.0293C269.872 51.0033 270.109 50.9577 270.344 50.8926C270.578 50.834 270.803 50.7591 271.018 50.668C271.232 50.5768 271.424 50.4694 271.594 50.3457L271.281 49.1055C271.132 49.1901 270.965 49.2682 270.783 49.3398C270.601 49.4049 270.412 49.4635 270.217 49.5156C270.008 49.5677 269.8 49.61 269.592 49.6426C269.383 49.6686 269.182 49.6816 268.986 49.6816C268.309 49.6816 267.714 49.5677 267.199 49.3398C266.691 49.1055 266.271 48.7604 265.939 48.3047C265.607 47.8555 265.363 47.2988 265.207 46.6348C265.051 45.9642 264.989 45.1895 265.021 44.3105C265.048 43.4121 265.174 42.5885 265.402 41.8398C265.63 41.0846 265.946 40.4368 266.35 39.8965C266.734 39.3691 267.186 38.9622 267.707 38.6758C268.234 38.3828 268.824 38.2363 269.475 38.2363C270.08 38.2363 270.614 38.3405 271.076 38.5488C271.545 38.7507 271.936 39.0599 272.248 39.4766C272.567 39.8867 272.798 40.3978 272.941 41.0098C273.091 41.6217 273.153 42.3314 273.127 43.1387C273.127 43.64 273.098 44.1055 273.039 44.5352C272.98 44.9648 272.896 45.3359 272.785 45.6484C272.668 45.9609 272.528 46.2083 272.365 46.3906C272.209 46.5664 272.033 46.6543 271.838 46.6543C271.753 46.6543 271.672 46.6445 271.594 46.625C271.522 46.6055 271.46 46.5599 271.408 46.4883C271.35 46.4167 271.307 46.3158 271.281 46.1855C271.255 46.0553 271.249 45.8796 271.262 45.6582L271.691 40.6094C271.503 40.3945 271.252 40.209 270.939 40.0527C270.633 39.89 270.243 39.8086 269.768 39.8086C269.286 39.8086 268.85 39.916 268.459 40.1309C268.068 40.3392 267.727 40.6387 267.434 41.0293C267.141 41.4199 266.903 41.8952 266.721 42.4551C266.538 43.0085 266.415 43.6302 266.35 44.3203C266.298 44.8607 266.304 45.3555 266.369 45.8047C266.434 46.2474 266.551 46.625 266.721 46.9375C266.883 47.263 267.098 47.5137 267.365 47.6895C267.639 47.8587 267.954 47.9434 268.312 47.9434C268.521 47.9434 268.716 47.9141 268.898 47.8555C269.087 47.7904 269.263 47.6992 269.426 47.582C269.549 47.4909 269.667 47.39 269.777 47.2793C269.888 47.1621 269.989 47.0352 270.08 46.8984C270.139 47.0417 270.21 47.1719 270.295 47.2891C270.38 47.4062 270.474 47.5072 270.578 47.5918C270.715 47.7155 270.871 47.8066 271.047 47.8652C271.223 47.9238 271.415 47.9531 271.623 47.9531C272.118 47.9531 272.538 47.8099 272.883 47.5234C273.234 47.2305 273.521 46.8529 273.742 46.3906C273.964 45.9284 274.13 45.4076 274.24 44.8281C274.351 44.2487 274.416 43.6725 274.436 43.0996ZM267.834 44.3203C267.88 43.8255 267.954 43.3861 268.059 43.002C268.163 42.6113 268.296 42.2826 268.459 42.0156C268.622 41.7422 268.82 41.5371 269.055 41.4004C269.289 41.2572 269.562 41.1855 269.875 41.1855C269.96 41.1855 270.035 41.1921 270.1 41.2051C270.171 41.2181 270.236 41.2344 270.295 41.2539L269.924 45.5703L269.914 45.6875C269.849 45.8047 269.781 45.9089 269.709 46C269.637 46.0846 269.566 46.1595 269.494 46.2246C269.377 46.3288 269.25 46.4036 269.113 46.4492C268.983 46.4883 268.846 46.5078 268.703 46.5078C268.547 46.5078 268.407 46.4622 268.283 46.3711C268.166 46.2734 268.072 46.127 268 45.9316C267.928 45.7493 267.876 45.5215 267.844 45.248C267.818 44.9746 267.814 44.6654 267.834 44.3203ZM277.121 40.4336V42.377H280.373V49.0664H277.121V51H285.832V49.0664H282.727V40.4336H277.121ZM280.158 37.6992C280.158 37.9466 280.217 38.1647 280.334 38.3535C280.458 38.5358 280.637 38.6628 280.871 38.7344C281.099 38.806 281.307 38.8223 281.496 38.7832C281.685 38.7441 281.848 38.6628 281.984 38.5391C282.258 38.4674 282.466 38.3275 282.609 38.1191C282.753 37.9043 282.801 37.6536 282.756 37.3672C282.723 37.0872 282.596 36.8594 282.375 36.6836C282.16 36.5013 281.877 36.4102 281.525 36.4102C281.317 36.4102 281.128 36.4427 280.959 36.5078C280.796 36.5664 280.656 36.651 280.539 36.7617C280.415 36.8789 280.321 37.0189 280.256 37.1816C280.191 37.3379 280.158 37.5104 280.158 37.6992ZM289.133 40.4336V42.377H292.385V49.0664H289.133V51H297.844V49.0664H294.738V40.4336H289.133ZM292.17 37.6992C292.17 37.9466 292.229 38.1647 292.346 38.3535C292.469 38.5358 292.648 38.6628 292.883 38.7344C293.111 38.806 293.319 38.8223 293.508 38.7832C293.697 38.7441 293.859 38.6628 293.996 38.5391C294.27 38.4674 294.478 38.3275 294.621 38.1191C294.764 37.9043 294.813 37.6536 294.768 37.3672C294.735 37.0872 294.608 36.8594 294.387 36.6836C294.172 36.5013 293.889 36.4102 293.537 36.4102C293.329 36.4102 293.14 36.4427 292.971 36.5078C292.808 36.5664 292.668 36.651 292.551 36.7617C292.427 36.8789 292.333 37.0189 292.268 37.1816C292.202 37.3379 292.17 37.5104 292.17 37.6992ZM301.145 40.4336V42.377H304.396V49.0664H301.145V51H309.855V49.0664H306.75V40.4336H301.145ZM304.182 37.6992C304.182 37.9466 304.24 38.1647 304.357 38.3535C304.481 38.5358 304.66 38.6628 304.895 38.7344C305.122 38.806 305.331 38.8223 305.52 38.7832C305.708 38.7441 305.871 38.6628 306.008 38.5391C306.281 38.4674 306.49 38.3275 306.633 38.1191C306.776 37.9043 306.825 37.6536 306.779 37.3672C306.747 37.0872 306.62 36.8594 306.398 36.6836C306.184 36.5013 305.9 36.4102 305.549 36.4102C305.34 36.4102 305.152 36.4427 304.982 36.5078C304.82 36.5664 304.68 36.651 304.562 36.7617C304.439 36.8789 304.344 37.0189 304.279 37.1816C304.214 37.3379 304.182 37.5104 304.182 37.6992ZM317.307 37.8555H314.963V40.4336H312.404V42.1816H314.963V47.377C314.963 48.054 315.051 48.6335 315.227 49.1152C315.409 49.597 315.66 49.9941 315.979 50.3066C316.298 50.6126 316.678 50.8405 317.121 50.9902C317.57 51.1335 318.062 51.2051 318.596 51.2051C318.889 51.2051 319.182 51.1888 319.475 51.1562C319.774 51.1302 320.061 51.0911 320.334 51.0391C320.607 50.987 320.861 50.9251 321.096 50.8535C321.337 50.7754 321.542 50.6842 321.711 50.5801L321.457 48.9688C321.34 48.9948 321.193 49.0273 321.018 49.0664C320.848 49.099 320.663 49.1283 320.461 49.1543C320.266 49.1868 320.061 49.2129 319.846 49.2324C319.631 49.252 319.423 49.2617 319.221 49.2617C318.941 49.2617 318.684 49.2292 318.449 49.1641C318.215 49.099 318.013 48.9883 317.844 48.832C317.674 48.6823 317.541 48.4772 317.443 48.2168C317.352 47.9499 317.307 47.6211 317.307 47.2305V42.1816H321.281V40.4336H317.307V37.8555ZM326.965 41.9375V36H324.631V51H326.965V43.3535C327.076 43.1842 327.202 43.0312 327.346 42.8945C327.495 42.7578 327.655 42.6406 327.824 42.543C328.026 42.4193 328.247 42.3249 328.488 42.2598C328.736 42.1947 328.996 42.1621 329.27 42.1621C329.621 42.1621 329.93 42.2109 330.197 42.3086C330.471 42.3997 330.702 42.543 330.891 42.7383C331.073 42.9206 331.21 43.1582 331.301 43.4512C331.398 43.7441 331.447 44.0859 331.447 44.4766V51H333.781V44.4961C333.781 43.7474 333.69 43.1061 333.508 42.5723C333.332 42.0319 333.081 41.5892 332.756 41.2441C332.43 40.8991 332.036 40.6452 331.574 40.4824C331.118 40.3197 330.614 40.2383 330.061 40.2383C329.663 40.2383 329.286 40.2969 328.928 40.4141C328.576 40.5247 328.254 40.6875 327.961 40.9023C327.772 41.0326 327.593 41.1855 327.424 41.3613C327.255 41.5371 327.102 41.7292 326.965 41.9375ZM339.055 34.6035V36.4395H340.939V52.3379H339.055V54.1738H343.225V34.6035H339.055ZM351.848 49.5938C351.848 50.043 351.994 50.4238 352.287 50.7363C352.587 51.0423 353.003 51.1953 353.537 51.1953C354.064 51.1953 354.478 51.0423 354.777 50.7363C355.083 50.4303 355.236 50.0495 355.236 49.5938C355.236 49.138 355.087 48.7539 354.787 48.4414C354.488 48.1224 354.071 47.9629 353.537 47.9629C352.997 47.9629 352.58 48.1224 352.287 48.4414C351.994 48.7604 351.848 49.1445 351.848 49.5938ZM351.848 41.3223C351.848 41.7715 351.994 42.1523 352.287 42.4648C352.587 42.7708 353.003 42.9238 353.537 42.9238C354.064 42.9238 354.478 42.7708 354.777 42.4648C355.083 42.1589 355.236 41.778 355.236 41.3223C355.236 40.8665 355.087 40.4824 354.787 40.1699C354.488 39.8509 354.071 39.6914 353.537 39.6914C352.997 39.6914 352.58 39.8509 352.287 40.1699C351.994 40.4889 351.848 40.873 351.848 41.3223ZM370.471 43.7051L368.859 43.5195C368.859 43.7409 368.82 43.9557 368.742 44.1641C368.664 44.3724 368.56 44.5547 368.43 44.7109C368.299 44.8737 368.146 45.0039 367.971 45.1016C367.801 45.1992 367.619 45.248 367.424 45.248C367.255 45.248 367.089 45.2285 366.926 45.1895C366.77 45.1504 366.613 45.0918 366.457 45.0137C366.307 44.9355 366.154 44.8444 365.998 44.7402C365.848 44.6296 365.689 44.5059 365.52 44.3691C365.279 44.1608 365.038 43.9753 364.797 43.8125C364.562 43.6432 364.322 43.5065 364.074 43.4023C363.827 43.2852 363.57 43.1973 363.303 43.1387C363.036 43.0736 362.756 43.041 362.463 43.041C362.02 43.041 361.617 43.1289 361.252 43.3047C360.887 43.4805 360.578 43.7214 360.324 44.0273C360.057 44.3333 359.852 44.6979 359.709 45.1211C359.566 45.5378 359.494 45.987 359.494 46.4688L361.066 46.6641C361.066 46.4427 361.105 46.2311 361.184 46.0293C361.262 45.8275 361.369 45.6517 361.506 45.502C361.636 45.3522 361.789 45.2318 361.965 45.1406C362.147 45.0495 362.336 45.0039 362.531 45.0039C362.688 45.0039 362.84 45.0202 362.99 45.0527C363.14 45.0853 363.286 45.1374 363.43 45.209C363.599 45.2806 363.768 45.375 363.938 45.4922C364.107 45.6029 364.279 45.7298 364.455 45.873C364.709 46.1009 364.953 46.2995 365.188 46.4688C365.428 46.6315 365.673 46.7682 365.92 46.8789C366.161 46.9896 366.408 47.0742 366.662 47.1328C366.923 47.1849 367.199 47.2109 367.492 47.2109C367.935 47.2109 368.339 47.1198 368.703 46.9375C369.068 46.7552 369.383 46.5046 369.65 46.1855C369.911 45.873 370.113 45.5052 370.256 45.082C370.399 44.6523 370.471 44.1934 370.471 43.7051ZM379.768 47.2988C379.768 47.5853 379.719 47.849 379.621 48.0898C379.523 48.3307 379.38 48.5358 379.191 48.7051C378.99 48.8874 378.736 49.0273 378.43 49.125C378.13 49.2227 377.785 49.2715 377.395 49.2715C377.089 49.2715 376.786 49.2324 376.486 49.1543C376.187 49.0697 375.92 48.9264 375.686 48.7246C375.451 48.5293 375.259 48.2656 375.109 47.9336C374.96 47.5951 374.885 47.1751 374.885 46.6738H372.551C372.551 47.4355 372.665 48.0898 372.893 48.6367C373.12 49.1771 373.426 49.6263 373.811 49.9844C374.195 50.3424 374.634 50.6159 375.129 50.8047C375.63 50.9935 376.148 51.1139 376.682 51.166V53.0605H378.195V51.166C378.788 51.1074 379.325 50.9805 379.807 50.7852C380.288 50.5833 380.699 50.3164 381.037 49.9844C381.382 49.6589 381.646 49.2715 381.828 48.8223C382.01 48.3665 382.102 47.8522 382.102 47.2793C382.102 46.6738 382.004 46.1465 381.809 45.6973C381.62 45.248 381.343 44.8509 380.979 44.5059C380.614 44.1673 380.174 43.8711 379.66 43.6172C379.146 43.3568 378.57 43.1126 377.932 42.8848C377.469 42.722 377.079 42.5592 376.76 42.3965C376.441 42.2337 376.184 42.0579 375.988 41.8691C375.786 41.6868 375.64 41.485 375.549 41.2637C375.464 41.0423 375.422 40.7884 375.422 40.502C375.422 40.2155 375.464 39.9551 375.549 39.7207C375.633 39.4798 375.757 39.2715 375.92 39.0957C376.096 38.9134 376.317 38.7734 376.584 38.6758C376.857 38.5716 377.18 38.5195 377.551 38.5195C377.876 38.5195 378.169 38.5781 378.43 38.6953C378.697 38.8125 378.921 38.9753 379.104 39.1836C379.299 39.4115 379.449 39.6947 379.553 40.0332C379.663 40.3652 379.719 40.7461 379.719 41.1758H382.043C382.043 40.4792 381.949 39.8607 381.76 39.3203C381.577 38.7734 381.314 38.3047 380.969 37.9141C380.656 37.569 380.282 37.2891 379.846 37.0742C379.41 36.8529 378.921 36.7064 378.381 36.6348V34.4961H376.867V36.6152C376.294 36.6803 375.773 36.8171 375.305 37.0254C374.842 37.2272 374.449 37.4941 374.123 37.8262C373.798 38.1647 373.544 38.5618 373.361 39.0176C373.186 39.4668 373.098 39.9648 373.098 40.5117C373.098 41.1237 373.195 41.6576 373.391 42.1133C373.592 42.5625 373.879 42.9564 374.25 43.2949C374.615 43.64 375.054 43.9427 375.568 44.2031C376.089 44.457 376.669 44.6914 377.307 44.9062C377.749 45.056 378.127 45.2122 378.439 45.375C378.758 45.5378 379.016 45.7135 379.211 45.9023C379.406 46.0977 379.546 46.3092 379.631 46.5371C379.722 46.765 379.768 47.0189 379.768 47.2988Z" fill="#6DBEFF"/>
<defs>
<filter id="filter0_b" x="89.4517" y="-82.1039" width="689.841" height="507.948" filterUnits="userSpaceOnUse" color-interpolation-filters="sRGB">
<feFlood flood-opacity="0" result="BackgroundImageFix"/>
<feGaussianBlur in="BackgroundImage" stdDeviation="50"/>
<feComposite in2="SourceAlpha" operator="in" result="effect1_backgroundBlur"/>
<feBlend mode="normal" in="SourceGraphic" in2="effect1_backgroundBlur" result="shape"/>
</filter>
<radialGradient id="paint0_radial" cx="0" cy="0" r="1" gradientUnits="userSpaceOnUse" gradientTransform="translate(189.452 17.8961) rotate(32.1564) scale(578.598 908.792)">
<stop stop-color="white" stop-opacity="0.2"/>
<stop offset="1" stop-color="white" stop-opacity="0.1"/>
</radialGradient>
</defs>
</svg>
