<?xml version="1.0" encoding="UTF-8" standalone="no"?>
<!-- Created with Inkscape (http://www.inkscape.org/) -->

<svg
   version="1.1"
   id="svg8133"
   inkscape:version="1.1 (c4e8f9ed74, 2021-05-24)"
   sodipodi:docname="modded-rocket.svg"
   width="300.42337"
   height="95.329124"
   xmlns:inkscape="http://www.inkscape.org/namespaces/inkscape"
   xmlns:sodipodi="http://sodipodi.sourceforge.net/DTD/sodipodi-0.dtd"
   xmlns="http://www.w3.org/2000/svg"
   xmlns:svg="http://www.w3.org/2000/svg">
  <sodipodi:namedview
     id="namedview8135"
     pagecolor="#ffffff"
     bordercolor="#999999"
     borderopacity="1"
     inkscape:pageshadow="0"
     inkscape:pageopacity="0"
     inkscape:pagecheckerboard="0"
     inkscape:document-units="mm"
     showgrid="false"
     inkscape:zoom="1.9856938"
     inkscape:cx="118.34654"
     inkscape:cy="76.04395"
     inkscape:window-width="953"
     inkscape:window-height="1034"
     inkscape:window-x="8"
     inkscape:window-y="32"
     inkscape:window-maximized="0"
     inkscape:current-layer="layer1"
     inkscape:snap-bbox="true"
     inkscape:bbox-paths="true"
     inkscape:snap-bbox-edge-midpoints="true"
     inkscape:snap-bbox-midpoints="true"
     inkscape:snap-page="true"
     fit-margin-top="0"
     fit-margin-left="0"
     fit-margin-right="0"
     fit-margin-bottom="0" />
  <defs
     id="defs8130">
    <clipPath
       clipPathUnits="userSpaceOnUse"
       id="clipPath2102-3-9">
      <rect
         style="fill:#000000;stroke:none;stroke-width:7.55906;stroke-linecap:square;stop-color:#000000"
         id="rect2104-5-2"
         width="1858.3727"
         height="623.21893"
         x="81.00631"
         y="61.308746"
         inkscape:export-filename="/home/praty/Documents/design/osdg/projbg.png"
         inkscape:export-xdpi="78.867958"
         inkscape:export-ydpi="78.867958" />
    </clipPath>
    <filter
       id="filter0_i-6-0"
       x="-581"
       y="-14"
       width="2571"
       height="665"
       filterUnits="userSpaceOnUse"
       color-interpolation-filters="sRGB">
      <feFlood
         flood-opacity="0"
         result="BackgroundImageFix"
         id="feFlood1765-2-6" />
      <feBlend
         mode="normal"
         in="SourceGraphic"
         in2="BackgroundImageFix"
         result="shape"
         id="feBlend1767-9-8" />
      <feColorMatrix
         in="SourceAlpha"
         type="matrix"
         values="0 0 0 0 0 0 0 0 0 0 0 0 0 0 0 0 0 0 127 0"
         result="hardAlpha"
         id="feColorMatrix1769-1-9" />
      <feOffset
         dy="4"
         id="feOffset1771-2-2" />
      <feGaussianBlur
         stdDeviation="25"
         id="feGaussianBlur1773-7-6" />
      <feComposite
         in2="hardAlpha"
         operator="arithmetic"
         k2="-1"
         k3="1"
         id="feComposite1775-0-6"
         k1="0"
         k4="0" />
      <feColorMatrix
         type="matrix"
         values="0 0 0 0 0 0 0 0 0 0 0 0 0 0 0 0 0 0 0.25 0"
         id="feColorMatrix1777-9-4" />
      <feBlend
         mode="normal"
         in2="shape"
         result="effect1_innerShadow"
         id="feBlend1779-3-9" />
    </filter>
    <filter
       id="filter1_i-6-5"
       x="221"
       y="-104"
       width="1824"
       height="622"
       filterUnits="userSpaceOnUse"
       color-interpolation-filters="sRGB">
      <feFlood
         flood-opacity="0"
         result="BackgroundImageFix"
         id="feFlood1782-0-0" />
      <feBlend
         mode="normal"
         in="SourceGraphic"
         in2="BackgroundImageFix"
         result="shape"
         id="feBlend1784-6-4" />
      <feColorMatrix
         in="SourceAlpha"
         type="matrix"
         values="0 0 0 0 0 0 0 0 0 0 0 0 0 0 0 0 0 0 127 0"
         result="hardAlpha"
         id="feColorMatrix1786-2-8" />
      <feOffset
         dy="4"
         id="feOffset1788-6-7" />
      <feGaussianBlur
         stdDeviation="20"
         id="feGaussianBlur1790-1-1" />
      <feComposite
         in2="hardAlpha"
         operator="arithmetic"
         k2="-1"
         k3="1"
         id="feComposite1792-8-7"
         k1="0"
         k4="0" />
      <feColorMatrix
         type="matrix"
         values="0 0 0 0 0 0 0 0 0 0 0 0 0 0 0 0 0 0 0.25 0"
         id="feColorMatrix1794-7-2" />
      <feBlend
         mode="normal"
         in2="shape"
         result="effect1_innerShadow"
         id="feBlend1796-9-7" />
    </filter>
    <filter
       id="filter2_i-2-2"
       x="863"
       y="-155"
       width="1167"
       height="490"
       filterUnits="userSpaceOnUse"
       color-interpolation-filters="sRGB">
      <feFlood
         flood-opacity="0"
         result="BackgroundImageFix"
         id="feFlood1799-0-2" />
      <feBlend
         mode="normal"
         in="SourceGraphic"
         in2="BackgroundImageFix"
         result="shape"
         id="feBlend1801-2-6" />
      <feColorMatrix
         in="SourceAlpha"
         type="matrix"
         values="0 0 0 0 0 0 0 0 0 0 0 0 0 0 0 0 0 0 127 0"
         result="hardAlpha"
         id="feColorMatrix1803-3-1" />
      <feOffset
         dy="4"
         id="feOffset1805-7-0" />
      <feGaussianBlur
         stdDeviation="15"
         id="feGaussianBlur1807-5-6" />
      <feComposite
         in2="hardAlpha"
         operator="arithmetic"
         k2="-1"
         k3="1"
         id="feComposite1809-9-1"
         k1="0"
         k4="0" />
      <feColorMatrix
         type="matrix"
         values="0 0 0 0 0 0 0 0 0 0 0 0 0 0 0 0 0 0 1 0"
         id="feColorMatrix1811-2-5" />
      <feBlend
         mode="normal"
         in2="shape"
         result="effect1_innerShadow"
         id="feBlend1813-2-9" />
    </filter>
    <filter
       id="filter3_dd-8-4"
       x="439.78201"
       y="120.731"
       width="323.754"
       height="245.976"
       filterUnits="userSpaceOnUse"
       color-interpolation-filters="sRGB">
      <feFlood
         flood-opacity="0"
         result="BackgroundImageFix"
         id="feFlood1816-9-9" />
      <feColorMatrix
         in="SourceAlpha"
         type="matrix"
         values="0 0 0 0 0 0 0 0 0 0 0 0 0 0 0 0 0 0 127 0"
         result="hardAlpha"
         id="feColorMatrix1818-7-0" />
      <feOffset
         dy="16"
         id="feOffset1820-3-9" />
      <feGaussianBlur
         stdDeviation="12"
         id="feGaussianBlur1822-6-1" />
      <feColorMatrix
         type="matrix"
         values="0 0 0 0 0.0862745 0 0 0 0 0.133333 0 0 0 0 0.2 0 0 0 0.16 0"
         id="feColorMatrix1824-1-7" />
      <feBlend
         mode="normal"
         in2="BackgroundImageFix"
         result="effect1_dropShadow"
         id="feBlend1826-2-7" />
      <feColorMatrix
         in="SourceAlpha"
         type="matrix"
         values="0 0 0 0 0 0 0 0 0 0 0 0 0 0 0 0 0 0 127 0"
         result="hardAlpha"
         id="feColorMatrix1828-9-1" />
      <feOffset
         dy="1"
         id="feOffset1830-3-1" />
      <feGaussianBlur
         stdDeviation="4"
         id="feGaussianBlur1832-1-5" />
      <feColorMatrix
         type="matrix"
         values="0 0 0 0 0.0862745 0 0 0 0 0.133333 0 0 0 0 0.2 0 0 0 0.1 0"
         id="feColorMatrix1834-9-9" />
      <feBlend
         mode="normal"
         in2="effect1_dropShadow"
         result="effect2_dropShadow"
         id="feBlend1836-4-7" />
      <feBlend
         mode="normal"
         in="SourceGraphic"
         in2="effect2_dropShadow"
         result="shape"
         id="feBlend1838-7-7" />
    </filter>
    <filter
       id="filter7745"
       x="439.78201"
       y="120.731"
       width="323.754"
       height="245.976"
       filterUnits="userSpaceOnUse"
       color-interpolation-filters="sRGB">
      <feFlood
         flood-opacity="0"
         result="BackgroundImageFix"
         id="feFlood7721" />
      <feColorMatrix
         in="SourceAlpha"
         type="matrix"
         values="0 0 0 0 0 0 0 0 0 0 0 0 0 0 0 0 0 0 127 0"
         result="hardAlpha"
         id="feColorMatrix7723" />
      <feOffset
         dy="16"
         id="feOffset7725" />
      <feGaussianBlur
         stdDeviation="12"
         id="feGaussianBlur7727" />
      <feColorMatrix
         type="matrix"
         values="0 0 0 0 0.0862745 0 0 0 0 0.133333 0 0 0 0 0.2 0 0 0 0.16 0"
         id="feColorMatrix7729" />
      <feBlend
         mode="normal"
         in2="BackgroundImageFix"
         result="effect1_dropShadow"
         id="feBlend7731" />
      <feColorMatrix
         in="SourceAlpha"
         type="matrix"
         values="0 0 0 0 0 0 0 0 0 0 0 0 0 0 0 0 0 0 127 0"
         result="hardAlpha"
         id="feColorMatrix7733" />
      <feOffset
         dy="1"
         id="feOffset7735" />
      <feGaussianBlur
         stdDeviation="4"
         id="feGaussianBlur7737" />
      <feColorMatrix
         type="matrix"
         values="0 0 0 0 0.0862745 0 0 0 0 0.133333 0 0 0 0 0.2 0 0 0 0.1 0"
         id="feColorMatrix7739" />
      <feBlend
         mode="normal"
         in2="effect1_dropShadow"
         result="effect2_dropShadow"
         id="feBlend7741" />
      <feBlend
         mode="normal"
         in="SourceGraphic"
         in2="effect2_dropShadow"
         result="shape"
         id="feBlend7743" />
    </filter>
    <filter
       id="filter7771"
       x="439.78201"
       y="120.731"
       width="323.754"
       height="245.976"
       filterUnits="userSpaceOnUse"
       color-interpolation-filters="sRGB">
      <feFlood
         flood-opacity="0"
         result="BackgroundImageFix"
         id="feFlood7747" />
      <feColorMatrix
         in="SourceAlpha"
         type="matrix"
         values="0 0 0 0 0 0 0 0 0 0 0 0 0 0 0 0 0 0 127 0"
         result="hardAlpha"
         id="feColorMatrix7749" />
      <feOffset
         dy="16"
         id="feOffset7751" />
      <feGaussianBlur
         stdDeviation="12"
         id="feGaussianBlur7753" />
      <feColorMatrix
         type="matrix"
         values="0 0 0 0 0.0862745 0 0 0 0 0.133333 0 0 0 0 0.2 0 0 0 0.16 0"
         id="feColorMatrix7755" />
      <feBlend
         mode="normal"
         in2="BackgroundImageFix"
         result="effect1_dropShadow"
         id="feBlend7757" />
      <feColorMatrix
         in="SourceAlpha"
         type="matrix"
         values="0 0 0 0 0 0 0 0 0 0 0 0 0 0 0 0 0 0 127 0"
         result="hardAlpha"
         id="feColorMatrix7759" />
      <feOffset
         dy="1"
         id="feOffset7761" />
      <feGaussianBlur
         stdDeviation="4"
         id="feGaussianBlur7763" />
      <feColorMatrix
         type="matrix"
         values="0 0 0 0 0.0862745 0 0 0 0 0.133333 0 0 0 0 0.2 0 0 0 0.1 0"
         id="feColorMatrix7765" />
      <feBlend
         mode="normal"
         in2="effect1_dropShadow"
         result="effect2_dropShadow"
         id="feBlend7767" />
      <feBlend
         mode="normal"
         in="SourceGraphic"
         in2="effect2_dropShadow"
         result="shape"
         id="feBlend7769" />
    </filter>
    <filter
       id="filter7797"
       x="439.78201"
       y="120.731"
       width="323.754"
       height="245.976"
       filterUnits="userSpaceOnUse"
       color-interpolation-filters="sRGB">
      <feFlood
         flood-opacity="0"
         result="BackgroundImageFix"
         id="feFlood7773" />
      <feColorMatrix
         in="SourceAlpha"
         type="matrix"
         values="0 0 0 0 0 0 0 0 0 0 0 0 0 0 0 0 0 0 127 0"
         result="hardAlpha"
         id="feColorMatrix7775" />
      <feOffset
         dy="16"
         id="feOffset7777" />
      <feGaussianBlur
         stdDeviation="12"
         id="feGaussianBlur7779" />
      <feColorMatrix
         type="matrix"
         values="0 0 0 0 0.0862745 0 0 0 0 0.133333 0 0 0 0 0.2 0 0 0 0.16 0"
         id="feColorMatrix7781" />
      <feBlend
         mode="normal"
         in2="BackgroundImageFix"
         result="effect1_dropShadow"
         id="feBlend7783" />
      <feColorMatrix
         in="SourceAlpha"
         type="matrix"
         values="0 0 0 0 0 0 0 0 0 0 0 0 0 0 0 0 0 0 127 0"
         result="hardAlpha"
         id="feColorMatrix7785" />
      <feOffset
         dy="1"
         id="feOffset7787" />
      <feGaussianBlur
         stdDeviation="4"
         id="feGaussianBlur7789" />
      <feColorMatrix
         type="matrix"
         values="0 0 0 0 0.0862745 0 0 0 0 0.133333 0 0 0 0 0.2 0 0 0 0.1 0"
         id="feColorMatrix7791" />
      <feBlend
         mode="normal"
         in2="effect1_dropShadow"
         result="effect2_dropShadow"
         id="feBlend7793" />
      <feBlend
         mode="normal"
         in="SourceGraphic"
         in2="effect2_dropShadow"
         result="shape"
         id="feBlend7795" />
    </filter>
    <filter
       id="filter7823"
       x="439.78201"
       y="120.731"
       width="323.754"
       height="245.976"
       filterUnits="userSpaceOnUse"
       color-interpolation-filters="sRGB">
      <feFlood
         flood-opacity="0"
         result="BackgroundImageFix"
         id="feFlood7799" />
      <feColorMatrix
         in="SourceAlpha"
         type="matrix"
         values="0 0 0 0 0 0 0 0 0 0 0 0 0 0 0 0 0 0 127 0"
         result="hardAlpha"
         id="feColorMatrix7801" />
      <feOffset
         dy="16"
         id="feOffset7803" />
      <feGaussianBlur
         stdDeviation="12"
         id="feGaussianBlur7805" />
      <feColorMatrix
         type="matrix"
         values="0 0 0 0 0.0862745 0 0 0 0 0.133333 0 0 0 0 0.2 0 0 0 0.16 0"
         id="feColorMatrix7807" />
      <feBlend
         mode="normal"
         in2="BackgroundImageFix"
         result="effect1_dropShadow"
         id="feBlend7809" />
      <feColorMatrix
         in="SourceAlpha"
         type="matrix"
         values="0 0 0 0 0 0 0 0 0 0 0 0 0 0 0 0 0 0 127 0"
         result="hardAlpha"
         id="feColorMatrix7811" />
      <feOffset
         dy="1"
         id="feOffset7813" />
      <feGaussianBlur
         stdDeviation="4"
         id="feGaussianBlur7815" />
      <feColorMatrix
         type="matrix"
         values="0 0 0 0 0.0862745 0 0 0 0 0.133333 0 0 0 0 0.2 0 0 0 0.1 0"
         id="feColorMatrix7817" />
      <feBlend
         mode="normal"
         in2="effect1_dropShadow"
         result="effect2_dropShadow"
         id="feBlend7819" />
      <feBlend
         mode="normal"
         in="SourceGraphic"
         in2="effect2_dropShadow"
         result="shape"
         id="feBlend7821" />
    </filter>
    <filter
       id="filter7849"
       x="439.78201"
       y="120.731"
       width="323.754"
       height="245.976"
       filterUnits="userSpaceOnUse"
       color-interpolation-filters="sRGB">
      <feFlood
         flood-opacity="0"
         result="BackgroundImageFix"
         id="feFlood7825" />
      <feColorMatrix
         in="SourceAlpha"
         type="matrix"
         values="0 0 0 0 0 0 0 0 0 0 0 0 0 0 0 0 0 0 127 0"
         result="hardAlpha"
         id="feColorMatrix7827" />
      <feOffset
         dy="16"
         id="feOffset7829" />
      <feGaussianBlur
         stdDeviation="12"
         id="feGaussianBlur7831" />
      <feColorMatrix
         type="matrix"
         values="0 0 0 0 0.0862745 0 0 0 0 0.133333 0 0 0 0 0.2 0 0 0 0.16 0"
         id="feColorMatrix7833" />
      <feBlend
         mode="normal"
         in2="BackgroundImageFix"
         result="effect1_dropShadow"
         id="feBlend7835" />
      <feColorMatrix
         in="SourceAlpha"
         type="matrix"
         values="0 0 0 0 0 0 0 0 0 0 0 0 0 0 0 0 0 0 127 0"
         result="hardAlpha"
         id="feColorMatrix7837" />
      <feOffset
         dy="1"
         id="feOffset7839" />
      <feGaussianBlur
         stdDeviation="4"
         id="feGaussianBlur7841" />
      <feColorMatrix
         type="matrix"
         values="0 0 0 0 0.0862745 0 0 0 0 0.133333 0 0 0 0 0.2 0 0 0 0.1 0"
         id="feColorMatrix7843" />
      <feBlend
         mode="normal"
         in2="effect1_dropShadow"
         result="effect2_dropShadow"
         id="feBlend7845" />
      <feBlend
         mode="normal"
         in="SourceGraphic"
         in2="effect2_dropShadow"
         result="shape"
         id="feBlend7847" />
    </filter>
    <filter
       id="filter7875"
       x="439.78201"
       y="120.731"
       width="323.754"
       height="245.976"
       filterUnits="userSpaceOnUse"
       color-interpolation-filters="sRGB">
      <feFlood
         flood-opacity="0"
         result="BackgroundImageFix"
         id="feFlood7851" />
      <feColorMatrix
         in="SourceAlpha"
         type="matrix"
         values="0 0 0 0 0 0 0 0 0 0 0 0 0 0 0 0 0 0 127 0"
         result="hardAlpha"
         id="feColorMatrix7853" />
      <feOffset
         dy="16"
         id="feOffset7855" />
      <feGaussianBlur
         stdDeviation="12"
         id="feGaussianBlur7857" />
      <feColorMatrix
         type="matrix"
         values="0 0 0 0 0.0862745 0 0 0 0 0.133333 0 0 0 0 0.2 0 0 0 0.16 0"
         id="feColorMatrix7859" />
      <feBlend
         mode="normal"
         in2="BackgroundImageFix"
         result="effect1_dropShadow"
         id="feBlend7861" />
      <feColorMatrix
         in="SourceAlpha"
         type="matrix"
         values="0 0 0 0 0 0 0 0 0 0 0 0 0 0 0 0 0 0 127 0"
         result="hardAlpha"
         id="feColorMatrix7863" />
      <feOffset
         dy="1"
         id="feOffset7865" />
      <feGaussianBlur
         stdDeviation="4"
         id="feGaussianBlur7867" />
      <feColorMatrix
         type="matrix"
         values="0 0 0 0 0.0862745 0 0 0 0 0.133333 0 0 0 0 0.2 0 0 0 0.1 0"
         id="feColorMatrix7869" />
      <feBlend
         mode="normal"
         in2="effect1_dropShadow"
         result="effect2_dropShadow"
         id="feBlend7871" />
      <feBlend
         mode="normal"
         in="SourceGraphic"
         in2="effect2_dropShadow"
         result="shape"
         id="feBlend7873" />
    </filter>
    <filter
       id="filter7901"
       x="439.78201"
       y="120.731"
       width="323.754"
       height="245.976"
       filterUnits="userSpaceOnUse"
       color-interpolation-filters="sRGB">
      <feFlood
         flood-opacity="0"
         result="BackgroundImageFix"
         id="feFlood7877" />
      <feColorMatrix
         in="SourceAlpha"
         type="matrix"
         values="0 0 0 0 0 0 0 0 0 0 0 0 0 0 0 0 0 0 127 0"
         result="hardAlpha"
         id="feColorMatrix7879" />
      <feOffset
         dy="16"
         id="feOffset7881" />
      <feGaussianBlur
         stdDeviation="12"
         id="feGaussianBlur7883" />
      <feColorMatrix
         type="matrix"
         values="0 0 0 0 0.0862745 0 0 0 0 0.133333 0 0 0 0 0.2 0 0 0 0.16 0"
         id="feColorMatrix7885" />
      <feBlend
         mode="normal"
         in2="BackgroundImageFix"
         result="effect1_dropShadow"
         id="feBlend7887" />
      <feColorMatrix
         in="SourceAlpha"
         type="matrix"
         values="0 0 0 0 0 0 0 0 0 0 0 0 0 0 0 0 0 0 127 0"
         result="hardAlpha"
         id="feColorMatrix7889" />
      <feOffset
         dy="1"
         id="feOffset7891" />
      <feGaussianBlur
         stdDeviation="4"
         id="feGaussianBlur7893" />
      <feColorMatrix
         type="matrix"
         values="0 0 0 0 0.0862745 0 0 0 0 0.133333 0 0 0 0 0.2 0 0 0 0.1 0"
         id="feColorMatrix7895" />
      <feBlend
         mode="normal"
         in2="effect1_dropShadow"
         result="effect2_dropShadow"
         id="feBlend7897" />
      <feBlend
         mode="normal"
         in="SourceGraphic"
         in2="effect2_dropShadow"
         result="shape"
         id="feBlend7899" />
    </filter>
    <filter
       id="filter7927"
       x="439.78201"
       y="120.731"
       width="323.754"
       height="245.976"
       filterUnits="userSpaceOnUse"
       color-interpolation-filters="sRGB">
      <feFlood
         flood-opacity="0"
         result="BackgroundImageFix"
         id="feFlood7903" />
      <feColorMatrix
         in="SourceAlpha"
         type="matrix"
         values="0 0 0 0 0 0 0 0 0 0 0 0 0 0 0 0 0 0 127 0"
         result="hardAlpha"
         id="feColorMatrix7905" />
      <feOffset
         dy="16"
         id="feOffset7907" />
      <feGaussianBlur
         stdDeviation="12"
         id="feGaussianBlur7909" />
      <feColorMatrix
         type="matrix"
         values="0 0 0 0 0.0862745 0 0 0 0 0.133333 0 0 0 0 0.2 0 0 0 0.16 0"
         id="feColorMatrix7911" />
      <feBlend
         mode="normal"
         in2="BackgroundImageFix"
         result="effect1_dropShadow"
         id="feBlend7913" />
      <feColorMatrix
         in="SourceAlpha"
         type="matrix"
         values="0 0 0 0 0 0 0 0 0 0 0 0 0 0 0 0 0 0 127 0"
         result="hardAlpha"
         id="feColorMatrix7915" />
      <feOffset
         dy="1"
         id="feOffset7917" />
      <feGaussianBlur
         stdDeviation="4"
         id="feGaussianBlur7919" />
      <feColorMatrix
         type="matrix"
         values="0 0 0 0 0.0862745 0 0 0 0 0.133333 0 0 0 0 0.2 0 0 0 0.1 0"
         id="feColorMatrix7921" />
      <feBlend
         mode="normal"
         in2="effect1_dropShadow"
         result="effect2_dropShadow"
         id="feBlend7923" />
      <feBlend
         mode="normal"
         in="SourceGraphic"
         in2="effect2_dropShadow"
         result="shape"
         id="feBlend7925" />
    </filter>
    <filter
       id="filter7953"
       x="439.78201"
       y="120.731"
       width="323.754"
       height="245.976"
       filterUnits="userSpaceOnUse"
       color-interpolation-filters="sRGB">
      <feFlood
         flood-opacity="0"
         result="BackgroundImageFix"
         id="feFlood7929" />
      <feColorMatrix
         in="SourceAlpha"
         type="matrix"
         values="0 0 0 0 0 0 0 0 0 0 0 0 0 0 0 0 0 0 127 0"
         result="hardAlpha"
         id="feColorMatrix7931" />
      <feOffset
         dy="16"
         id="feOffset7933" />
      <feGaussianBlur
         stdDeviation="12"
         id="feGaussianBlur7935" />
      <feColorMatrix
         type="matrix"
         values="0 0 0 0 0.0862745 0 0 0 0 0.133333 0 0 0 0 0.2 0 0 0 0.16 0"
         id="feColorMatrix7937" />
      <feBlend
         mode="normal"
         in2="BackgroundImageFix"
         result="effect1_dropShadow"
         id="feBlend7939" />
      <feColorMatrix
         in="SourceAlpha"
         type="matrix"
         values="0 0 0 0 0 0 0 0 0 0 0 0 0 0 0 0 0 0 127 0"
         result="hardAlpha"
         id="feColorMatrix7941" />
      <feOffset
         dy="1"
         id="feOffset7943" />
      <feGaussianBlur
         stdDeviation="4"
         id="feGaussianBlur7945" />
      <feColorMatrix
         type="matrix"
         values="0 0 0 0 0.0862745 0 0 0 0 0.133333 0 0 0 0 0.2 0 0 0 0.1 0"
         id="feColorMatrix7947" />
      <feBlend
         mode="normal"
         in2="effect1_dropShadow"
         result="effect2_dropShadow"
         id="feBlend7949" />
      <feBlend
         mode="normal"
         in="SourceGraphic"
         in2="effect2_dropShadow"
         result="shape"
         id="feBlend7951" />
    </filter>
    <filter
       id="filter7979"
       x="439.78201"
       y="120.731"
       width="323.754"
       height="245.976"
       filterUnits="userSpaceOnUse"
       color-interpolation-filters="sRGB">
      <feFlood
         flood-opacity="0"
         result="BackgroundImageFix"
         id="feFlood7955" />
      <feColorMatrix
         in="SourceAlpha"
         type="matrix"
         values="0 0 0 0 0 0 0 0 0 0 0 0 0 0 0 0 0 0 127 0"
         result="hardAlpha"
         id="feColorMatrix7957" />
      <feOffset
         dy="16"
         id="feOffset7959" />
      <feGaussianBlur
         stdDeviation="12"
         id="feGaussianBlur7961" />
      <feColorMatrix
         type="matrix"
         values="0 0 0 0 0.0862745 0 0 0 0 0.133333 0 0 0 0 0.2 0 0 0 0.16 0"
         id="feColorMatrix7963" />
      <feBlend
         mode="normal"
         in2="BackgroundImageFix"
         result="effect1_dropShadow"
         id="feBlend7965" />
      <feColorMatrix
         in="SourceAlpha"
         type="matrix"
         values="0 0 0 0 0 0 0 0 0 0 0 0 0 0 0 0 0 0 127 0"
         result="hardAlpha"
         id="feColorMatrix7967" />
      <feOffset
         dy="1"
         id="feOffset7969" />
      <feGaussianBlur
         stdDeviation="4"
         id="feGaussianBlur7971" />
      <feColorMatrix
         type="matrix"
         values="0 0 0 0 0.0862745 0 0 0 0 0.133333 0 0 0 0 0.2 0 0 0 0.1 0"
         id="feColorMatrix7973" />
      <feBlend
         mode="normal"
         in2="effect1_dropShadow"
         result="effect2_dropShadow"
         id="feBlend7975" />
      <feBlend
         mode="normal"
         in="SourceGraphic"
         in2="effect2_dropShadow"
         result="shape"
         id="feBlend7977" />
    </filter>
    <filter
       id="filter8005"
       x="439.78201"
       y="120.731"
       width="323.754"
       height="245.976"
       filterUnits="userSpaceOnUse"
       color-interpolation-filters="sRGB">
      <feFlood
         flood-opacity="0"
         result="BackgroundImageFix"
         id="feFlood7981" />
      <feColorMatrix
         in="SourceAlpha"
         type="matrix"
         values="0 0 0 0 0 0 0 0 0 0 0 0 0 0 0 0 0 0 127 0"
         result="hardAlpha"
         id="feColorMatrix7983" />
      <feOffset
         dy="16"
         id="feOffset7985" />
      <feGaussianBlur
         stdDeviation="12"
         id="feGaussianBlur7987" />
      <feColorMatrix
         type="matrix"
         values="0 0 0 0 0.0862745 0 0 0 0 0.133333 0 0 0 0 0.2 0 0 0 0.16 0"
         id="feColorMatrix7989" />
      <feBlend
         mode="normal"
         in2="BackgroundImageFix"
         result="effect1_dropShadow"
         id="feBlend7991" />
      <feColorMatrix
         in="SourceAlpha"
         type="matrix"
         values="0 0 0 0 0 0 0 0 0 0 0 0 0 0 0 0 0 0 127 0"
         result="hardAlpha"
         id="feColorMatrix7993" />
      <feOffset
         dy="1"
         id="feOffset7995" />
      <feGaussianBlur
         stdDeviation="4"
         id="feGaussianBlur7997" />
      <feColorMatrix
         type="matrix"
         values="0 0 0 0 0.0862745 0 0 0 0 0.133333 0 0 0 0 0.2 0 0 0 0.1 0"
         id="feColorMatrix7999" />
      <feBlend
         mode="normal"
         in2="effect1_dropShadow"
         result="effect2_dropShadow"
         id="feBlend8001" />
      <feBlend
         mode="normal"
         in="SourceGraphic"
         in2="effect2_dropShadow"
         result="shape"
         id="feBlend8003" />
    </filter>
  </defs>
  <g
     inkscape:label="Layer 1"
     inkscape:groupmode="layer"
     id="layer1"
     transform="translate(0.42338123)">
    <g
       id="g1620-5-6"
       transform="matrix(0.16165938,0,0,0.16165938,-13.518811,-9.9111339)"
       clip-path="url(#clipPath2102-3-9)">
      <path
         d="m -490.699,83.8233 c 50.301,36.2197 113.133,107.3277 226.603,167.0237 113.47,59.695 277.5699,107.976 426.764,141.283 149.193,33.307 283.472,51.639 400.902,63.279 117.43,11.641 218.005,16.59 342.615,42.127 124.605,25.537 273.245,71.658 409.435,103.336 136.19,31.677 259.91,48.909 364.06,45.761 104.14,-3.149 188.69,-26.675 235.52,-54.435 46.83,-27.759 55.93,-59.751 61.75,-135.862 5.82,-76.11 8.36,-196.335 12.2,-280.526 3.84,-84.1916 8.97,-132.3449 -333.37,-159.6901 C 1313.43,-11.2252 623.638,-17.76 203.753,-12.1538 c -419.884,5.6062 -569.837,23.353 -661.565,34.8925 -91.728,11.5395 -125.228,16.8711 -123.093,20.2026 2.136,3.3314 39.905,4.6621 90.206,40.882 z"
         fill="#6dbeff"
         id="path1671-0-7"
         style="filter:url(#filter0_i-6-0)" />
      <path
         d="m 301.26,17.2118 c 51.019,35.4421 28.863,74.4297 22.958,116.4662 -5.904,42.036 4.441,87.119 37.999,124.562 33.558,37.444 90.324,67.245 175.77,89.019 85.447,21.773 199.568,35.519 297.245,42.165 97.677,6.646 178.908,6.194 272.998,29.2 94.09,23.006 201.04,69.467 317,86.837 115.97,17.369 240.95,5.648 330.06,-12.045 89.11,-17.693 142.34,-41.356 198.89,-128.71 56.55,-87.354 116.42,-238.393 79.37,-330.5935 -37.05,-92.2003 -171.02,-125.5569 -525.79,-135.1055 -354.78,-9.55 -930.338,4.7096 -1156.026,27.7882 -225.687,23.0787 -101.493,54.9746 -50.474,90.4166 z"
         fill="#1d8fe9"
         id="path1675-3-3"
         style="filter:url(#filter1_i-6-5)" />
      <path
         d="m 907.901,-90.4086 c 13.875,19.5569 4.714,40.3667 -2.99,69.7454 -7.705,29.37862 -13.951,67.3243 2.084,103.7832 16.035,36.459 54.349,71.428 112.635,97.881 58.29,26.452 136.55,44.385 210.27,49.876 73.72,5.49 142.88,-1.462 213.09,20.164 70.22,21.626 141.47,71.828 233.87,79.02 92.39,7.191 205.93,-28.625 269.34,-49.041 63.41,-20.416 76.69,-25.429 81.57,-66.566 4.88,-41.137 1.38,-118.3946 -6.94,-183.7654 -8.31,-65.3708 -21.44,-118.8512 -197.2,-148.7026 -175.76,-29.851 -514.14,-36.071 -708.48,-36.893 -194.351,-0.821 -244.653,3.755 -251.346,15.196 -6.694,11.442 30.221,29.745 44.097,49.3024 z"
         fill="#2e303e"
         id="path1679-6-6"
         style="filter:url(#filter2_i-2-2)" />
      <path
         d="m 533.373,221.118 c -4.917,0.736 -8.191,4.943 -17.292,10.338 -9.101,5.396 -24.028,11.981 -36.023,15.485 -11.995,3.504 -21.059,3.928 -31.145,5.981 -10.087,2.053 -21.196,5.736 -26.441,12.123 -5.245,6.387 -4.627,15.476 1.09,24.873 5.716,9.396 16.53,19.098 27.352,24.958 10.821,5.86 21.65,7.878 29.878,6.32 8.228,-1.558 13.856,-6.691 19.164,-12.507 5.308,-5.815 10.297,-12.311 17.614,-18.64 7.317,-6.328 16.961,-12.488 24.155,-15.728 7.194,-3.239 11.936,-3.558 14.307,-6.703 2.371,-3.145 2.371,-9.118 1.205,-16.551 -1.166,-7.432 -3.498,-16.324 -7.943,-22.138 -4.445,-5.813 -11.004,-8.548 -15.921,-7.811 z"
         fill="#ebf4f8"
         id="path1683-1-5" />
      <path
         d="m 444.091,269.012 c 0,3.426 -1.355,6.714 -3.77,9.15 -2.416,2.436 -5.697,3.823 -9.132,3.861 -3.434,0.038 -6.746,-1.277 -9.214,-3.659 -2.469,-2.383 -3.896,-5.64 -3.972,-9.065 -0.076,-3.425 1.206,-6.742 3.567,-9.231 2.361,-2.488 5.611,-3.948 9.044,-4.061 3.433,-0.113 6.773,1.129 9.293,3.456 2.521,2.327 4.02,5.553 4.171,8.975"
         fill="#ebf4f8"
         id="path1685-0-6" />
      <path
         d="m 430.921,274.413 c 0,4.848 -1.917,9.501 -5.335,12.948 -3.418,3.447 -8.061,5.41 -12.922,5.464 -4.86,0.053 -9.546,-1.807 -13.039,-5.178 -3.494,-3.372 -5.513,-7.981 -5.621,-12.828 -0.107,-4.847 1.707,-9.541 5.048,-13.062 3.341,-3.522 7.94,-5.587 12.798,-5.747 4.858,-0.16 9.584,1.597 13.151,4.89 3.567,3.294 5.688,7.858 5.902,12.701"
         fill="#ebf4f8"
         id="path1687-6-3" />
      <path
         d="m 409.921,277.413 c 0,4.848 -1.917,9.501 -5.335,12.948 -3.418,3.447 -8.061,5.41 -12.922,5.464 -4.86,0.053 -9.546,-1.807 -13.039,-5.178 -3.494,-3.372 -5.513,-7.981 -5.621,-12.828 -0.107,-4.847 1.707,-9.541 5.048,-13.062 3.341,-3.522 7.94,-5.587 12.798,-5.747 4.858,-0.16 9.584,1.597 13.151,4.89 3.567,3.294 5.688,7.858 5.902,12.701"
         fill="#ebf4f8"
         id="path1689-3-9" />
      <path
         d="m 390.804,283.347 c 0,5.621 -2.222,11.015 -6.185,15.011 -3.963,3.997 -9.346,6.273 -14.981,6.335 -5.635,0.062 -11.067,-2.096 -15.117,-6.004 -4.05,-3.908 -6.392,-9.252 -6.516,-14.871 -0.124,-5.62 1.979,-11.061 5.852,-15.144 3.874,-4.082 9.205,-6.476 14.837,-6.662 5.632,-0.186 11.111,1.851 15.246,5.669 4.136,3.819 6.595,9.11 6.843,14.725"
         fill="#ebf4f8"
         id="path1691-2-4" />
      <path
         d="m 494.38,306.066 c 1.623,2.601 2.153,5.734 1.473,8.722 -0.679,2.987 -2.512,5.587 -5.1,7.234 -2.589,1.648 -5.725,2.211 -8.728,1.566 -3.002,-0.644 -5.628,-2.444 -7.309,-5.008 -1.68,-2.563 -2.279,-5.685 -1.666,-8.687 0.613,-3.001 2.388,-5.64 4.94,-7.344 2.552,-1.705 5.675,-2.336 8.69,-1.758 3.016,0.578 5.682,2.32 7.418,4.846"
         fill="#ebf4f8"
         id="path1693-0-8" />
      <path
         d="m 485.778,316.223 c 1.816,2.908 2.408,6.414 1.648,9.755 -0.759,3.341 -2.809,6.249 -5.705,8.092 -2.896,1.843 -6.403,2.472 -9.762,1.751 -3.358,-0.72 -6.295,-2.733 -8.175,-5.601 -1.879,-2.868 -2.549,-6.359 -1.863,-9.716 0.685,-3.358 2.671,-6.309 5.525,-8.216 2.854,-1.906 6.347,-2.612 9.72,-1.966 3.373,0.647 6.355,2.595 8.297,5.421"
         fill="#ebf4f8"
         id="path1695-6-1" />
      <path
         d="m 475.916,330.362 c 2.57,4.115 3.408,9.076 2.333,13.804 -1.075,4.728 -3.976,8.843 -8.074,11.451 -4.097,2.608 -9.061,3.498 -13.813,2.478 -4.752,-1.02 -8.909,-3.868 -11.568,-7.926 -2.66,-4.058 -3.608,-8.999 -2.638,-13.749 0.97,-4.751 3.78,-8.929 7.819,-11.626 4.039,-2.697 8.982,-3.697 13.755,-2.782 4.773,0.915 8.992,3.671 11.741,7.67"
         fill="#ebf4f8"
         id="path1697-1-2" />
      <path
         d="m 470.1,349.631 c 2.569,4.115 3.407,9.076 2.332,13.804 -1.075,4.728 -3.976,8.843 -8.074,11.451 -4.097,2.607 -9.061,3.498 -13.813,2.478 -4.752,-1.02 -8.909,-3.868 -11.568,-7.926 -2.66,-4.058 -3.608,-8.999 -2.638,-13.75 0.971,-4.75 3.78,-8.928 7.819,-11.625 4.039,-2.697 8.982,-3.697 13.755,-2.782 4.774,0.915 8.992,3.671 11.741,7.67"
         fill="#ebf4f8"
         id="path1699-5-9" />
      <path
         d="m 462.649,369.121 c 2.978,4.772 3.95,10.522 2.704,16.004 -1.246,5.482 -4.61,10.252 -9.36,13.275 -4.751,3.024 -10.506,4.056 -16.015,2.874 -5.509,-1.182 -10.328,-4.484 -13.412,-9.189 -3.083,-4.705 -4.182,-10.433 -3.057,-15.941 1.125,-5.507 4.382,-10.35 9.064,-13.478 4.683,-3.127 10.413,-4.286 15.947,-3.225 5.534,1.061 10.425,4.256 13.612,8.892"
         fill="#ebf4f8"
         id="path1701-5-3" />
      <path
         d="m 381.273,310.301 c 0,11.928 -4.428,23.375 -12.322,31.856 -7.894,8.481 -18.618,13.311 -29.844,13.443 -11.226,0.131 -22.048,-4.447 -30.116,-12.741 -8.069,-8.293 -12.733,-19.634 -12.981,-31.559 -0.247,-11.925 3.942,-23.473 11.659,-32.136 7.716,-8.664 18.337,-13.745 29.558,-14.139 11.22,-0.395 22.134,3.929 30.373,12.031 8.238,8.103 13.137,19.331 13.632,31.248"
         fill="#ebf4f8"
         id="path1703-4-9" />
      <path
         d="m 429.868,373.716 c 0,16.663 -6.498,32.654 -18.082,44.501 -11.585,11.848 -27.322,18.595 -43.795,18.779 -16.473,0.184 -32.353,-6.211 -44.193,-17.797 -11.84,-11.586 -18.684,-27.428 -19.048,-44.087 -0.363,-16.659 5.784,-32.791 17.108,-44.894 11.323,-12.103 26.909,-19.2 43.374,-19.751 16.465,-0.551 32.481,5.489 44.57,16.808 12.09,11.319 19.278,27.004 20.005,43.651"
         fill="#ebf4f8"
         id="path1705-7-0" />
      <path
         d="m 337.032,315.895 c 0,12.348 -4.883,24.197 -13.588,32.977 -8.705,8.779 -20.531,13.779 -32.91,13.915 -12.378,0.136 -24.312,-4.603 -33.209,-13.188 -8.897,-8.586 -14.041,-20.325 -14.314,-32.67 -0.273,-12.345 4.347,-24.299 12.856,-33.267 8.509,-8.969 20.221,-14.228 32.594,-14.636 12.373,-0.409 24.408,4.067 33.493,12.455 9.085,8.387 14.486,20.011 15.032,32.346"
         fill="#ebf4f8"
         id="path1707-6-8" />
      <path
         d="m 320.032,393.895 c 0,12.348 -4.883,24.197 -13.588,32.977 -8.705,8.779 -20.531,13.779 -32.91,13.915 -12.378,0.136 -24.312,-4.603 -33.209,-13.188 -8.897,-8.586 -14.041,-20.325 -14.314,-32.67 -0.273,-12.345 4.347,-24.299 12.856,-33.267 8.509,-8.969 20.221,-14.228 32.594,-14.636 12.373,-0.409 24.408,4.067 33.493,12.455 9.085,8.387 14.486,20.011 15.032,32.346"
         fill="#ebf4f8"
         id="path1709-5-8" />
      <path
         d="m 463.558,399.69 c 0,9.134 -3.612,17.899 -10.051,24.393 -6.44,6.494 -15.187,10.193 -24.344,10.294 -9.157,0.101 -17.985,-3.405 -24.566,-9.756 -6.582,-6.351 -10.387,-15.035 -10.589,-24.166 -0.201,-9.132 3.216,-17.975 9.51,-24.609 6.295,-6.635 14.958,-10.525 24.111,-10.827 9.152,-0.302 18.055,3.009 24.776,9.213 6.72,6.205 10.716,14.803 11.119,23.928"
         fill="#ebf4f8"
         id="path1711-6-5" />
      <path
         d="m 451.558,350.69 c 0,9.134 -3.612,17.899 -10.051,24.393 -6.44,6.494 -15.187,10.193 -24.344,10.294 -9.157,0.101 -17.985,-3.405 -24.566,-9.756 -6.582,-6.351 -10.387,-15.035 -10.589,-24.166 -0.201,-9.132 3.216,-17.975 9.51,-24.609 6.295,-6.635 14.958,-10.525 24.111,-10.827 9.152,-0.302 18.055,3.009 24.776,9.213 6.72,6.205 10.716,14.803 11.119,23.928"
         fill="#ebf4f8"
         id="path1713-9-0" />
      <path
         d="m 464,434.5 c 0,11.454 -4.517,22.445 -12.572,30.589 -8.054,8.144 -18.995,12.782 -30.448,12.908 -11.453,0.127 -22.494,-4.269 -30.726,-12.233 -8.232,-7.964 -12.991,-18.854 -13.243,-30.305 -0.253,-11.451 4.021,-22.539 11.894,-30.859 7.873,-8.319 18.709,-13.197 30.156,-13.576 11.448,-0.379 22.583,3.772 30.989,11.553 8.405,7.781 13.403,18.562 13.908,30.005"
         fill="#ebf4f8"
         id="path1715-3-9" />
      <path
         d="m 388.138,360.91 c 0,16.664 -6.498,32.654 -18.082,44.502 -11.585,11.847 -27.322,18.595 -43.795,18.778 -16.473,0.184 -32.353,-6.211 -44.193,-17.797 -11.84,-11.586 -18.684,-27.428 -19.048,-44.087 -0.363,-16.659 5.784,-32.791 17.108,-44.894 11.323,-12.102 26.909,-19.2 43.374,-19.751 16.465,-0.551 32.481,5.489 44.571,16.808 12.089,11.319 19.277,27.004 20.004,43.651"
         fill="#ebf4f8"
         id="path1717-7-6" />
      <path
         d="m 388.138,360.91 c 0,16.664 -6.498,32.654 -18.082,44.502 -11.585,11.847 -27.321,18.595 -43.795,18.778 -16.473,0.184 -32.353,-6.211 -44.193,-17.797 -11.84,-11.586 -18.684,-27.428 -19.047,-44.087 -0.364,-16.659 5.784,-32.791 17.107,-44.894 11.324,-12.102 26.909,-19.2 43.374,-19.751 16.465,-0.551 32.481,5.489 44.571,16.808 12.089,11.319 19.278,27.004 20.004,43.651"
         fill="#ebf4f8"
         id="path1719-4-3" />
      <path
         d="m 486.736,305.542 c 0,8.461 -6.569,16.581 -18.28,22.597 -11.712,6.016 -27.621,9.442 -44.275,9.535 -16.653,0.094 -32.707,-3.154 -44.677,-9.037 -11.97,-5.883 -18.889,-13.927 -19.257,-22.387 -0.367,-8.459 5.848,-16.65 17.295,-22.796 11.448,-6.145 27.204,-9.749 43.85,-10.029 16.645,-0.28 32.837,2.787 45.059,8.535 12.222,5.747 19.489,13.712 20.223,22.165"
         fill="#ebf4f8"
         id="path1721-5-8" />
      <path
         d="m 206,374.5 c 0,30.412 -11.839,59.597 -32.947,81.219 -21.108,21.623 -49.781,33.939 -79.796,34.274 C 63.2419,490.328 34.3074,478.656 12.7341,457.51 -8.83927,436.365 -21.3104,407.451 -21.9722,377.047 -22.6341,346.642 -11.4334,317.2 9.19873,295.111 29.8309,273.022 58.2293,260.069 88.2298,259.063 c 30.0002,-1.006 59.1822,10.017 81.2102,30.676 22.028,20.659 35.126,49.286 36.449,79.669"
         fill="#ebf4f8"
         id="path1723-2-5" />
      <path
         d="m 493,478.5 c 0,11.454 -4.517,22.445 -12.572,30.589 -8.054,8.144 -18.995,12.782 -30.448,12.908 -11.453,0.127 -22.494,-4.269 -30.726,-12.233 -8.232,-7.964 -12.991,-18.854 -13.243,-30.305 -0.253,-11.451 4.021,-22.539 11.894,-30.859 7.873,-8.319 18.709,-13.197 30.156,-13.576 11.448,-0.379 22.583,3.772 30.989,11.553 8.405,7.781 13.403,18.562 13.908,30.005"
         fill="#ebf4f8"
         id="path1727-5-6" />
      <path
         d="m 288.132,333.284 c 0,16.663 -6.497,32.653 -18.082,44.501 -11.584,11.847 -27.321,18.595 -43.794,18.779 -16.473,0.183 -32.353,-6.212 -44.193,-17.798 -11.84,-11.586 -18.685,-27.428 -19.048,-44.087 -0.363,-16.659 5.784,-32.79 17.108,-44.893 11.323,-12.103 26.909,-19.2 43.374,-19.751 16.465,-0.551 32.481,5.488 44.57,16.807 12.09,11.319 19.278,27.005 20.005,43.652"
         fill="#ebf4f8"
         id="path1729-4-1" />
      <path
         d="m 283.132,365.284 c 0,16.663 -6.497,32.653 -18.082,44.501 -11.584,11.847 -27.321,18.595 -43.794,18.779 -16.473,0.183 -32.353,-6.212 -44.193,-17.798 -11.84,-11.586 -18.685,-27.428 -19.048,-44.087 -0.363,-16.659 5.784,-32.79 17.108,-44.893 11.323,-12.103 26.909,-19.2 43.374,-19.751 16.465,-0.551 32.481,5.488 44.57,16.807 12.09,11.319 19.278,27.005 20.005,43.652"
         fill="#ebf4f8"
         id="path1731-7-1" />
      <path
         d="m 233,341 c 0,20.011 -7.789,39.215 -21.675,53.443 -13.887,14.228 -32.751,22.332 -52.498,22.552 -19.747,0.221 -38.783,-7.459 -52.976,-21.373 -14.1926,-13.915 -22.3973,-32.94 -22.8327,-52.946 -0.4355,-20.007 6.9334,-39.38 20.5067,-53.914 13.574,-14.535 32.257,-23.059 51.995,-23.72 19.737,-0.662 38.935,6.591 53.427,20.185 14.493,13.593 23.109,32.43 23.98,52.422"
         fill="#ebf4f8"
         id="path1733-4-5" />
      <path
         d="m 533.827,214.04 c -0.65,-0.773 -1.377,-1.477 -2.17,-2.101 -17.673,-13.923 -64.799,13.687 -64.799,13.687 l -3.076,-5.327 c 0,0 19.331,-13.397 44.071,-37.427 22.253,-21.628 61.198,-8.102 68.793,-5.174 0.849,0.333 1.308,0.524 1.308,0.524 5.709,32.974 -44.127,35.818 -44.127,35.818 z"
         fill="#afc0e0"
         id="path1735-4-9"
         style="filter:url(#filter3_dd-8-4)" />
      <path
         opacity="0.2"
         d="m 578.275,180.676 c -0.074,-0.794 -0.172,-1.6 -0.318,-2.433 0,0 -0.455,-0.185 -1.309,-0.524 -7.594,-2.928 -46.539,-16.454 -68.792,5.174 -24.74,24.03 -44.074,37.406 -44.074,37.406 l 1.73,2.996 c 0,0 19.34,-13.38 44.07,-37.427 22.148,-21.532 60.855,-8.217 68.693,-5.192 z"
         fill="#ffffff"
         id="path1737-3-8"
         style="filter:url(#filter3_dd-8-4)" />
      <path
         d="m 579.652,307.248 c -33.19,9.394 -54.435,19.459 -54.435,19.459 l -3.082,-5.337 c 0,0 49.628,-28.205 43.965,-50.757 -0.116,-0.492 -0.263,-0.977 -0.439,-1.451 0,0 27.374,-41.747 53.076,-20.302 0,0 -0.046,0.393 -0.159,1.12 -1.124,7.372 -8.724,48.71 -38.926,57.268 z"
         fill="#afc0e0"
         id="path1739-0-4"
         style="filter:url(#filter3_dd-8-4)" />
      <path
         opacity="0.1"
         d="m 533.827,214.04 c -0.65,-0.773 -1.378,-1.477 -2.171,-2.102 14.122,-12.515 29.158,-23.959 44.982,-34.236 0.85,0.333 1.309,0.524 1.309,0.524 5.715,32.97 -44.12,35.814 -44.12,35.814 z"
         fill="#000000"
         id="path1741-7-8"
         style="filter:url(#filter3_dd-8-4)" />
      <path
         opacity="0.1"
         d="m 618.578,249.994 c -16.912,8.285 -34.466,15.188 -52.492,20.641 -0.116,-0.492 -0.263,-0.977 -0.439,-1.451 0,0 27.375,-41.747 53.076,-20.302 0.008,-0.018 -0.038,0.375 -0.145,1.112 z"
         fill="#000000"
         id="path1743-8-1"
         style="filter:url(#filter3_dd-8-4)" />
      <path
         d="m 557.513,271.97 c -8.496,2.401 -17.371,4.589 -26.625,6.565 0,0 -19.4,-4.776 -23.628,-40.926 0,0 6.482,-7.598 18.504,-18.779 26.428,-24.593 79.645,-66.514 149.616,-83.058 21.005,-5.024 42.561,-7.373 64.155,-6.992 0,0 -8.724,25.415 -35.833,56.024 -27.11,30.609 -72.62,66.403 -146.189,87.166 z"
         fill="#e3e8f4"
         id="path1745-6-0"
         style="filter:url(#filter3_dd-8-4)" />
      <path
         d="m 618.419,201.95 c 7.662,13.271 24.631,17.817 37.902,10.156 13.271,-7.662 17.818,-24.632 10.156,-37.903 -7.662,-13.271 -24.632,-17.818 -37.902,-10.156 -13.271,7.662 -17.818,24.632 -10.156,37.903 z"
         fill="#afc0e0"
         id="path1747-8-3"
         style="filter:url(#filter3_dd-8-4)" />
      <path
         d="m 652.274,205.126 c -3.228,1.863 -6.917,2.771 -10.641,2.619 -3.723,-0.152 -7.326,-1.357 -10.391,-3.477 -3.065,-2.12 -5.465,-5.066 -6.921,-8.496 -1.456,-3.43 -1.908,-7.203 -1.303,-10.88 0.3,-1.798 0.845,-3.545 1.621,-5.194 0.346,-0.739 0.738,-1.455 1.173,-2.145 1.702,-2.686 4.03,-4.919 6.786,-6.507 0.137,-0.079 0.271,-0.157 0.406,-0.234 3.694,-2.017 7.938,-2.797 12.108,-2.227 4.171,0.571 8.049,2.462 11.066,5.396 1.142,1.127 2.148,2.384 2.995,3.746 l 0.294,0.51 c 1.294,2.238 2.134,4.708 2.473,7.271 0.338,2.562 0.169,5.167 -0.499,7.664 -0.668,2.496 -1.822,4.837 -3.395,6.888 -1.573,2.052 -3.534,3.773 -5.772,5.066 z"
         fill="#1d8fe9"
         id="path1749-8-0"
         style="filter:url(#filter3_dd-8-4)" />
      <path
         d="m 703.7,184.801 c -28.793,-19.727 -28.32,-49.051 -28.32,-49.051 21.007,-5.017 42.562,-7.359 64.156,-6.97 0,0 -8.724,25.415 -35.836,56.021 z"
         fill="#afc0e0"
         id="path1751-4-4"
         style="filter:url(#filter3_dd-8-4)" />
      <path
         d="m 557.513,271.97 c -5.754,1.623 -11.679,3.15 -17.774,4.581 -2.904,0.687 -5.852,1.345 -8.843,1.975 0,0 -19.401,-4.776 -23.629,-40.927 0,0 2.105,-2.467 6.132,-6.671 3.049,-3.164 7.192,-7.305 12.367,-12.118 0,0 1.621,13.431 10.451,28.724 5.423,9.467 12.659,17.771 21.296,24.436 z"
         fill="#afc0e0"
         id="path1753-3-4"
         style="filter:url(#filter3_dd-8-4)" />
      <path
         d="m 539.74,276.551 c -2.904,0.687 -5.852,1.345 -8.843,1.975 0,0 -19.401,-4.776 -23.629,-40.926 0,0 2.104,-2.468 6.132,-6.672 -0.002,-0.003 8.543,34.398 26.34,45.623 z"
         fill="#e3e8f4"
         id="path1755-1-4"
         style="filter:url(#filter3_dd-8-4)" />
      <path
         opacity="0.2"
         d="m 511.004,244.079 c 0,0 6.486,-7.6 18.504,-18.779 26.432,-24.595 79.649,-66.515 149.62,-83.059 18.914,-4.508 38.278,-6.858 57.722,-7.004 1.872,-4.109 2.676,-6.465 2.676,-6.465 -21.59,-0.386 -43.143,1.959 -64.146,6.978 -69.971,16.544 -123.188,58.464 -149.619,83.059 -12.019,11.179 -18.504,18.779 -18.504,18.779 1.674,14.281 5.714,23.663 9.986,29.793 -2.761,-5.75 -5.069,-13.336 -6.239,-23.302 z"
         fill="#ffffff"
         id="path1757-4-4"
         style="filter:url(#filter3_dd-8-4)" />
    </g>
  </g>
</svg>
