<?xml version="1.0" encoding="UTF-8" standalone="no"?>
<!-- Created with Inkscape (http://www.inkscape.org/) -->

<svg
   width="143.19466mm"
   height="95.867386mm"
   viewBox="0 0 143.19466 95.867386"
   version="1.1"
   id="svg2372"
   inkscape:version="1.1 (c4e8f9ed74, 2021-05-24)"
   sodipodi:docname="rocketmobile.svg"
   xmlns:inkscape="http://www.inkscape.org/namespaces/inkscape"
   xmlns:sodipodi="http://sodipodi.sourceforge.net/DTD/sodipodi-0.dtd"
   xmlns="http://www.w3.org/2000/svg"
   xmlns:svg="http://www.w3.org/2000/svg">
  <sodipodi:namedview
     id="namedview2374"
     pagecolor="#ffffff"
     bordercolor="#999999"
     borderopacity="1"
     inkscape:pageshadow="0"
     inkscape:pageopacity="0"
     inkscape:pagecheckerboard="0"
     inkscape:document-units="mm"
     showgrid="false"
     showguides="false"
     inkscape:zoom="0.47433592"
     inkscape:cx="536.53959"
     inkscape:cy="352.07117"
     inkscape:window-width="1898"
     inkscape:window-height="1034"
     inkscape:window-x="8"
     inkscape:window-y="32"
     inkscape:window-maximized="0"
     inkscape:current-layer="layer1" />
  <defs
     id="defs2369">
    <clipPath
       clipPathUnits="userSpaceOnUse"
       id="clipPath2102-3-9">
      <rect
         style="fill:#000000;stroke:none;stroke-width:7.55906;stroke-linecap:square;stop-color:#000000"
         id="rect2104-5-2"
         width="1858.3727"
         height="623.21893"
         x="81.00631"
         y="61.308746"
         inkscape:export-filename="/home/praty/Documents/design/osdg/projbg.png"
         inkscape:export-xdpi="78.867958"
         inkscape:export-ydpi="78.867958" />
    </clipPath>
    <filter
       id="filter0_i-6-0"
       x="-581"
       y="-14"
       width="2571"
       height="665"
       filterUnits="userSpaceOnUse"
       color-interpolation-filters="sRGB">
      <feFlood
         flood-opacity="0"
         result="BackgroundImageFix"
         id="feFlood1765-2-6" />
      <feBlend
         mode="normal"
         in="SourceGraphic"
         in2="BackgroundImageFix"
         result="shape"
         id="feBlend1767-9-8" />
      <feColorMatrix
         in="SourceAlpha"
         type="matrix"
         values="0 0 0 0 0 0 0 0 0 0 0 0 0 0 0 0 0 0 127 0"
         result="hardAlpha"
         id="feColorMatrix1769-1-9" />
      <feOffset
         dy="4"
         id="feOffset1771-2-2" />
      <feGaussianBlur
         stdDeviation="25"
         id="feGaussianBlur1773-7-6" />
      <feComposite
         in2="hardAlpha"
         operator="arithmetic"
         k2="-1"
         k3="1"
         id="feComposite1775-0-6"
         k1="0"
         k4="0" />
      <feColorMatrix
         type="matrix"
         values="0 0 0 0 0 0 0 0 0 0 0 0 0 0 0 0 0 0 0.25 0"
         id="feColorMatrix1777-9-4" />
      <feBlend
         mode="normal"
         in2="shape"
         result="effect1_innerShadow"
         id="feBlend1779-3-9" />
    </filter>
    <filter
       id="filter1_i-6-5"
       x="221"
       y="-104"
       width="1824"
       height="622"
       filterUnits="userSpaceOnUse"
       color-interpolation-filters="sRGB">
      <feFlood
         flood-opacity="0"
         result="BackgroundImageFix"
         id="feFlood1782-0-0" />
      <feBlend
         mode="normal"
         in="SourceGraphic"
         in2="BackgroundImageFix"
         result="shape"
         id="feBlend1784-6-4" />
      <feColorMatrix
         in="SourceAlpha"
         type="matrix"
         values="0 0 0 0 0 0 0 0 0 0 0 0 0 0 0 0 0 0 127 0"
         result="hardAlpha"
         id="feColorMatrix1786-2-8" />
      <feOffset
         dy="4"
         id="feOffset1788-6-7" />
      <feGaussianBlur
         stdDeviation="20"
         id="feGaussianBlur1790-1-1" />
      <feComposite
         in2="hardAlpha"
         operator="arithmetic"
         k2="-1"
         k3="1"
         id="feComposite1792-8-7"
         k1="0"
         k4="0" />
      <feColorMatrix
         type="matrix"
         values="0 0 0 0 0 0 0 0 0 0 0 0 0 0 0 0 0 0 0.25 0"
         id="feColorMatrix1794-7-2" />
      <feBlend
         mode="normal"
         in2="shape"
         result="effect1_innerShadow"
         id="feBlend1796-9-7" />
    </filter>
    <filter
       id="filter2_i-2-2"
       x="863"
       y="-155"
       width="1167"
       height="490"
       filterUnits="userSpaceOnUse"
       color-interpolation-filters="sRGB">
      <feFlood
         flood-opacity="0"
         result="BackgroundImageFix"
         id="feFlood1799-0-2" />
      <feBlend
         mode="normal"
         in="SourceGraphic"
         in2="BackgroundImageFix"
         result="shape"
         id="feBlend1801-2-6" />
      <feColorMatrix
         in="SourceAlpha"
         type="matrix"
         values="0 0 0 0 0 0 0 0 0 0 0 0 0 0 0 0 0 0 127 0"
         result="hardAlpha"
         id="feColorMatrix1803-3-1" />
      <feOffset
         dy="4"
         id="feOffset1805-7-0" />
      <feGaussianBlur
         stdDeviation="15"
         id="feGaussianBlur1807-5-6" />
      <feComposite
         in2="hardAlpha"
         operator="arithmetic"
         k2="-1"
         k3="1"
         id="feComposite1809-9-1"
         k1="0"
         k4="0" />
      <feColorMatrix
         type="matrix"
         values="0 0 0 0 0 0 0 0 0 0 0 0 0 0 0 0 0 0 1 0"
         id="feColorMatrix1811-2-5" />
      <feBlend
         mode="normal"
         in2="shape"
         result="effect1_innerShadow"
         id="feBlend1813-2-9" />
    </filter>
    <filter
       id="filter3_dd-8-4"
       x="439.78201"
       y="120.731"
       width="323.754"
       height="245.976"
       filterUnits="userSpaceOnUse"
       color-interpolation-filters="sRGB">
      <feFlood
         flood-opacity="0"
         result="BackgroundImageFix"
         id="feFlood1816-9-9" />
      <feColorMatrix
         in="SourceAlpha"
         type="matrix"
         values="0 0 0 0 0 0 0 0 0 0 0 0 0 0 0 0 0 0 127 0"
         result="hardAlpha"
         id="feColorMatrix1818-7-0" />
      <feOffset
         dy="16"
         id="feOffset1820-3-9" />
      <feGaussianBlur
         stdDeviation="12"
         id="feGaussianBlur1822-6-1" />
      <feColorMatrix
         type="matrix"
         values="0 0 0 0 0.0862745 0 0 0 0 0.133333 0 0 0 0 0.2 0 0 0 0.16 0"
         id="feColorMatrix1824-1-7" />
      <feBlend
         mode="normal"
         in2="BackgroundImageFix"
         result="effect1_dropShadow"
         id="feBlend1826-2-7" />
      <feColorMatrix
         in="SourceAlpha"
         type="matrix"
         values="0 0 0 0 0 0 0 0 0 0 0 0 0 0 0 0 0 0 127 0"
         result="hardAlpha"
         id="feColorMatrix1828-9-1" />
      <feOffset
         dy="1"
         id="feOffset1830-3-1" />
      <feGaussianBlur
         stdDeviation="4"
         id="feGaussianBlur1832-1-5" />
      <feColorMatrix
         type="matrix"
         values="0 0 0 0 0.0862745 0 0 0 0 0.133333 0 0 0 0 0.2 0 0 0 0.1 0"
         id="feColorMatrix1834-9-9" />
      <feBlend
         mode="normal"
         in2="effect1_dropShadow"
         result="effect2_dropShadow"
         id="feBlend1836-4-7" />
      <feBlend
         mode="normal"
         in="SourceGraphic"
         in2="effect2_dropShadow"
         result="shape"
         id="feBlend1838-7-7" />
    </filter>
    <filter
       id="filter2448"
       x="439.78201"
       y="120.731"
       width="323.754"
       height="245.976"
       filterUnits="userSpaceOnUse"
       color-interpolation-filters="sRGB">
      <feFlood
         flood-opacity="0"
         result="BackgroundImageFix"
         id="feFlood2424" />
      <feColorMatrix
         in="SourceAlpha"
         type="matrix"
         values="0 0 0 0 0 0 0 0 0 0 0 0 0 0 0 0 0 0 127 0"
         result="hardAlpha"
         id="feColorMatrix2426" />
      <feOffset
         dy="16"
         id="feOffset2428" />
      <feGaussianBlur
         stdDeviation="12"
         id="feGaussianBlur2430" />
      <feColorMatrix
         type="matrix"
         values="0 0 0 0 0.0862745 0 0 0 0 0.133333 0 0 0 0 0.2 0 0 0 0.16 0"
         id="feColorMatrix2432" />
      <feBlend
         mode="normal"
         in2="BackgroundImageFix"
         result="effect1_dropShadow"
         id="feBlend2434" />
      <feColorMatrix
         in="SourceAlpha"
         type="matrix"
         values="0 0 0 0 0 0 0 0 0 0 0 0 0 0 0 0 0 0 127 0"
         result="hardAlpha"
         id="feColorMatrix2436" />
      <feOffset
         dy="1"
         id="feOffset2438" />
      <feGaussianBlur
         stdDeviation="4"
         id="feGaussianBlur2440" />
      <feColorMatrix
         type="matrix"
         values="0 0 0 0 0.0862745 0 0 0 0 0.133333 0 0 0 0 0.2 0 0 0 0.1 0"
         id="feColorMatrix2442" />
      <feBlend
         mode="normal"
         in2="effect1_dropShadow"
         result="effect2_dropShadow"
         id="feBlend2444" />
      <feBlend
         mode="normal"
         in="SourceGraphic"
         in2="effect2_dropShadow"
         result="shape"
         id="feBlend2446" />
    </filter>
    <filter
       id="filter2474"
       x="439.78201"
       y="120.731"
       width="323.754"
       height="245.976"
       filterUnits="userSpaceOnUse"
       color-interpolation-filters="sRGB">
      <feFlood
         flood-opacity="0"
         result="BackgroundImageFix"
         id="feFlood2450" />
      <feColorMatrix
         in="SourceAlpha"
         type="matrix"
         values="0 0 0 0 0 0 0 0 0 0 0 0 0 0 0 0 0 0 127 0"
         result="hardAlpha"
         id="feColorMatrix2452" />
      <feOffset
         dy="16"
         id="feOffset2454" />
      <feGaussianBlur
         stdDeviation="12"
         id="feGaussianBlur2456" />
      <feColorMatrix
         type="matrix"
         values="0 0 0 0 0.0862745 0 0 0 0 0.133333 0 0 0 0 0.2 0 0 0 0.16 0"
         id="feColorMatrix2458" />
      <feBlend
         mode="normal"
         in2="BackgroundImageFix"
         result="effect1_dropShadow"
         id="feBlend2460" />
      <feColorMatrix
         in="SourceAlpha"
         type="matrix"
         values="0 0 0 0 0 0 0 0 0 0 0 0 0 0 0 0 0 0 127 0"
         result="hardAlpha"
         id="feColorMatrix2462" />
      <feOffset
         dy="1"
         id="feOffset2464" />
      <feGaussianBlur
         stdDeviation="4"
         id="feGaussianBlur2466" />
      <feColorMatrix
         type="matrix"
         values="0 0 0 0 0.0862745 0 0 0 0 0.133333 0 0 0 0 0.2 0 0 0 0.1 0"
         id="feColorMatrix2468" />
      <feBlend
         mode="normal"
         in2="effect1_dropShadow"
         result="effect2_dropShadow"
         id="feBlend2470" />
      <feBlend
         mode="normal"
         in="SourceGraphic"
         in2="effect2_dropShadow"
         result="shape"
         id="feBlend2472" />
    </filter>
    <filter
       id="filter2500"
       x="439.78201"
       y="120.731"
       width="323.754"
       height="245.976"
       filterUnits="userSpaceOnUse"
       color-interpolation-filters="sRGB">
      <feFlood
         flood-opacity="0"
         result="BackgroundImageFix"
         id="feFlood2476" />
      <feColorMatrix
         in="SourceAlpha"
         type="matrix"
         values="0 0 0 0 0 0 0 0 0 0 0 0 0 0 0 0 0 0 127 0"
         result="hardAlpha"
         id="feColorMatrix2478" />
      <feOffset
         dy="16"
         id="feOffset2480" />
      <feGaussianBlur
         stdDeviation="12"
         id="feGaussianBlur2482" />
      <feColorMatrix
         type="matrix"
         values="0 0 0 0 0.0862745 0 0 0 0 0.133333 0 0 0 0 0.2 0 0 0 0.16 0"
         id="feColorMatrix2484" />
      <feBlend
         mode="normal"
         in2="BackgroundImageFix"
         result="effect1_dropShadow"
         id="feBlend2486" />
      <feColorMatrix
         in="SourceAlpha"
         type="matrix"
         values="0 0 0 0 0 0 0 0 0 0 0 0 0 0 0 0 0 0 127 0"
         result="hardAlpha"
         id="feColorMatrix2488" />
      <feOffset
         dy="1"
         id="feOffset2490" />
      <feGaussianBlur
         stdDeviation="4"
         id="feGaussianBlur2492" />
      <feColorMatrix
         type="matrix"
         values="0 0 0 0 0.0862745 0 0 0 0 0.133333 0 0 0 0 0.2 0 0 0 0.1 0"
         id="feColorMatrix2494" />
      <feBlend
         mode="normal"
         in2="effect1_dropShadow"
         result="effect2_dropShadow"
         id="feBlend2496" />
      <feBlend
         mode="normal"
         in="SourceGraphic"
         in2="effect2_dropShadow"
         result="shape"
         id="feBlend2498" />
    </filter>
    <filter
       id="filter2526"
       x="439.78201"
       y="120.731"
       width="323.754"
       height="245.976"
       filterUnits="userSpaceOnUse"
       color-interpolation-filters="sRGB">
      <feFlood
         flood-opacity="0"
         result="BackgroundImageFix"
         id="feFlood2502" />
      <feColorMatrix
         in="SourceAlpha"
         type="matrix"
         values="0 0 0 0 0 0 0 0 0 0 0 0 0 0 0 0 0 0 127 0"
         result="hardAlpha"
         id="feColorMatrix2504" />
      <feOffset
         dy="16"
         id="feOffset2506" />
      <feGaussianBlur
         stdDeviation="12"
         id="feGaussianBlur2508" />
      <feColorMatrix
         type="matrix"
         values="0 0 0 0 0.0862745 0 0 0 0 0.133333 0 0 0 0 0.2 0 0 0 0.16 0"
         id="feColorMatrix2510" />
      <feBlend
         mode="normal"
         in2="BackgroundImageFix"
         result="effect1_dropShadow"
         id="feBlend2512" />
      <feColorMatrix
         in="SourceAlpha"
         type="matrix"
         values="0 0 0 0 0 0 0 0 0 0 0 0 0 0 0 0 0 0 127 0"
         result="hardAlpha"
         id="feColorMatrix2514" />
      <feOffset
         dy="1"
         id="feOffset2516" />
      <feGaussianBlur
         stdDeviation="4"
         id="feGaussianBlur2518" />
      <feColorMatrix
         type="matrix"
         values="0 0 0 0 0.0862745 0 0 0 0 0.133333 0 0 0 0 0.2 0 0 0 0.1 0"
         id="feColorMatrix2520" />
      <feBlend
         mode="normal"
         in2="effect1_dropShadow"
         result="effect2_dropShadow"
         id="feBlend2522" />
      <feBlend
         mode="normal"
         in="SourceGraphic"
         in2="effect2_dropShadow"
         result="shape"
         id="feBlend2524" />
    </filter>
    <filter
       id="filter2552"
       x="439.78201"
       y="120.731"
       width="323.754"
       height="245.976"
       filterUnits="userSpaceOnUse"
       color-interpolation-filters="sRGB">
      <feFlood
         flood-opacity="0"
         result="BackgroundImageFix"
         id="feFlood2528" />
      <feColorMatrix
         in="SourceAlpha"
         type="matrix"
         values="0 0 0 0 0 0 0 0 0 0 0 0 0 0 0 0 0 0 127 0"
         result="hardAlpha"
         id="feColorMatrix2530" />
      <feOffset
         dy="16"
         id="feOffset2532" />
      <feGaussianBlur
         stdDeviation="12"
         id="feGaussianBlur2534" />
      <feColorMatrix
         type="matrix"
         values="0 0 0 0 0.0862745 0 0 0 0 0.133333 0 0 0 0 0.2 0 0 0 0.16 0"
         id="feColorMatrix2536" />
      <feBlend
         mode="normal"
         in2="BackgroundImageFix"
         result="effect1_dropShadow"
         id="feBlend2538" />
      <feColorMatrix
         in="SourceAlpha"
         type="matrix"
         values="0 0 0 0 0 0 0 0 0 0 0 0 0 0 0 0 0 0 127 0"
         result="hardAlpha"
         id="feColorMatrix2540" />
      <feOffset
         dy="1"
         id="feOffset2542" />
      <feGaussianBlur
         stdDeviation="4"
         id="feGaussianBlur2544" />
      <feColorMatrix
         type="matrix"
         values="0 0 0 0 0.0862745 0 0 0 0 0.133333 0 0 0 0 0.2 0 0 0 0.1 0"
         id="feColorMatrix2546" />
      <feBlend
         mode="normal"
         in2="effect1_dropShadow"
         result="effect2_dropShadow"
         id="feBlend2548" />
      <feBlend
         mode="normal"
         in="SourceGraphic"
         in2="effect2_dropShadow"
         result="shape"
         id="feBlend2550" />
    </filter>
    <filter
       id="filter2578"
       x="439.78201"
       y="120.731"
       width="323.754"
       height="245.976"
       filterUnits="userSpaceOnUse"
       color-interpolation-filters="sRGB">
      <feFlood
         flood-opacity="0"
         result="BackgroundImageFix"
         id="feFlood2554" />
      <feColorMatrix
         in="SourceAlpha"
         type="matrix"
         values="0 0 0 0 0 0 0 0 0 0 0 0 0 0 0 0 0 0 127 0"
         result="hardAlpha"
         id="feColorMatrix2556" />
      <feOffset
         dy="16"
         id="feOffset2558" />
      <feGaussianBlur
         stdDeviation="12"
         id="feGaussianBlur2560" />
      <feColorMatrix
         type="matrix"
         values="0 0 0 0 0.0862745 0 0 0 0 0.133333 0 0 0 0 0.2 0 0 0 0.16 0"
         id="feColorMatrix2562" />
      <feBlend
         mode="normal"
         in2="BackgroundImageFix"
         result="effect1_dropShadow"
         id="feBlend2564" />
      <feColorMatrix
         in="SourceAlpha"
         type="matrix"
         values="0 0 0 0 0 0 0 0 0 0 0 0 0 0 0 0 0 0 127 0"
         result="hardAlpha"
         id="feColorMatrix2566" />
      <feOffset
         dy="1"
         id="feOffset2568" />
      <feGaussianBlur
         stdDeviation="4"
         id="feGaussianBlur2570" />
      <feColorMatrix
         type="matrix"
         values="0 0 0 0 0.0862745 0 0 0 0 0.133333 0 0 0 0 0.2 0 0 0 0.1 0"
         id="feColorMatrix2572" />
      <feBlend
         mode="normal"
         in2="effect1_dropShadow"
         result="effect2_dropShadow"
         id="feBlend2574" />
      <feBlend
         mode="normal"
         in="SourceGraphic"
         in2="effect2_dropShadow"
         result="shape"
         id="feBlend2576" />
    </filter>
    <filter
       id="filter2604"
       x="439.78201"
       y="120.731"
       width="323.754"
       height="245.976"
       filterUnits="userSpaceOnUse"
       color-interpolation-filters="sRGB">
      <feFlood
         flood-opacity="0"
         result="BackgroundImageFix"
         id="feFlood2580" />
      <feColorMatrix
         in="SourceAlpha"
         type="matrix"
         values="0 0 0 0 0 0 0 0 0 0 0 0 0 0 0 0 0 0 127 0"
         result="hardAlpha"
         id="feColorMatrix2582" />
      <feOffset
         dy="16"
         id="feOffset2584" />
      <feGaussianBlur
         stdDeviation="12"
         id="feGaussianBlur2586" />
      <feColorMatrix
         type="matrix"
         values="0 0 0 0 0.0862745 0 0 0 0 0.133333 0 0 0 0 0.2 0 0 0 0.16 0"
         id="feColorMatrix2588" />
      <feBlend
         mode="normal"
         in2="BackgroundImageFix"
         result="effect1_dropShadow"
         id="feBlend2590" />
      <feColorMatrix
         in="SourceAlpha"
         type="matrix"
         values="0 0 0 0 0 0 0 0 0 0 0 0 0 0 0 0 0 0 127 0"
         result="hardAlpha"
         id="feColorMatrix2592" />
      <feOffset
         dy="1"
         id="feOffset2594" />
      <feGaussianBlur
         stdDeviation="4"
         id="feGaussianBlur2596" />
      <feColorMatrix
         type="matrix"
         values="0 0 0 0 0.0862745 0 0 0 0 0.133333 0 0 0 0 0.2 0 0 0 0.1 0"
         id="feColorMatrix2598" />
      <feBlend
         mode="normal"
         in2="effect1_dropShadow"
         result="effect2_dropShadow"
         id="feBlend2600" />
      <feBlend
         mode="normal"
         in="SourceGraphic"
         in2="effect2_dropShadow"
         result="shape"
         id="feBlend2602" />
    </filter>
    <filter
       id="filter2630"
       x="439.78201"
       y="120.731"
       width="323.754"
       height="245.976"
       filterUnits="userSpaceOnUse"
       color-interpolation-filters="sRGB">
      <feFlood
         flood-opacity="0"
         result="BackgroundImageFix"
         id="feFlood2606" />
      <feColorMatrix
         in="SourceAlpha"
         type="matrix"
         values="0 0 0 0 0 0 0 0 0 0 0 0 0 0 0 0 0 0 127 0"
         result="hardAlpha"
         id="feColorMatrix2608" />
      <feOffset
         dy="16"
         id="feOffset2610" />
      <feGaussianBlur
         stdDeviation="12"
         id="feGaussianBlur2612" />
      <feColorMatrix
         type="matrix"
         values="0 0 0 0 0.0862745 0 0 0 0 0.133333 0 0 0 0 0.2 0 0 0 0.16 0"
         id="feColorMatrix2614" />
      <feBlend
         mode="normal"
         in2="BackgroundImageFix"
         result="effect1_dropShadow"
         id="feBlend2616" />
      <feColorMatrix
         in="SourceAlpha"
         type="matrix"
         values="0 0 0 0 0 0 0 0 0 0 0 0 0 0 0 0 0 0 127 0"
         result="hardAlpha"
         id="feColorMatrix2618" />
      <feOffset
         dy="1"
         id="feOffset2620" />
      <feGaussianBlur
         stdDeviation="4"
         id="feGaussianBlur2622" />
      <feColorMatrix
         type="matrix"
         values="0 0 0 0 0.0862745 0 0 0 0 0.133333 0 0 0 0 0.2 0 0 0 0.1 0"
         id="feColorMatrix2624" />
      <feBlend
         mode="normal"
         in2="effect1_dropShadow"
         result="effect2_dropShadow"
         id="feBlend2626" />
      <feBlend
         mode="normal"
         in="SourceGraphic"
         in2="effect2_dropShadow"
         result="shape"
         id="feBlend2628" />
    </filter>
    <filter
       id="filter2656"
       x="439.78201"
       y="120.731"
       width="323.754"
       height="245.976"
       filterUnits="userSpaceOnUse"
       color-interpolation-filters="sRGB">
      <feFlood
         flood-opacity="0"
         result="BackgroundImageFix"
         id="feFlood2632" />
      <feColorMatrix
         in="SourceAlpha"
         type="matrix"
         values="0 0 0 0 0 0 0 0 0 0 0 0 0 0 0 0 0 0 127 0"
         result="hardAlpha"
         id="feColorMatrix2634" />
      <feOffset
         dy="16"
         id="feOffset2636" />
      <feGaussianBlur
         stdDeviation="12"
         id="feGaussianBlur2638" />
      <feColorMatrix
         type="matrix"
         values="0 0 0 0 0.0862745 0 0 0 0 0.133333 0 0 0 0 0.2 0 0 0 0.16 0"
         id="feColorMatrix2640" />
      <feBlend
         mode="normal"
         in2="BackgroundImageFix"
         result="effect1_dropShadow"
         id="feBlend2642" />
      <feColorMatrix
         in="SourceAlpha"
         type="matrix"
         values="0 0 0 0 0 0 0 0 0 0 0 0 0 0 0 0 0 0 127 0"
         result="hardAlpha"
         id="feColorMatrix2644" />
      <feOffset
         dy="1"
         id="feOffset2646" />
      <feGaussianBlur
         stdDeviation="4"
         id="feGaussianBlur2648" />
      <feColorMatrix
         type="matrix"
         values="0 0 0 0 0.0862745 0 0 0 0 0.133333 0 0 0 0 0.2 0 0 0 0.1 0"
         id="feColorMatrix2650" />
      <feBlend
         mode="normal"
         in2="effect1_dropShadow"
         result="effect2_dropShadow"
         id="feBlend2652" />
      <feBlend
         mode="normal"
         in="SourceGraphic"
         in2="effect2_dropShadow"
         result="shape"
         id="feBlend2654" />
    </filter>
    <filter
       id="filter2682"
       x="439.78201"
       y="120.731"
       width="323.754"
       height="245.976"
       filterUnits="userSpaceOnUse"
       color-interpolation-filters="sRGB">
      <feFlood
         flood-opacity="0"
         result="BackgroundImageFix"
         id="feFlood2658" />
      <feColorMatrix
         in="SourceAlpha"
         type="matrix"
         values="0 0 0 0 0 0 0 0 0 0 0 0 0 0 0 0 0 0 127 0"
         result="hardAlpha"
         id="feColorMatrix2660" />
      <feOffset
         dy="16"
         id="feOffset2662" />
      <feGaussianBlur
         stdDeviation="12"
         id="feGaussianBlur2664" />
      <feColorMatrix
         type="matrix"
         values="0 0 0 0 0.0862745 0 0 0 0 0.133333 0 0 0 0 0.2 0 0 0 0.16 0"
         id="feColorMatrix2666" />
      <feBlend
         mode="normal"
         in2="BackgroundImageFix"
         result="effect1_dropShadow"
         id="feBlend2668" />
      <feColorMatrix
         in="SourceAlpha"
         type="matrix"
         values="0 0 0 0 0 0 0 0 0 0 0 0 0 0 0 0 0 0 127 0"
         result="hardAlpha"
         id="feColorMatrix2670" />
      <feOffset
         dy="1"
         id="feOffset2672" />
      <feGaussianBlur
         stdDeviation="4"
         id="feGaussianBlur2674" />
      <feColorMatrix
         type="matrix"
         values="0 0 0 0 0.0862745 0 0 0 0 0.133333 0 0 0 0 0.2 0 0 0 0.1 0"
         id="feColorMatrix2676" />
      <feBlend
         mode="normal"
         in2="effect1_dropShadow"
         result="effect2_dropShadow"
         id="feBlend2678" />
      <feBlend
         mode="normal"
         in="SourceGraphic"
         in2="effect2_dropShadow"
         result="shape"
         id="feBlend2680" />
    </filter>
    <filter
       id="filter2708"
       x="439.78201"
       y="120.731"
       width="323.754"
       height="245.976"
       filterUnits="userSpaceOnUse"
       color-interpolation-filters="sRGB">
      <feFlood
         flood-opacity="0"
         result="BackgroundImageFix"
         id="feFlood2684" />
      <feColorMatrix
         in="SourceAlpha"
         type="matrix"
         values="0 0 0 0 0 0 0 0 0 0 0 0 0 0 0 0 0 0 127 0"
         result="hardAlpha"
         id="feColorMatrix2686" />
      <feOffset
         dy="16"
         id="feOffset2688" />
      <feGaussianBlur
         stdDeviation="12"
         id="feGaussianBlur2690" />
      <feColorMatrix
         type="matrix"
         values="0 0 0 0 0.0862745 0 0 0 0 0.133333 0 0 0 0 0.2 0 0 0 0.16 0"
         id="feColorMatrix2692" />
      <feBlend
         mode="normal"
         in2="BackgroundImageFix"
         result="effect1_dropShadow"
         id="feBlend2694" />
      <feColorMatrix
         in="SourceAlpha"
         type="matrix"
         values="0 0 0 0 0 0 0 0 0 0 0 0 0 0 0 0 0 0 127 0"
         result="hardAlpha"
         id="feColorMatrix2696" />
      <feOffset
         dy="1"
         id="feOffset2698" />
      <feGaussianBlur
         stdDeviation="4"
         id="feGaussianBlur2700" />
      <feColorMatrix
         type="matrix"
         values="0 0 0 0 0.0862745 0 0 0 0 0.133333 0 0 0 0 0.2 0 0 0 0.1 0"
         id="feColorMatrix2702" />
      <feBlend
         mode="normal"
         in2="effect1_dropShadow"
         result="effect2_dropShadow"
         id="feBlend2704" />
      <feBlend
         mode="normal"
         in="SourceGraphic"
         in2="effect2_dropShadow"
         result="shape"
         id="feBlend2706" />
    </filter>
    <clipPath
       clipPathUnits="userSpaceOnUse"
       id="clipPath4374">
      <rect
         style="fill:#000000;stroke-width:12.0091;stroke-linecap:square;stop-color:#000000"
         id="rect4376"
         width="859.81891"
         height="1153.5991"
         x="623.92255"
         y="-57.640163" />
    </clipPath>
  </defs>
  <g
     inkscape:label="Layer 1"
     inkscape:groupmode="layer"
     id="layer1"
     transform="translate(-41.177549,-10.32347)">
    <path
       d="m 301.26,17.2118 c 51.019,35.4421 28.863,74.4297 22.958,116.4662 -5.904,42.036 4.441,87.119 37.999,124.562 33.558,37.444 90.324,67.245 175.77,89.019 85.447,21.773 199.568,35.519 297.245,42.165 97.677,6.646 178.908,6.194 272.998,29.2 94.09,23.006 201.04,69.467 317,86.837 115.97,17.369 240.95,5.648 330.06,-12.045 89.11,-17.693 142.34,-41.356 198.89,-128.71 56.55,-87.354 116.42,-238.393 79.37,-330.5935 -37.05,-92.2003 -171.02,-125.5569 -525.79,-135.1055 -354.78,-9.55 -930.338,4.7096 -1156.026,27.7882 -225.687,23.0787 -101.493,54.9746 -50.474,90.4166 z"
       fill="#1d8fe9"
       id="path1675-3-3"
       style="filter:url(#filter1_i-6-5)"
       transform="matrix(0.16654048,0,0,0.16654048,-62.730811,19.92289)"
       clip-path="url(#clipPath4374)" />
    <path
       d="m 150.79472,75.016653 c -0.2933,0.685667 -0.0141,1.434955 -0.0421,3.021679 -0.0279,1.586805 -0.3629,4.010996 -0.86025,5.818239 -0.49736,1.807245 -1.15709,2.997747 -1.68934,4.447013 -0.53233,1.449393 -0.93706,3.157626 -0.53478,4.330221 0.40228,1.172595 1.61126,1.80952 3.26113,1.819765 1.64965,0.01029 3.7399,-0.606127 5.34028,-1.52615 1.60033,-0.919895 2.71078,-2.143392 3.15989,-3.316479 0.44913,-1.17309 0.23709,-2.295818 -0.0873,-3.431484 -0.32431,-1.135589 -0.76067,-2.284087 -0.99236,-3.716625 -0.23157,-1.43246 -0.25843,-3.148752 -0.10547,-4.322309 0.15309,-1.173478 0.48582,-1.803964 0.27105,-2.354335 -0.21474,-0.550372 -0.97726,-1.020786 -2.01799,-1.457331 -1.04059,-0.436466 -2.35941,-0.839068 -3.45169,-0.72951 -1.09217,0.109636 -1.95789,0.731559 -2.25104,1.417306 z"
       fill="#ebf4f8"
       id="path1683-1-5"
       style="stroke-width:0.149999" />
    <path
       d="m 149.87731,90.186353 c 0.43738,0.26982 0.75041,0.70175 0.87119,1.201901 0.12069,0.500277 0.0393,1.028368 -0.22632,1.46987 -0.26558,0.441376 -0.69431,0.760621 -1.19276,0.888088 -0.49867,0.127514 -1.02683,0.05318 -1.47006,-0.206862 -0.44323,-0.260041 -0.7657,-0.684936 -0.8975,-1.182368 -0.13169,-0.497351 -0.0621,-1.027229 0.19384,-1.474385 0.25596,-0.447157 0.67754,-0.775725 1.17308,-0.914162 0.49561,-0.138563 1.0255,-0.07586 1.47425,0.174371"
       fill="#ebf4f8"
       id="path1685-0-6"
       style="stroke-width:0.149999" />
    <path
       d="m 149.52958,92.292999 c 0.61891,0.381811 1.06192,0.992991 1.23278,1.700807 0.17085,0.707814 0.0557,1.455141 -0.32016,2.079947 -0.376,0.624601 -0.98249,1.076327 -1.68793,1.256756 -0.70564,0.180477 -1.45303,0.07524 -2.08031,-0.292715 -0.6272,-0.368072 -1.08356,-0.969332 -1.26993,-1.673144 -0.1865,-0.703893 -0.0879,-1.453635 0.27427,-2.086406 0.36216,-0.632774 0.95867,-1.097719 1.65998,-1.293737 0.70144,-0.195938 1.45113,-0.10726 2.08623,0.246839"
       fill="#ebf4f8"
       id="path1687-6-3"
       style="stroke-width:0.149999" />
    <path
       d="m 148.25869,95.210127 c 0.61888,0.381811 1.06191,0.992989 1.23278,1.700805 0.17084,0.707816 0.0557,1.455142 -0.32018,2.079949 -0.37598,0.624601 -0.98249,1.076329 -1.68792,1.256759 -0.70564,0.18047 -1.45304,0.0752 -2.08032,-0.292717 -0.62719,-0.368073 -1.08356,-0.969331 -1.26993,-1.673145 -0.18648,-0.703894 -0.0879,-1.453635 0.27426,-2.086406 0.36218,-0.632773 0.95868,-1.097719 1.66,-1.293737 0.70143,-0.195938 1.45111,-0.10726 2.08622,0.246839"
       fill="#ebf4f8"
       id="path1689-3-9"
       style="stroke-width:0.149999" />
    <path
       d="m 147.51063,98.117943 c 0.71758,0.442692 1.23117,1.151163 1.42919,1.971787 0.19814,0.82071 0.0648,1.68715 -0.37113,2.4114 -0.43587,0.72425 -1.13918,1.24774 -1.95704,1.45698 -0.81785,0.20924 -1.68451,0.0874 -2.41159,-0.33936 -0.72724,-0.42678 -1.25619,-1.12376 -1.47242,-1.93975 -0.216,-0.81604 -0.10176,-1.685138 0.31805,-2.418768 0.41981,-0.733631 1.11137,-1.27265 1.92444,-1.499832 0.81326,-0.227231 1.68237,-0.124445 2.41871,0.286114"
       fill="#ebf4f8"
       id="path1691-2-4"
       style="stroke-width:0.149999" />
    <path
       d="m 158.56823,86.68471 c 0.45985,-0.0023 0.90156,0.176739 1.22945,0.498872 0.32785,0.321926 0.51541,0.760695 0.52184,1.220789 0.006,0.460303 -0.16863,0.904986 -0.48748,1.237549 -0.31864,0.332516 -0.75524,0.525989 -1.21496,0.538654 -0.45951,0.01262 -0.90523,-0.156794 -1.24017,-0.471478 -0.33485,-0.314602 -0.53195,-0.749039 -0.54849,-1.209027 -0.0167,-0.460069 0.14874,-0.908447 0.45997,-1.247819 0.31131,-0.3395 0.74367,-0.542648 1.20286,-0.565326"
       fill="#ebf4f8"
       id="path1693-0-8"
       style="stroke-width:0.149999" />
    <path
       d="m 159.18741,88.582771 c 0.51425,-0.0028 1.00845,0.197739 1.3751,0.557888 0.36674,0.360018 0.57652,0.850747 0.58372,1.365597 0.007,0.514853 -0.1887,1.012093 -0.54529,1.384119 -0.35639,0.371977 -0.84466,0.588378 -1.35886,0.602505 -0.51412,0.01399 -1.01254,-0.175409 -1.38707,-0.527369 -0.37473,-0.351911 -0.59504,-0.837855 -0.61372,-1.352387 -0.0185,-0.514451 0.16643,-1.015969 0.51453,-1.395688 0.34825,-0.379641 0.83179,-0.606906 1.34549,-0.632256"
       fill="#ebf4f8"
       id="path1695-6-1"
       style="stroke-width:0.149999" />
    <path
       d="m 160.21569,90.955292 c 0.72772,-0.004 1.42703,0.27973 1.94595,0.789326 0.51891,0.509595 0.81576,1.204021 0.82596,1.932567 0.0102,0.72842 -0.26706,1.432219 -0.77152,1.958526 -0.50446,0.526308 -1.19543,0.832692 -1.9229,0.852545 -0.72752,0.01998 -1.43295,-0.248134 -1.96296,-0.746058 -0.53011,-0.498002 -0.84217,-1.185771 -0.86837,-1.913796 -0.0262,-0.728027 0.23544,-1.437804 0.72814,-1.975063 0.49273,-0.537259 1.17683,-0.858802 1.90384,-0.894792"
       fill="#ebf4f8"
       id="path1697-1-2"
       style="stroke-width:0.149999" />
    <path
       d="m 162.21752,93.215324 c 0.72764,-0.0039 1.42697,0.279857 1.94587,0.789453 0.51892,0.509595 0.81577,1.204019 0.82596,1.932567 0.0102,0.728342 -0.26706,1.432217 -0.77152,1.958524 -0.50448,0.52631 -1.19545,0.832693 -1.92288,0.852546 -0.72756,0.01998 -1.43299,-0.248133 -1.9631,-0.746135 -0.52991,-0.498052 -0.84205,-1.185695 -0.86825,-1.91372 -0.0262,-0.728025 0.23544,-1.437803 0.72815,-1.975062 0.4928,-0.537386 1.17682,-0.858802 1.90382,-0.894792"
       fill="#ebf4f8"
       id="path1699-5-9"
       style="stroke-width:0.149999" />
    <path
       d="m 164.1188,95.701483 c 0.84373,-0.0044 1.65432,0.32442 2.25603,0.915228 0.60169,0.590808 0.94569,1.395924 0.95751,2.24039 0.0119,0.844672 -0.30962,1.660629 -0.89439,2.270819 -0.58476,0.61019 -1.38581,0.96533 -2.22935,0.98848 -0.84344,0.023 -1.66123,-0.28779 -2.27578,-0.8652 -0.61442,-0.57733 -0.97618,-1.374537 -1.00676,-2.218591 -0.0304,-0.844102 0.27295,-1.666873 0.84424,-2.289782 0.57128,-0.622911 1.36434,-0.995667 2.20719,-1.037404"
       fill="#ebf4f8"
       id="path1701-5-3"
       style="stroke-width:0.149999" />
    <path
       d="m 150.20095,101.45747 c 1.52272,0.93941 2.63531,2.40622 3.09629,4.0819 0.46097,1.67568 0.23299,3.4251 -0.63427,4.86861 -0.8674,1.44342 -2.30414,2.46441 -3.99837,2.84117 -1.69416,0.37696 -3.50929,0.0792 -5.05115,-0.82833 -1.5418,-0.90764 -2.68611,-2.35189 -3.18425,-4.01931 -0.49838,-1.66737 -0.31053,-3.42341 0.52291,-4.88691 0.83321,-1.46345 2.24476,-2.51619 3.92794,-2.92989 1.68321,-0.4135 3.50241,-0.15463 5.06273,0.72072"
       fill="#ebf4f8"
       id="path1703-4-9"
       style="stroke-width:0.149999" />
    <path
       d="m 168.09282,97.99295 c 1.16603,0.719363 2.00052,1.870771 2.32242,3.20422 0.32184,1.33357 0.10516,2.74154 -0.60311,3.91847 -0.70828,1.17694 -1.85113,2.0278 -3.18019,2.36775 -1.32914,0.34007 -2.73742,0.1419 -3.91898,-0.55144 -1.18161,-0.69355 -2.0414,-1.82621 -2.39261,-3.15217 -0.35124,-1.32617 -0.16557,-2.73845 0.51673,-3.930706 0.68222,-1.192128 1.80608,-2.06792 3.1274,-2.437318 1.32139,-0.369191 2.73371,-0.20217 3.93035,0.465037"
       fill="#ebf4f8"
       id="path1711-6-5"
       style="stroke-width:0.149999" />
    <path
       d="m 160.8924,95.665796 c 1.16604,0.719365 2.00052,1.870772 2.32243,3.204219 0.32184,1.333575 0.10515,2.741535 -0.60311,3.918475 -0.70828,1.17693 -1.85114,2.0278 -3.18021,2.36774 -1.32912,0.34008 -2.7374,0.1419 -3.91897,-0.55144 -1.18162,-0.69354 -2.04139,-1.8262 -2.3926,-3.15216 -0.35125,-1.32617 -0.16559,-2.738454 0.51673,-3.93071 0.68222,-1.192128 1.80608,-2.067922 3.1274,-2.437318 1.32137,-0.369189 2.7337,-0.20217 3.93035,0.465038"
       fill="#ebf4f8"
       id="path1713-9-0"
       style="stroke-width:0.149999" />
    <path
       d="m 172.57146,100.67804 c 1.46222,0.90208 2.5096,2.34433 2.91487,4.01403 0.40537,1.66956 0.13585,3.43156 -0.75015,4.90358 -0.88579,1.47209 -2.31652,2.53537 -3.98152,2.95905 -1.66502,0.42367 -3.43004,0.17355 -4.91173,-0.69612 -1.48175,-0.86955 -2.56064,-2.28842 -3.00272,-3.94874 -0.44196,-1.66024 -0.21126,-3.42774 0.64187,-4.91891 0.85323,-1.4913 2.2601,-2.58588 3.91544,-3.04618 1.65528,-0.460176 3.42521,-0.249146 4.9258,0.5876"
       fill="#ebf4f8"
       id="path1715-3-9"
       style="stroke-width:0.149999" />
    <path
       d="m 157.89932,87.619273 c 1.08011,0.666359 1.59936,2.144462 1.44506,4.113286 -0.15441,1.968953 -0.96998,4.269716 -2.26972,6.403088 -1.29953,2.133323 -2.97851,3.926973 -4.67226,4.991743 -1.69374,1.06476 -3.26556,1.31452 -4.37453,0.69522 -1.10879,-0.61935 -1.66499,-2.05785 -1.54805,-4.003214 0.11713,-1.945411 0.89794,-4.240659 2.17317,-6.387738 1.27515,-2.146952 2.94193,-3.972475 4.63826,-5.080041 1.69623,-1.107646 3.28537,-1.408054 4.42228,-0.836026"
       fill="#ebf4f8"
       id="path1721-5-8"
       style="stroke-width:0.149999" />
    <path
       d="m 172.81962,100.82373 c 1.46222,0.90208 2.50958,2.34434 2.91486,4.01403 0.40536,1.66957 0.13571,3.43157 -0.75014,4.90358 -0.88579,1.47209 -2.31652,2.53537 -3.98154,2.95905 -1.66502,0.42368 -3.43002,0.17355 -4.91171,-0.69612 -1.48175,-0.86954 -2.56065,-2.28841 -3.00272,-3.94874 -0.44196,-1.66024 -0.21128,-3.42774 0.64187,-4.91891 0.85321,-1.4913 2.26009,-2.58587 3.91544,-3.04618 1.65528,-0.460173 3.42519,-0.249142 4.92578,0.5876"
       fill="#ebf4f8"
       id="path1727-5-6"
       style="stroke-width:0.149999" />
    <path
       d="m 533.827,214.04 c -0.65,-0.773 -1.377,-1.477 -2.17,-2.101 -17.673,-13.923 -64.799,13.687 -64.799,13.687 l -3.076,-5.327 c 0,0 19.331,-13.397 44.071,-37.427 22.253,-21.628 61.198,-8.102 68.793,-5.174 0.849,0.333 1.308,0.524 1.308,0.524 5.709,32.974 -44.127,35.818 -44.127,35.818 z"
       fill="#afc0e0"
       id="path1735-4-9"
       style="filter:url(#filter3_dd-8-4)"
       transform="matrix(0.07875658,-0.12765992,0.12765992,0.07875658,80.56018,125.69251)" />
    <path
       opacity="0.2"
       d="m 578.275,180.676 c -0.074,-0.794 -0.172,-1.6 -0.318,-2.433 0,0 -0.455,-0.185 -1.309,-0.524 -7.594,-2.928 -46.539,-16.454 -68.792,5.174 -24.74,24.03 -44.074,37.406 -44.074,37.406 l 1.73,2.996 c 0,0 19.34,-13.38 44.07,-37.427 22.148,-21.532 60.855,-8.217 68.693,-5.192 z"
       fill="#ffffff"
       id="path1737-3-8"
       style="filter:url(#filter3_dd-8-4)"
       transform="matrix(0.07875658,-0.12765992,0.12765992,0.07875658,80.56018,125.69251)" />
    <path
       d="m 579.652,307.248 c -33.19,9.394 -54.435,19.459 -54.435,19.459 l -3.082,-5.337 c 0,0 49.628,-28.205 43.965,-50.757 -0.116,-0.492 -0.263,-0.977 -0.439,-1.451 0,0 27.374,-41.747 53.076,-20.302 0,0 -0.046,0.393 -0.159,1.12 -1.124,7.372 -8.724,48.71 -38.926,57.268 z"
       fill="#afc0e0"
       id="path1739-0-4"
       style="filter:url(#filter3_dd-8-4)"
       transform="matrix(0.07875658,-0.12765992,0.12765992,0.07875658,80.56018,125.69251)" />
    <path
       opacity="0.1"
       d="m 533.827,214.04 c -0.65,-0.773 -1.378,-1.477 -2.171,-2.102 14.122,-12.515 29.158,-23.959 44.982,-34.236 0.85,0.333 1.309,0.524 1.309,0.524 5.715,32.97 -44.12,35.814 -44.12,35.814 z"
       fill="#000000"
       id="path1741-7-8"
       style="filter:url(#filter3_dd-8-4)"
       transform="matrix(0.07875658,-0.12765992,0.12765992,0.07875658,80.56018,125.69251)" />
    <path
       opacity="0.1"
       d="m 618.578,249.994 c -16.912,8.285 -34.466,15.188 -52.492,20.641 -0.116,-0.492 -0.263,-0.977 -0.439,-1.451 0,0 27.375,-41.747 53.076,-20.302 0.008,-0.018 -0.038,0.375 -0.145,1.112 z"
       fill="#000000"
       id="path1743-8-1"
       style="filter:url(#filter3_dd-8-4)"
       transform="matrix(0.07875658,-0.12765992,0.12765992,0.07875658,80.56018,125.69251)" />
    <path
       d="m 557.513,271.97 c -8.496,2.401 -17.371,4.589 -26.625,6.565 0,0 -19.4,-4.776 -23.628,-40.926 0,0 6.482,-7.598 18.504,-18.779 26.428,-24.593 79.645,-66.514 149.616,-83.058 21.005,-5.024 42.561,-7.373 64.155,-6.992 0,0 -8.724,25.415 -35.833,56.024 -27.11,30.609 -72.62,66.403 -146.189,87.166 z"
       fill="#e3e8f4"
       id="path1745-6-0"
       style="filter:url(#filter3_dd-8-4)"
       transform="matrix(0.07875658,-0.12765992,0.12765992,0.07875658,80.56018,125.69251)" />
    <path
       d="m 618.419,201.95 c 7.662,13.271 24.631,17.817 37.902,10.156 13.271,-7.662 17.818,-24.632 10.156,-37.903 -7.662,-13.271 -24.632,-17.818 -37.902,-10.156 -13.271,7.662 -17.818,24.632 -10.156,37.903 z"
       fill="#afc0e0"
       id="path1747-8-3"
       style="filter:url(#filter3_dd-8-4)"
       transform="matrix(0.07875658,-0.12765992,0.12765992,0.07875658,80.56018,125.69251)" />
    <path
       d="m 652.274,205.126 c -3.228,1.863 -6.917,2.771 -10.641,2.619 -3.723,-0.152 -7.326,-1.357 -10.391,-3.477 -3.065,-2.12 -5.465,-5.066 -6.921,-8.496 -1.456,-3.43 -1.908,-7.203 -1.303,-10.88 0.3,-1.798 0.845,-3.545 1.621,-5.194 0.346,-0.739 0.738,-1.455 1.173,-2.145 1.702,-2.686 4.03,-4.919 6.786,-6.507 0.137,-0.079 0.271,-0.157 0.406,-0.234 3.694,-2.017 7.938,-2.797 12.108,-2.227 4.171,0.571 8.049,2.462 11.066,5.396 1.142,1.127 2.148,2.384 2.995,3.746 l 0.294,0.51 c 1.294,2.238 2.134,4.708 2.473,7.271 0.338,2.562 0.169,5.167 -0.499,7.664 -0.668,2.496 -1.822,4.837 -3.395,6.888 -1.573,2.052 -3.534,3.773 -5.772,5.066 z"
       fill="#1d8fe9"
       id="path1749-8-0"
       style="filter:url(#filter3_dd-8-4)"
       transform="matrix(0.07875658,-0.12765992,0.12765992,0.07875658,80.56018,125.69251)" />
    <path
       d="m 703.7,184.801 c -28.793,-19.727 -28.32,-49.051 -28.32,-49.051 21.007,-5.017 42.562,-7.359 64.156,-6.97 0,0 -8.724,25.415 -35.836,56.021 z"
       fill="#afc0e0"
       id="path1751-4-4"
       style="filter:url(#filter3_dd-8-4)"
       transform="matrix(0.07875658,-0.12765992,0.12765992,0.07875658,80.56018,125.69251)" />
    <path
       d="m 557.513,271.97 c -5.754,1.623 -11.679,3.15 -17.774,4.581 -2.904,0.687 -5.852,1.345 -8.843,1.975 0,0 -19.401,-4.776 -23.629,-40.927 0,0 2.105,-2.467 6.132,-6.671 3.049,-3.164 7.192,-7.305 12.367,-12.118 0,0 1.621,13.431 10.451,28.724 5.423,9.467 12.659,17.771 21.296,24.436 z"
       fill="#afc0e0"
       id="path1753-3-4"
       style="filter:url(#filter3_dd-8-4)"
       transform="matrix(0.07875658,-0.12765992,0.12765992,0.07875658,80.56018,125.69251)" />
    <path
       d="m 539.74,276.551 c -2.904,0.687 -5.852,1.345 -8.843,1.975 0,0 -19.401,-4.776 -23.629,-40.926 0,0 2.104,-2.468 6.132,-6.672 -0.002,-0.003 8.543,34.398 26.34,45.623 z"
       fill="#e3e8f4"
       id="path1755-1-4"
       style="filter:url(#filter3_dd-8-4)"
       transform="matrix(0.07875658,-0.12765992,0.12765992,0.07875658,80.56018,125.69251)" />
    <path
       opacity="0.2"
       d="m 511.004,244.079 c 0,0 6.486,-7.6 18.504,-18.779 26.432,-24.595 79.649,-66.515 149.62,-83.059 18.914,-4.508 38.278,-6.858 57.722,-7.004 1.872,-4.109 2.676,-6.465 2.676,-6.465 -21.59,-0.386 -43.143,1.959 -64.146,6.978 -69.971,16.544 -123.188,58.464 -149.619,83.059 -12.019,11.179 -18.504,18.779 -18.504,18.779 1.674,14.281 5.714,23.663 9.986,29.793 -2.761,-5.75 -5.069,-13.336 -6.239,-23.302 z"
       fill="#ffffff"
       id="path1757-4-4"
       style="filter:url(#filter3_dd-8-4)"
       transform="matrix(0.07875658,-0.12765992,0.12765992,0.07875658,80.56018,125.69251)" />
  </g>
</svg>
