<svg width="1924" height="401" viewBox="0 0 1924 401" fill="none" xmlns="http://www.w3.org/2000/svg">
<g clip-path="url(#clip0)">
<path fill-rule="evenodd" clip-rule="evenodd" d="M1255 410.045L1640.5 409.645V16.9193L1255 410.045Z" fill="#6DBEFF"/>
<path fill-rule="evenodd" clip-rule="evenodd" d="M1456 212.985L1641 399.097H1846V0.995239H1456V212.985Z" fill="#1D8FE9"/>
<path fill-rule="evenodd" clip-rule="evenodd" d="M1669 0H1846V209.004H1669V0Z" fill="#6DBEFF"/>
<path d="M1669 -8H1456V93H1669V-8Z" fill="#2E303E"/>
<path fill-rule="evenodd" clip-rule="evenodd" d="M1669 0V211.989H1456L1669 0Z" fill="#DBE2EA"/>
<path fill-rule="evenodd" clip-rule="evenodd" d="M1720 247.819L1876 403.078H1720V247.819Z" fill="#2E303E"/>
<path fill-rule="evenodd" clip-rule="evenodd" d="M1873 -26.8719L1658 187.108L1873 400.093V-26.8719Z" fill="#1D8FE9"/>
<path fill-rule="evenodd" clip-rule="evenodd" d="M1456 211.989V0H1241" fill="#6DBEFF"/>
<path fill-rule="evenodd" clip-rule="evenodd" d="M1456 76.6346C1472.57 76.6346 1486 63.2669 1486 46.777C1486 30.2871 1472.57 16.9193 1456 16.9193C1439.43 16.9193 1426 30.2871 1426 46.777C1426 63.2669 1439.43 76.6346 1456 76.6346Z" fill="#DBE2EA"/>
<path fill-rule="evenodd" clip-rule="evenodd" d="M1782 92.5587C1798.57 92.5587 1812 79.1914 1812 62.7011C1812 46.2112 1798.57 32.8434 1782 32.8434C1765.43 32.8434 1752 46.2112 1752 62.7011C1752 79.1914 1765.43 92.5587 1782 92.5587Z" fill="#DBE2EA"/>
<path fill-rule="evenodd" clip-rule="evenodd" d="M1585 381.183C1605.99 381.183 1623 364.251 1623 343.363C1623 322.476 1605.99 305.543 1585 305.543C1564.01 305.543 1547 322.476 1547 343.363C1547 364.251 1564.01 381.183 1585 381.183Z" fill="#DBE2EA"/>
<path fill-rule="evenodd" clip-rule="evenodd" d="M1559 316.202L1612.64 369.582C1619.26 362.785 1623.34 353.513 1623.34 343.293C1623.34 322.445 1606.36 305.543 1585.41 305.543C1575.15 305.543 1565.83 309.605 1559 316.202Z" fill="#2E303E"/>
<path fill-rule="evenodd" clip-rule="evenodd" d="M1599.12 270.379C1638.41 309.477 1702.68 309.477 1741.96 270.379C1781.95 230.577 1781.95 166.616 1742.67 127.517C1702.68 87.7148 1638.41 87.7148 1598.42 127.517C1559.13 166.616 1559.13 230.577 1599.12 270.379V270.379Z" fill="#6DBEFF"/>
<path fill-rule="evenodd" clip-rule="evenodd" d="M1636.77 233.25C1655.74 252.125 1686.76 252.125 1705.73 233.25C1725.03 214.035 1725.03 183.157 1706.07 164.282C1686.76 145.067 1655.74 145.067 1636.43 164.282C1617.47 183.157 1617.47 214.035 1636.77 233.25Z" fill="#2E303E"/>
<path fill-rule="evenodd" clip-rule="evenodd" d="M1604.25 275.134C1643.81 309.407 1704.34 307.822 1741.96 270.379C1780.26 232.262 1781.88 171.988 1747.45 132.614L1604.25 275.134Z" fill="#DBE2EA"/>
</g>
<g clip-path="url(#clip1)">
<path fill-rule="evenodd" clip-rule="evenodd" d="M676 0L204 0.408084V401L676 0Z" fill="#6DBEFF"/>
<path fill-rule="evenodd" clip-rule="evenodd" d="M204 400.902H27V190.902H204V400.902Z" fill="#6DBEFF"/>
<path d="M204 187.902H417V400.902H204V187.902Z" fill="#2E303E"/>
<path d="M204 187.902H417V400.902H204V187.902Z" fill="#2E303E"/>
<path fill-rule="evenodd" clip-rule="evenodd" d="M204 400.902V187.902H417L204 400.902Z" fill="#DBE2EA"/>
<path fill-rule="evenodd" clip-rule="evenodd" d="M158 156.902L2 0.9021H158V156.902Z" fill="#DBE2EA"/>
<path fill-rule="evenodd" clip-rule="evenodd" d="M0 427.902L215 212.902L0 -1.0979L0 427.902Z" fill="#1D8FE9"/>
<path fill-rule="evenodd" clip-rule="evenodd" d="M417 187.902V400.902H632" fill="#6DBEFF"/>
<path fill-rule="evenodd" clip-rule="evenodd" d="M91 307.902C74.43 307.902 61 321.333 61 337.902C61 354.471 74.43 367.902 91 367.902C107.57 367.902 121 354.471 121 337.902C121 321.333 107.57 307.902 91 307.902Z" fill="#2E303E"/>
<path fill-rule="evenodd" clip-rule="evenodd" d="M314 83.1931L260.365 29.5581C253.737 36.3881 249.656 45.7041 249.656 55.9721C249.656 76.9201 266.638 93.9021 287.586 93.9021C297.855 93.9021 307.171 89.8211 314 83.1931Z" fill="#2E303E"/>
<path fill-rule="evenodd" clip-rule="evenodd" d="M273.875 129.234C234.59 89.9501 170.324 89.9501 131.04 129.234C91.0499 169.226 91.0498 233.492 130.33 272.777C170.324 312.769 234.59 312.769 274.582 272.777C313.867 233.492 313.867 169.226 273.875 129.234Z" fill="#6DBEFF"/>
<path fill-rule="evenodd" clip-rule="evenodd" d="M268.754 124.456C229.193 90.0201 168.661 91.6131 131.04 129.234C92.74 167.533 91.12 228.094 125.55 267.656L268.754 124.456Z" fill="#2E303E"/>
<path fill-rule="evenodd" clip-rule="evenodd" d="M291 40.709L344.635 94.344C351.263 87.514 355.344 78.1981 355.344 67.9301C355.344 46.9821 338.362 30 317.414 30C307.145 30 297.829 34.081 291 40.709Z" fill="#2E303E"/>
</g>
<path d="M1872 0H1924V399H1872V0Z" fill="#1D8FE9"/>
<defs>
<clipPath id="clip0">
<rect width="632" height="399" fill="white" transform="translate(1241)"/>
</clipPath>
<clipPath id="clip1">
<rect width="676.164" height="400.902" fill="white"/>
</clipPath>
</defs>
</svg>
